<svg width="1018" height="896" viewBox="0 0 1018 896" fill="none" xmlns="http://www.w3.org/2000/svg">
<path d="M787.181 54.6208C773.248 30.4875 747.498 15.6208 719.631 15.6208L515.129 15.6208L594.863 153.725C614.878 188.392 589.86 231.725 549.83 231.725L435.394 231.725C407.528 231.725 381.778 246.592 367.844 270.725L277.14 427.829C269.995 440.205 269.995 455.453 277.14 467.829L367.844 624.933C381.778 649.067 407.528 663.933 435.394 663.933L549.83 663.933C589.86 663.933 614.878 707.267 594.863 741.933L515.129 880.038L719.631 880.038C747.498 880.038 773.248 865.171 787.181 841.038L991.683 486.829C1005.62 462.696 1005.62 432.962 991.683 408.829L787.181 54.6208Z" fill="#1B1D1E" fill-opacity="0.1"/>
<path d="M515.129 15.6208L719.631 15.6208C747.498 15.6208 773.248 30.4875 787.181 54.6208L991.683 408.829C1005.62 432.962 1005.62 462.696 991.683 486.829L787.181 841.038C773.248 865.171 747.498 880.038 719.631 880.038L515.129 880.038M515.129 15.6208L594.863 153.725C614.878 188.392 589.86 231.725 549.83 231.725L435.394 231.725C407.528 231.725 381.778 246.592 367.844 270.725L277.14 427.829C269.995 440.205 269.995 455.453 277.14 467.829L367.844 624.933C381.778 649.067 407.528 663.933 435.394 663.933L549.83 663.933C589.86 663.933 614.878 707.267 594.863 741.933L515.129 880.038M515.129 15.6208L311.868 15.6208L265.654 15.218L242.551 55.2345M515.129 880.038L311.807 880.038C311.807 880.038 311.807 880.038 311.807 880.038C311.793 880.038 283.636 880.037 265.592 880.037M515.129 880.038C515.129 880.038 363.042 880.037 265.592 880.037M242.551 55.2345C242.594 55.2592 242.679 55.3085 242.679 55.3085M242.551 55.2345L242.679 55.3085M242.679 55.3085L38.8862 408.289M38.8862 408.289C38.8435 408.264 38.8007 408.239 38.7578 408.214L38.8862 408.289ZM38.8862 408.289L15.7185 448.268L39.2366 487.976L242.485 840.013L246.334 846.681C246.334 846.681 246.334 846.681 246.335 846.681C246.336 846.684 258.072 867.011 265.592 880.037" stroke="#5D6674" stroke-opacity="0.25" stroke-width="30" stroke-linecap="round" stroke-linejoin="round"/>
</svg>
