<svg width="89" height="101" viewBox="0 0 89 101" fill="none" xmlns="http://www.w3.org/2000/svg">
<path d="M48.4283 2.43994L84.2249 23.2036C86.553 24.5489 87.7297 27.0587 87.7305 29.7502V71.2224C87.7305 73.9139 86.5538 76.4212 84.2257 77.7771L48.5645 98.5221C47.4155 99.1871 46.1123 99.5325 44.7808 99.5325C43.4671 99.5325 42.1607 99.1871 41.0124 98.5221L29.0124 91.4233C27.2227 90.4202 28.092 90.0642 28.6815 89.859C31.0737 89.0294 31.5473 88.8373 34.0977 87.3914C34.3637 87.243 34.6969 87.3006 34.9735 87.4611L44.1507 92.934C44.4872 93.1181 44.8862 93.1181 45.1927 92.934L80.9812 72.1939C81.3177 72.0033 81.2431 71.6181 81.2431 71.2224V29.7502C81.2431 29.3472 81.2974 28.9668 80.956 28.7617L45.3054 8.03855C44.9705 7.84798 44.4945 7.84798 44.158 8.03855L8.17085 28.7665C7.82378 28.9668 7.44832 29.3593 7.44832 29.7502V71.2224C7.44832 71.6181 7.65429 71.9936 7.9965 72.1801L17.8265 77.8671C23.1672 80.5375 26.0995 77.3935 26.0995 74.2342V34.6205C26.0995 33.8864 26.3912 33.1823 26.9103 32.6632C27.4295 32.144 28.1337 31.8524 28.868 31.8525L29.3428 31.8525C31.1341 31.8527 32.5861 33.3049 32.5861 35.0962V53.7632H55.8095V33.6358C55.8095 32.6511 56.6077 31.8529 57.5923 31.8529H59.1476C59.8067 31.8529 60.4388 32.1148 60.9049 32.5808C61.371 33.0469 61.6328 33.6791 61.6328 34.3382V71.3233C61.6328 72.9314 60.3292 74.235 58.7212 74.235C57.1131 74.235 55.8095 72.9314 55.8095 71.3233V59.9195H32.5861V74.235C32.5861 81.3622 29.0764 85.4484 22.3182 85.4484C20.2422 85.4484 18.978 85.4484 14.415 83.2005L4.90364 77.7771C2.5763 76.431 0.960938 73.9139 0.960938 71.2224V29.7502C0.960938 27.0587 2.54305 24.5424 4.86958 23.2036L40.9459 2.43994C43.2189 1.15544 46.1731 1.15544 48.4283 2.43994Z" fill="#D9D9D9" stroke="#606E7C" stroke-width="1.5"/>
</svg>
