<svg width="7691" height="7691" viewBox="0 0 7691 7691" fill="none" xmlns="http://www.w3.org/2000/svg">
<path d="M2321 2257.33C2321 2287.7 2296.38 2312.32 2266 2312.32C2235.63 2312.32 2211.01 2287.7 2211.01 2257.33C2211.01 2226.96 2235.63 2202.34 2266 2202.34C2296.38 2202.34 2321 2226.96 2321 2257.33Z" fill="#7481A1"/>
<path d="M3921.61 3061.39C3921.61 3108.02 3883.81 3145.82 3837.18 3145.82C3790.55 3145.82 3752.75 3108.02 3752.75 3061.39C3752.75 3014.76 3790.55 2976.95 3837.18 2976.95C3883.81 2976.95 3921.61 3014.76 3921.61 3061.39Z" fill="#7481A1"/>
<path d="M2794.82 2257.33C2794.82 2287.7 2770.2 2312.32 2739.82 2312.32C2709.45 2312.32 2684.83 2287.7 2684.83 2257.33C2684.83 2226.96 2709.45 2202.34 2739.82 2202.34C2770.2 2202.34 2794.82 2226.96 2794.82 2257.33Z" fill="#7481A1"/>
<path d="M3268.64 2257.33C3268.64 2287.7 3244.02 2312.32 3213.65 2312.32C3183.27 2312.32 3158.65 2287.7 3158.65 2257.33C3158.65 2226.96 3183.27 2202.34 3213.65 2202.34C3244.02 2202.34 3268.64 2226.96 3268.64 2257.33Z" fill="#7481A1"/>
<path d="M2769 4118.59C2769 4163.12 2732.91 4199.21 2688.39 4199.21C2643.86 4199.21 2607.77 4163.12 2607.77 4118.59C2607.77 4074.07 2643.86 4037.97 2688.39 4037.97C2732.91 4037.97 2769 4074.07 2769 4118.59Z" fill="#7481A1"/>
<path d="M3534.69 3592.97C3534.69 3637.5 3498.6 3673.59 3454.07 3673.59C3409.55 3673.59 3373.45 3637.5 3373.45 3592.97C3373.45 3548.45 3409.55 3512.35 3454.07 3512.35C3498.6 3512.35 3534.69 3548.45 3534.69 3592.97Z" fill="#7481A1"/>
<path d="M4302.9 3888.63C4302.9 3933.16 4266.81 3969.25 4222.28 3969.25C4177.76 3969.25 4141.67 3933.16 4141.67 3888.63C4141.67 3844.11 4177.76 3808.01 4222.28 3808.01C4266.81 3808.01 4302.9 3844.11 4302.9 3888.63Z" fill="#7481A1"/>
<path d="M4408.65 2256.74C4408.65 2224.27 4434.96 2197.96 4467.42 2197.96H5413.86C5446.32 2197.96 5472.64 2224.27 5472.64 2256.74C5472.64 2289.2 5446.32 2315.51 5413.86 2315.51H4467.42C4434.96 2315.51 4408.65 2289.2 4408.65 2256.74Z" fill="#7481A1"/>
<path d="M3364.31 3061.39L3345.97 3053.4L3342.48 3061.43L3346.01 3069.44L3364.31 3061.39ZM4310.05 3061.39L4328.38 3069.37L4331.88 3061.35L4328.35 3053.33L4310.05 3061.39ZM2857.99 4006.45L2841.32 4017.5L2841.32 4017.5L2857.99 4006.45ZM3647.73 3655.01L3628.69 3648.91L3647.73 3655.01ZM4033.33 3813.48L4051.91 3820.88L4033.33 3813.48ZM5036.57 3285.21C5038.03 3274.26 5030.34 3264.2 5019.39 3262.73L4840.98 3238.92C4830.03 3237.46 4819.97 3245.15 4818.51 3256.09C4817.05 3267.04 4824.74 3277.1 4835.68 3278.57L4994.28 3299.74L4973.11 3458.33C4971.64 3469.28 4979.34 3479.34 4990.28 3480.8C5001.23 3482.26 5011.29 3474.57 5012.75 3463.62L5036.57 3285.21ZM2086.84 1877.82H5604.4V1837.82H2086.84V1877.82ZM5823.4 2096.82V4843.91H5863.4V2096.82H5823.4ZM1867.84 4843.91V2096.82H1827.84V4843.91H1867.84ZM2067.16 5852.66H2434.76V5812.66H2067.16V5852.66ZM2434.76 5852.66H2930.41V5812.66H2434.76V5852.66ZM2502.76 4737.46H2862.41V4697.46H2502.76V4737.46ZM2950.41 5832.66V5082.91H2910.41V5832.66H2950.41ZM2950.41 5082.91V4785.46H2910.41V5082.91H2950.41ZM2434.76 5062.91H2086.84V5102.91H2434.76V5062.91ZM2454.76 5832.66V5082.91H2414.76V5832.66H2454.76ZM2454.76 5082.91V4785.46H2414.76V5082.91H2454.76ZM2930.41 5852.66H3211.27V5812.66H2930.41V5852.66ZM3279.27 4160.06H3631.55V4120.06H3279.27V4160.06ZM3211.27 5852.66H3699.55V5812.66H3211.27V5852.66ZM3679.55 4208.06V5082.91H3719.55V4208.06H3679.55ZM3679.55 5082.91V5832.66H3719.55V5082.91H3679.55ZM3211.27 5062.91H2930.41V5102.91H3211.27V5062.91ZM3231.27 5832.66V5082.91H3191.27V5832.66H3231.27ZM3231.27 5082.91V4208.06H3191.27V5082.91H3231.27ZM3699.55 5852.66H3977.48V5812.66H3699.55V5852.66ZM4045.48 4485.76H4400.2V4445.76H4045.48V4485.76ZM3977.48 5852.66H4468.2V5812.66H3977.48V5852.66ZM4448.2 4533.76V5082.91H4488.2V4533.76H4448.2ZM4448.2 5082.91V5832.66H4488.2V5082.91H4448.2ZM3977.48 5062.91H3699.55V5102.91H3977.48V5062.91ZM3997.48 5832.66V5082.91H3957.48V5832.66H3997.48ZM3997.48 5082.91V4533.76H3957.48V5082.91H3997.48ZM4468.2 5852.66H4754.82V5812.66H4468.2V5852.66ZM4754.82 5852.66H5245.54V5812.66H4754.82V5852.66ZM5245.54 5852.66H5606.88V5812.66H5245.54V5852.66ZM4822.82 3834.35H5177.54V3794.35H4822.82V3834.35ZM5265.54 5832.66V5082.91H5225.54V5832.66H5265.54ZM5265.54 5082.91V3882.36H5225.54V5082.91H5265.54ZM5604.4 5062.91H5245.54V5102.91H5604.4V5062.91ZM4754.82 5062.91H4468.2V5102.91H4754.82V5062.91ZM4774.82 5832.66V5082.91H4734.82V5832.66H4774.82ZM4774.82 5082.91V3882.36H4734.82V5082.91H4774.82ZM5177.54 3834.35C5204.05 3834.35 5225.54 3855.85 5225.54 3882.36H5265.54C5265.54 3833.75 5226.14 3794.35 5177.54 3794.35V3834.35ZM4045.48 4445.76C3996.88 4445.76 3957.48 4485.16 3957.48 4533.76H3997.48C3997.48 4507.25 4018.97 4485.76 4045.48 4485.76V4445.76ZM4400.2 4485.76C4426.71 4485.76 4448.2 4507.25 4448.2 4533.76H4488.2C4488.2 4485.16 4448.8 4445.76 4400.2 4445.76V4485.76ZM2862.41 4737.46C2888.92 4737.46 2910.41 4758.95 2910.41 4785.46H2950.41C2950.41 4736.86 2911.01 4697.46 2862.41 4697.46V4737.46ZM5823.4 4843.91C5823.4 4964.86 5725.35 5062.91 5604.4 5062.91V5102.91C5747.44 5102.91 5863.4 4986.95 5863.4 4843.91H5823.4ZM4822.82 3794.35C4774.22 3794.35 4734.82 3833.75 4734.82 3882.36H4774.82C4774.82 3855.85 4796.31 3834.35 4822.82 3834.35V3794.35ZM3631.55 4160.06C3658.06 4160.06 3679.55 4181.55 3679.55 4208.06H3719.55C3719.55 4159.45 3680.15 4120.06 3631.55 4120.06V4160.06ZM1827.84 4843.91C1827.84 4986.95 1943.8 5102.91 2086.84 5102.91V5062.91C1965.89 5062.91 1867.84 4964.86 1867.84 4843.91H1827.84ZM2502.76 4697.46C2454.16 4697.46 2414.76 4736.86 2414.76 4785.46H2454.76C2454.76 4758.95 2476.25 4737.46 2502.76 4737.46V4697.46ZM3279.27 4120.06C3230.67 4120.06 3191.27 4159.45 3191.27 4208.06H3231.27C3231.27 4181.55 3252.76 4160.06 3279.27 4160.06V4120.06ZM5604.4 1877.82C5725.35 1877.82 5823.4 1975.87 5823.4 2096.82H5863.4C5863.4 1953.78 5747.44 1837.82 5604.4 1837.82V1877.82ZM2086.84 1837.82C1943.8 1837.82 1827.84 1953.78 1827.84 2096.82H1867.84C1867.84 1975.87 1965.89 1877.82 2086.84 1877.82V1837.82ZM2384.68 2257.33C2384.68 2322.87 2331.55 2376.01 2266.01 2376.01V2416.01C2353.64 2416.01 2424.68 2344.96 2424.68 2257.33H2384.68ZM2266.01 2376.01C2200.46 2376.01 2147.33 2322.87 2147.33 2257.33H2107.33C2107.33 2344.96 2178.37 2416.01 2266.01 2416.01V2376.01ZM2147.33 2257.33C2147.33 2191.78 2200.46 2138.65 2266.01 2138.65V2098.65C2178.37 2098.65 2107.33 2169.69 2107.33 2257.33H2147.33ZM2266.01 2138.65C2331.55 2138.65 2384.68 2191.78 2384.68 2257.33H2424.68C2424.68 2169.69 2353.64 2098.65 2266.01 2098.65V2138.65ZM2301 2257.33C2301 2276.65 2285.33 2292.32 2266 2292.32V2332.32C2307.42 2332.32 2341 2298.75 2341 2257.33H2301ZM2266 2292.32C2246.68 2292.32 2231.01 2276.65 2231.01 2257.33H2191.01C2191.01 2298.75 2224.59 2332.32 2266 2332.32V2292.32ZM2231.01 2257.33C2231.01 2238 2246.68 2222.34 2266 2222.34V2182.34C2224.59 2182.34 2191.01 2215.91 2191.01 2257.33H2231.01ZM2266 2222.34C2285.33 2222.34 2301 2238 2301 2257.33H2341C2341 2215.91 2307.42 2182.34 2266 2182.34V2222.34ZM4030.1 3061.39C4030.1 3167.93 3943.73 3254.31 3837.18 3254.31V3294.31C3965.82 3294.31 4070.1 3190.02 4070.1 3061.39H4030.1ZM3837.18 3254.31C3730.63 3254.31 3644.26 3167.93 3644.26 3061.39H3604.26C3604.26 3190.02 3708.54 3294.31 3837.18 3294.31V3254.31ZM3644.26 3061.39C3644.26 2954.84 3730.63 2868.47 3837.18 2868.47V2828.47C3708.54 2828.47 3604.26 2932.75 3604.26 3061.39H3644.26ZM3837.18 2868.47C3943.73 2868.47 4030.1 2954.84 4030.1 3061.39H4070.1C4070.1 2932.75 3965.82 2828.47 3837.18 2828.47V2868.47ZM3901.61 3061.39C3901.61 3096.97 3872.77 3125.82 3837.18 3125.82V3165.82C3894.86 3165.82 3941.61 3119.06 3941.61 3061.39H3901.61ZM3837.18 3125.82C3801.6 3125.82 3772.75 3096.97 3772.75 3061.39H3732.75C3732.75 3119.06 3779.5 3165.82 3837.18 3165.82V3125.82ZM3772.75 3061.39C3772.75 3025.8 3801.6 2996.95 3837.18 2996.95V2956.95C3779.5 2956.95 3732.75 3003.71 3732.75 3061.39H3772.75ZM3837.18 2996.95C3872.77 2996.95 3901.61 3025.8 3901.61 3061.39H3941.61C3941.61 3003.71 3894.86 2956.95 3837.18 2956.95V2996.95ZM3382.65 3069.37C3464.1 2882.35 3648.42 2785.7 3835.06 2784.54C4021.58 2783.39 4207.33 2877.65 4291.74 3069.44L4328.35 3053.33C4236.47 2844.56 4034.51 2743.31 3834.81 2744.54C3635.22 2745.78 3434.82 2849.41 3345.97 3053.4L3382.65 3069.37ZM4291.71 3053.4C4210.26 3240.43 4025.93 3337.08 3839.3 3338.23C3652.78 3339.38 3467.02 3245.12 3382.62 3053.33L3346.01 3069.44C3437.88 3278.21 3639.85 3379.46 3839.55 3378.23C4039.14 3377 4239.54 3273.37 4328.38 3069.37L4291.71 3053.4ZM2774.82 2257.33C2774.82 2276.65 2759.15 2292.32 2739.82 2292.32V2332.32C2781.24 2332.32 2814.82 2298.75 2814.82 2257.33H2774.82ZM2739.82 2292.32C2720.5 2292.32 2704.83 2276.65 2704.83 2257.33H2664.83C2664.83 2298.75 2698.41 2332.32 2739.82 2332.32V2292.32ZM2704.83 2257.33C2704.83 2238 2720.5 2222.34 2739.82 2222.34V2182.34C2698.41 2182.34 2664.83 2215.91 2664.83 2257.33H2704.83ZM2739.82 2222.34C2759.15 2222.34 2774.82 2238 2774.82 2257.33H2814.82C2814.82 2215.91 2781.24 2182.34 2739.82 2182.34V2222.34ZM2858.5 2257.33C2858.5 2322.87 2805.37 2376.01 2739.83 2376.01V2416.01C2827.46 2416.01 2898.5 2344.96 2898.5 2257.33H2858.5ZM2739.83 2376.01C2674.28 2376.01 2621.15 2322.87 2621.15 2257.33H2581.15C2581.15 2344.96 2652.19 2416.01 2739.83 2416.01V2376.01ZM2621.15 2257.33C2621.15 2191.78 2674.28 2138.65 2739.83 2138.65V2098.65C2652.19 2098.65 2581.15 2169.69 2581.15 2257.33H2621.15ZM2739.83 2138.65C2805.37 2138.65 2858.5 2191.78 2858.5 2257.33H2898.5C2898.5 2169.69 2827.46 2098.65 2739.83 2098.65V2138.65ZM3248.64 2257.33C3248.64 2276.65 3232.97 2292.32 3213.65 2292.32V2332.32C3255.06 2332.32 3288.64 2298.75 3288.64 2257.33H3248.64ZM3213.65 2292.32C3194.32 2292.32 3178.65 2276.65 3178.65 2257.33H3138.65C3138.65 2298.75 3172.23 2332.32 3213.65 2332.32V2292.32ZM3178.65 2257.33C3178.65 2238 3194.32 2222.34 3213.65 2222.34V2182.34C3172.23 2182.34 3138.65 2215.91 3138.65 2257.33H3178.65ZM3213.65 2222.34C3232.97 2222.34 3248.64 2238 3248.64 2257.33H3288.64C3288.64 2215.91 3255.06 2182.34 3213.65 2182.34V2222.34ZM3332.33 2257.33C3332.33 2322.87 3279.19 2376.01 3213.65 2376.01V2416.01C3301.28 2416.01 3372.33 2344.96 3372.33 2257.33H3332.33ZM3213.65 2376.01C3148.1 2376.01 3094.97 2322.87 3094.97 2257.33H3054.97C3054.97 2344.96 3126.01 2416.01 3213.65 2416.01V2376.01ZM3094.97 2257.33C3094.97 2191.78 3148.1 2138.65 3213.65 2138.65V2098.65C3126.01 2098.65 3054.97 2169.69 3054.97 2257.33H3094.97ZM3213.65 2138.65C3279.19 2138.65 3332.33 2191.78 3332.33 2257.33H3372.33C3372.33 2169.69 3301.28 2098.65 3213.65 2098.65V2138.65ZM2749 4118.59C2749 4152.07 2721.86 4179.21 2688.39 4179.21V4219.21C2743.95 4219.21 2789 4174.16 2789 4118.59H2749ZM2688.39 4179.21C2654.91 4179.21 2627.77 4152.07 2627.77 4118.59H2587.77C2587.77 4174.16 2632.82 4219.21 2688.39 4219.21V4179.21ZM2627.77 4118.59C2627.77 4085.11 2654.91 4057.97 2688.39 4057.97V4017.97C2632.82 4017.97 2587.77 4063.02 2587.77 4118.59H2627.77ZM2688.39 4057.97C2721.86 4057.97 2749 4085.11 2749 4118.59H2789C2789 4063.02 2743.95 4017.97 2688.39 4017.97V4057.97ZM2871.69 4118.59C2871.69 4219.83 2789.62 4301.89 2688.39 4301.89V4341.89C2811.71 4341.89 2911.69 4241.92 2911.69 4118.59H2871.69ZM2688.39 4301.89C2587.15 4301.89 2505.09 4219.83 2505.09 4118.59H2465.09C2465.09 4241.92 2565.06 4341.89 2688.39 4341.89V4301.89ZM2505.09 4118.59C2505.09 4017.36 2587.15 3935.29 2688.39 3935.29V3895.29C2565.06 3895.29 2465.09 3995.27 2465.09 4118.59H2505.09ZM3514.69 3592.97C3514.69 3626.45 3487.55 3653.59 3454.07 3653.59V3693.59C3509.64 3693.59 3554.69 3648.54 3554.69 3592.97H3514.69ZM3454.07 3653.59C3420.59 3653.59 3393.45 3626.45 3393.45 3592.97H3353.45C3353.45 3648.54 3398.5 3693.59 3454.07 3693.59V3653.59ZM3393.45 3592.97C3393.45 3559.49 3420.59 3532.35 3454.07 3532.35V3492.35C3398.5 3492.35 3353.45 3537.4 3353.45 3592.97H3393.45ZM3454.07 3532.35C3487.55 3532.35 3514.69 3559.49 3514.69 3592.97H3554.69C3554.69 3537.4 3509.64 3492.35 3454.07 3492.35V3532.35ZM3270.77 3592.97C3270.77 3491.74 3352.84 3409.67 3454.07 3409.67V3369.67C3330.75 3369.67 3230.77 3469.65 3230.77 3592.97H3270.77ZM3454.07 3409.67C3555.31 3409.67 3637.37 3491.74 3637.37 3592.97H3677.37C3677.37 3469.65 3577.4 3369.67 3454.07 3369.67V3409.67ZM4282.9 3888.63C4282.9 3922.11 4255.76 3949.25 4222.28 3949.25V3989.25C4277.85 3989.25 4322.9 3944.2 4322.9 3888.63H4282.9ZM4222.28 3949.25C4188.81 3949.25 4161.67 3922.11 4161.67 3888.63H4121.67C4121.67 3944.2 4166.72 3989.25 4222.28 3989.25V3949.25ZM4161.67 3888.63C4161.67 3855.15 4188.81 3828.01 4222.28 3828.01V3788.01C4166.72 3788.01 4121.67 3833.06 4121.67 3888.63H4161.67ZM4222.28 3828.01C4255.76 3828.01 4282.9 3855.15 4282.9 3888.63H4322.9C4322.9 3833.06 4277.85 3788.01 4222.28 3788.01V3828.01ZM4405.58 3888.63C4405.58 3989.87 4323.52 4071.93 4222.28 4071.93V4111.93C4345.61 4111.93 4445.58 4011.96 4445.58 3888.63H4405.58ZM4222.28 4071.93C4121.05 4071.93 4038.99 3989.87 4038.99 3888.63H3998.99C3998.99 4011.96 4098.96 4111.93 4222.28 4111.93V4071.93ZM2688.39 3935.29C2752.23 3935.29 2808.47 3967.92 2841.32 4017.5L2874.66 3995.41C2834.72 3935.12 2766.21 3895.29 2688.39 3895.29V3935.29ZM2841.32 4017.5C2860.51 4046.47 2871.69 4081.2 2871.69 4118.59H2911.69C2911.69 4073.1 2898.06 4030.73 2874.66 3995.41L2841.32 4017.5ZM3454.07 3776.27C3390.2 3776.27 3333.95 3743.62 3301.1 3694L3267.75 3716.08C3307.68 3776.41 3376.22 3816.27 3454.07 3816.27V3776.27ZM3301.1 3694C3281.93 3665.05 3270.77 3630.34 3270.77 3592.97H3230.77C3230.77 3638.43 3244.38 3680.78 3267.75 3716.08L3301.1 3694ZM2869.53 4022.79L3295.97 3721.38L3272.88 3688.71L2846.44 3990.12L2869.53 4022.79ZM3637.37 3592.97C3637.37 3612.51 3634.32 3631.3 3628.69 3648.91L3666.78 3661.1C3673.66 3639.6 3677.37 3616.7 3677.37 3592.97H3637.37ZM3628.69 3648.91C3605.03 3722.81 3535.77 3776.27 3454.07 3776.27V3816.27C3553.67 3816.27 3637.98 3751.09 3666.78 3661.1L3628.69 3648.91ZM4038.99 3888.63C4038.99 3864.66 4043.58 3841.81 4051.91 3820.88L4014.74 3806.09C4004.57 3831.65 3998.99 3859.51 3998.99 3888.63H4038.99ZM4051.91 3820.88C4078.87 3753.15 4145.02 3705.33 4222.28 3705.33V3665.33C4128.09 3665.33 4047.56 3723.66 4014.74 3806.09L4051.91 3820.88ZM3640.13 3673.51L4025.72 3831.98L4040.93 3794.98L3655.34 3636.51L3640.13 3673.51ZM4222.28 3705.33C4281.96 3705.33 4334.97 3733.83 4368.47 3778.03L4400.35 3753.87C4359.61 3700.12 4295.01 3665.33 4222.28 3665.33V3705.33ZM4368.47 3778.03C4391.77 3808.77 4405.58 3847.06 4405.58 3888.63H4445.58C4445.58 3838.04 4428.74 3791.32 4400.35 3753.87L4368.47 3778.03ZM4396.56 3781.84L5028.9 3298.45L5004.6 3266.67L4372.26 3750.06L4396.56 3781.84ZM4468.93 2120.75H5412.35V2080.75H4468.93V2120.75ZM5412.35 2392.72H4468.93V2432.72H5412.35V2392.72ZM4468.93 2392.72C4393.83 2392.72 4332.95 2331.84 4332.95 2256.74H4292.95C4292.95 2353.93 4371.74 2432.72 4468.93 2432.72V2392.72ZM5548.34 2256.74C5548.34 2331.84 5487.46 2392.72 5412.35 2392.72V2432.72C5509.55 2432.72 5588.34 2353.93 5588.34 2256.74H5548.34ZM5412.35 2120.75C5487.46 2120.75 5548.34 2181.64 5548.34 2256.74H5588.34C5588.34 2159.54 5509.55 2080.75 5412.35 2080.75V2120.75ZM4468.93 2080.75C4371.74 2080.75 4292.95 2159.54 4292.95 2256.74H4332.95C4332.95 2181.64 4393.83 2120.75 4468.93 2120.75V2080.75ZM4467.42 2217.96H5413.86V2177.96H4467.42V2217.96ZM5413.86 2295.51H4467.42V2335.51H5413.86V2295.51ZM4467.42 2295.51C4446.01 2295.51 4428.65 2278.15 4428.65 2256.74H4388.65C4388.65 2300.24 4423.92 2335.51 4467.42 2335.51V2295.51ZM5452.64 2256.74C5452.64 2278.15 5435.28 2295.51 5413.86 2295.51V2335.51C5457.37 2335.51 5492.64 2300.24 5492.64 2256.74H5452.64ZM5413.86 2217.96C5435.28 2217.96 5452.64 2235.32 5452.64 2256.74H5492.64C5492.64 2213.23 5457.37 2177.96 5413.86 2177.96V2217.96ZM4467.42 2177.96C4423.92 2177.96 4388.65 2213.23 4388.65 2256.74H4428.65C4428.65 2235.32 4446.01 2217.96 4467.42 2217.96V2177.96Z" fill="#7481A1"/>
</svg>
