<svg width="7691" height="7691" viewBox="0 0 7691 7691" fill="none" xmlns="http://www.w3.org/2000/svg">
<path d="M6425.08 5451.64V5135.23C6425.08 4991.63 6308.68 4875.23 6165.08 4875.23H6040.81M6425.08 5451.64V5768.06C6425.08 5911.65 6308.68 6028.06 6165.08 6028.06H5916.53C5772.94 6028.06 5656.53 5911.65 5656.53 5768.06V5451.64M6425.08 5451.64H6040.81M5656.53 5451.64V5135.23C5656.53 4991.63 5772.94 4875.23 5916.53 4875.23H6040.81M5656.53 5451.64H6040.81M6040.81 5451.64V5339.97M6040.81 4875.23V4186.74C6040.81 4097.27 5968.28 4024.74 5878.81 4024.74H5809.16C5719.69 4024.74 5647.16 4097.27 5647.16 4186.74V4512.29C5647.16 4588.5 5585.37 4650.29 5509.16 4650.29H5000.45M6040.81 4875.23V5002.59M5000.45 4650.29V5596.92H1673.18V4650.29H2516.71M5000.45 4650.29C4592.34 4650.29 4363.52 4650.29 3955.41 4650.29M2910.36 4650.29H3955.41M2910.36 4650.29V4519.07H3237.28M2910.36 4650.29H2516.71M3955.41 4650.29V4519.07H3618.86M2516.71 4650.29V4137.21M2516.71 4137.21L1421.37 4137.21C1335.76 4137.21 1266.37 4067.81 1266.37 3982.21V1817.84C1266.37 1732.24 1335.76 1662.84 1421.37 1662.84L5254.57 1662.85C5340.17 1662.85 5409.57 1732.25 5409.57 1817.85V3982.21C5409.57 4067.82 5340.17 4137.21 5254.57 4137.21L3618.86 4137.21M2516.71 4137.21H3237.28M3618.86 4519.07V4137.21M3618.86 4519.07H3237.28M3618.86 4137.21H3237.28M3237.28 4519.07V4137.21M3244.52 3527.35H1808.54V2373.78M3244.52 3527.35V3690.1H4479.46V3469.91M3244.52 3527.35V3168.36M3483.85 2507.81H4479.46V2660.98M3483.85 2507.81H3244.52V2570.03M3483.85 2507.81V2373.78M3244.52 3168.36H2373.36M3244.52 3168.36V2967.32M3244.52 2967.32H2172.32M3244.52 2967.32V2775.86M3244.52 2775.86H2157.96M3244.52 2775.86V2660.98M3244.52 2570.03H2000M3244.52 2570.03V2660.98M1808.54 2373.78V2187.1H3483.85V2373.78M1808.54 2373.78H3483.85M4479.46 2660.98H3244.52M4479.46 2660.98V3202.38M4479.46 3469.91L4326.29 3144.42L4479.46 3202.38M4479.46 3469.91L4543.2 3409.2M4626.71 3329.67L4680.49 3278.45L4479.46 3202.38M4626.71 3329.67L4752.44 3455.41L4670.92 3536.93L4543.2 3409.2M4626.71 3329.67L4543.2 3409.2M6040.81 5002.59V5002.59C6006.16 5002.59 5978.07 5030.68 5978.07 5065.33V5277.23C5978.07 5311.88 6006.16 5339.97 6040.81 5339.97V5339.97M6040.81 5002.59V5002.59C6072.7 5002.59 6098.56 5028.45 6098.56 5060.34V5282.22C6098.56 5314.11 6072.7 5339.97 6040.81 5339.97V5339.97M3227.44 4841.64V4831.38C3227.44 4792.87 3196.22 4761.64 3157.7 4761.64C3119.18 4761.64 3087.96 4792.87 3087.96 4831.38V4841.64C3087.96 4880.16 3119.18 4911.38 3157.7 4911.38C3196.22 4911.38 3227.44 4880.16 3227.44 4841.64ZM3501.47 4841.64V4831.38C3501.47 4792.87 3470.25 4761.64 3431.73 4761.64C3393.21 4761.64 3361.99 4792.87 3361.99 4831.38V4841.64C3361.99 4880.16 3393.21 4911.38 3431.73 4911.38C3470.25 4911.38 3501.47 4880.16 3501.47 4841.64ZM3766.85 4841.64V4831.38C3766.85 4792.87 3735.62 4761.64 3697.11 4761.64C3658.59 4761.64 3627.37 4792.87 3627.37 4831.38V4841.64C3627.37 4880.16 3658.59 4911.38 3697.11 4911.38C3735.62 4911.38 3766.85 4880.16 3766.85 4841.64ZM4032.22 4841.64V4831.38C4032.22 4792.87 4001 4761.64 3962.48 4761.64C3923.97 4761.64 3892.74 4792.87 3892.74 4831.38V4841.64C3892.74 4880.16 3923.97 4911.38 3962.48 4911.38C4001 4911.38 4032.22 4880.16 4032.22 4841.64ZM4309.14 4841.64V4831.38C4309.14 4792.87 4277.91 4761.64 4239.4 4761.64C4200.88 4761.64 4169.66 4792.87 4169.66 4831.38V4841.64C4169.66 4880.16 4200.88 4911.38 4239.4 4911.38C4277.91 4911.38 4309.14 4880.16 4309.14 4841.64ZM4577.4 4841.64V4831.38C4577.4 4792.87 4546.17 4761.64 4507.66 4761.64C4469.14 4761.64 4437.92 4792.87 4437.92 4831.38V4841.64C4437.92 4880.16 4469.14 4911.38 4507.66 4911.38C4546.17 4911.38 4577.4 4880.16 4577.4 4841.64ZM4831.24 4841.64V4831.38C4831.24 4792.87 4800.01 4761.64 4761.5 4761.64C4722.98 4761.64 4691.76 4792.87 4691.76 4831.38V4841.64C4691.76 4880.16 4722.98 4911.38 4761.5 4911.38C4800.01 4911.38 4831.24 4880.16 4831.24 4841.64ZM3089.93 5120.09V5109.84C3089.93 5071.32 3058.71 5040.1 3020.19 5040.1C2981.68 5040.1 2950.45 5071.32 2950.45 5109.84V5120.09C2950.45 5158.61 2981.68 5189.83 3020.19 5189.83C3058.71 5189.83 3089.93 5158.61 3089.93 5120.09ZM3363.96 5120.09V5109.84C3363.96 5071.32 3332.74 5040.1 3294.22 5040.1C3255.71 5040.1 3224.48 5071.32 3224.48 5109.84V5120.09C3224.48 5158.61 3255.71 5189.83 3294.22 5189.83C3332.74 5189.83 3363.96 5158.61 3363.96 5120.09ZM3629.34 5120.09V5109.84C3629.34 5071.32 3598.12 5040.1 3559.6 5040.1C3521.08 5040.1 3489.86 5071.32 3489.86 5109.84V5120.09C3489.86 5158.61 3521.08 5189.83 3559.6 5189.83C3598.12 5189.83 3629.34 5158.61 3629.34 5120.09ZM3894.72 5120.09V5109.84C3894.72 5071.32 3863.49 5040.1 3824.98 5040.1C3786.46 5040.1 3755.24 5071.32 3755.24 5109.84V5120.09C3755.24 5158.61 3786.46 5189.83 3824.98 5189.83C3863.49 5189.83 3894.72 5158.61 3894.72 5120.09ZM4171.63 5120.09V5109.84C4171.63 5071.32 4140.41 5040.1 4101.89 5040.1C4063.37 5040.1 4032.15 5071.32 4032.15 5109.84V5120.09C4032.15 5158.61 4063.37 5189.83 4101.89 5189.83C4140.41 5189.83 4171.63 5158.61 4171.63 5120.09ZM4439.89 5120.09V5109.84C4439.89 5071.32 4408.67 5040.1 4370.15 5040.1C4331.63 5040.1 4300.41 5071.32 4300.41 5109.84V5120.09C4300.41 5158.61 4331.63 5189.83 4370.15 5189.83C4408.67 5189.83 4439.89 5158.61 4439.89 5120.09ZM4693.73 5120.09V5109.84C4693.73 5071.32 4662.5 5040.1 4623.99 5040.1C4585.47 5040.1 4554.25 5071.32 4554.25 5109.84V5120.09C4554.25 5158.61 4585.47 5189.83 4623.99 5189.83C4662.5 5189.83 4693.73 5158.61 4693.73 5120.09ZM4302.38 5391.67V5381.41C4302.38 5342.9 4271.16 5311.67 4232.64 5311.67C4194.13 5311.67 4162.9 5342.9 4162.9 5381.41V5391.67C4162.9 5430.19 4194.13 5461.41 4232.64 5461.41C4271.16 5461.41 4302.38 5430.19 4302.38 5391.67ZM4556.22 5391.67V5381.41C4556.22 5342.9 4525 5311.67 4486.48 5311.67C4447.96 5311.67 4416.74 5342.9 4416.74 5381.41V5391.67C4416.74 5430.19 4447.96 5461.41 4486.48 5461.41C4525 5461.41 4556.22 5430.19 4556.22 5391.67ZM2439.16 5391.67V5381.41C2439.16 5342.9 2407.93 5311.67 2369.42 5311.67C2330.9 5311.67 2299.68 5342.9 2299.68 5381.41V5391.67C2299.68 5430.19 2330.9 5461.41 2369.42 5461.41C2407.93 5461.41 2439.16 5430.19 2439.16 5391.67ZM2693 5391.67V5381.41C2693 5342.9 2661.77 5311.67 2623.26 5311.67C2584.74 5311.67 2553.52 5342.9 2553.52 5381.41V5391.67C2553.52 5430.19 2584.74 5461.41 2623.26 5461.41C2661.77 5461.41 2693 5430.19 2693 5391.67ZM4737.93 2053.08H5025.13V2278.05H4737.93V2053.08ZM4737.93 2694.48H5025.13V2421.65H4737.93V2694.48ZM1531.21 2036.66V3785.02C1531.21 3853.5 1586.73 3909.02 1655.21 3909.02H5034.4C5102.89 3909.02 5158.4 3853.5 5158.4 3785.02V2036.66C5158.4 1968.17 5102.89 1912.66 5034.4 1912.66H1655.21C1586.73 1912.66 1531.21 1968.17 1531.21 2036.66ZM2877.32 5286.6H3999.45C4030.38 5286.6 4055.45 5311.67 4055.45 5342.6V5426.54C4055.45 5457.47 4030.38 5482.54 3999.45 5482.54H2877.32C2846.39 5482.54 2821.32 5457.47 2821.32 5426.54V5342.6C2821.32 5311.67 2846.39 5286.6 2877.32 5286.6ZM2751.93 5189.83V5189.83C2790.45 5189.83 2821.67 5158.61 2821.67 5120.09V5109.84C2821.67 5071.32 2790.45 5040.1 2751.93 5040.1V5040.1C2713.42 5040.1 2682.19 5071.32 2682.19 5109.84V5120.09C2682.19 5158.61 2713.42 5189.83 2751.93 5189.83ZM2226.53 5029.48V5029.48C2265.05 5029.48 2296.27 5060.7 2296.27 5099.22V5109.48C2296.27 5147.99 2265.05 5179.22 2226.53 5179.22V5179.22C2188.01 5179.22 2156.79 5147.99 2156.79 5109.48V5099.22C2156.79 5060.7 2188.01 5029.48 2226.53 5029.48ZM2959.18 4831.38V4841.64C2959.18 4880.16 2927.96 4911.38 2889.44 4911.38V4911.38C2850.92 4911.38 2819.7 4880.16 2819.7 4841.64V4831.38C2819.7 4792.87 2850.92 4761.64 2889.44 4761.64V4761.64C2927.96 4761.64 2959.18 4792.87 2959.18 4831.38ZM2626.95 4911.38V4911.38C2665.47 4911.38 2696.69 4880.16 2696.69 4841.64V4831.38C2696.69 4792.87 2665.47 4761.64 2626.95 4761.64V4761.64C2588.43 4761.64 2557.21 4792.87 2557.21 4831.38V4841.64C2557.21 4880.16 2588.43 4911.38 2626.95 4911.38ZM2364.04 4900.76V4900.76C2402.55 4900.76 2433.78 4869.54 2433.78 4831.02V4820.77C2433.78 4782.25 2402.55 4751.03 2364.04 4751.03V4751.03C2325.52 4751.03 2294.3 4782.25 2294.3 4820.77V4831.02C2294.3 4869.54 2325.52 4900.76 2364.04 4900.76ZM2169.18 4820.77V4831.02C2169.18 4869.54 2137.95 4900.76 2099.44 4900.76V4900.76C2060.92 4900.76 2029.7 4869.54 2029.7 4831.02V4820.77C2029.7 4782.25 2060.92 4751.03 2099.44 4751.03V4751.03C2137.95 4751.03 2169.18 4782.25 2169.18 4820.77ZM2489.44 5189.83V5189.83C2527.96 5189.83 2559.18 5158.61 2559.18 5120.09V5109.84C2559.18 5071.32 2527.96 5040.1 2489.44 5040.1V5040.1C2450.93 5040.1 2419.7 5071.32 2419.7 5109.84V5120.09C2419.7 5158.61 2450.93 5189.83 2489.44 5189.83Z" stroke="#7481A1" stroke-width="40" stroke-linecap="round" stroke-linejoin="round"/>
</svg>
