<svg width="7691" height="7690" viewBox="0 0 7691 7690" fill="none" xmlns="http://www.w3.org/2000/svg">
<path d="M2417.25 3494.92H2650.37C2679.44 3494.92 2703.01 3471.35 2703.01 3442.28V3151.2C2703.01 3122.13 2679.44 3098.56 2650.37 3098.56H2184.13C2155.06 3098.56 2131.5 3122.13 2131.5 3151.2V3442.28C2131.5 3471.35 2155.06 3494.92 2184.13 3494.92H2417.25ZM2417.25 3494.92V3988.15H2757.93M4214.68 3494.92H4447.8C4476.87 3494.92 4500.44 3471.35 4500.44 3442.28V3151.2C4500.44 3122.13 4476.87 3098.56 4447.8 3098.56H3981.57C3952.49 3098.56 3928.93 3122.13 3928.93 3151.2V3442.28C3928.93 3471.35 3952.49 3494.92 3981.57 3494.92H4214.68ZM4214.68 3494.92V3988.15H3835.81M3380.18 3988.15H3044.92M3597.11 3988.15H3451.67M4197.27 6180.02L4748.53 5841.91M4983.37 4991.98H5290.7V4703.56M3612.23 4311.13V4523.9H4056.67M4803.71 4022.72H5229.23M4803.71 3672.84H5229.23M4803.71 3516.81H5229.23M4803.71 3166.94H5229.23M4803.71 2821.79H5229.23M4803.71 2651.58H5229.23M4803.71 2987.27H5055.22M4803.71 3852.51H5059.75M5126.8 3852.51H5229.23M5043.82 3332.42H5229.23M4803.71 3332.42C4864.32 3332.42 4907.72 3331.9 4956.16 3331.9M5124.26 2987.27H5229.23M4803.71 4192.93H4947.45M5022.18 4192.93H5229.23M5654.58 4851C5624.62 4774.71 5557.49 4717.1 5475.48 4700.48C5474.09 4700.19 5472.7 4699.92 5471.31 4699.67C5446.87 4695.15 5426.55 4675.44 5426.55 4650.59V2257.29M5654.58 4851V4957.45C5654.58 5005.36 5648.29 5055.02 5618.51 5092.55C5577.65 5144.06 5516.49 5178.74 5447.13 5184.51H4112.87M5654.58 4851V2153.63C5654.58 2052.05 5614.23 1954.63 5542.4 1882.8L5482.89 1823.29C5462.1 1802.5 5426.55 1817.23 5426.55 1846.63V2257.29M5426.55 2257.29H3703.42M5907.02 2830.64V3488.59M2216.62 2454.08H1951.44V2725.42M3315.97 3494.92H3549.08C3578.16 3494.92 3601.72 3471.35 3601.72 3442.28V3151.2C3601.72 3122.13 3578.16 3098.56 3549.08 3098.56H3082.85C3053.78 3098.56 3030.21 3122.13 3030.21 3151.2V3442.28C3030.21 3471.35 3053.78 3494.92 3082.85 3494.92H3315.97ZM3315.97 3494.92V3803.72M3315.97 3803.72H2949.2C2920.12 3803.72 2896.56 3827.28 2896.56 3856.36V4138.22C2896.56 4167.29 2920.12 4190.86 2949.2 4190.86H3673.51C3702.59 4190.86 3726.15 4167.29 3726.15 4138.22V3856.36C3726.15 3827.28 3702.59 3803.72 3673.51 3803.72H3315.97ZM3617.72 5979.77L3726.86 6180.02L4822.04 5584.65L2877.37 4513.68C2852.85 4500.18 2825.88 4527.03 2839.28 4551.61L2959.15 4771.53M3617.72 5979.77H3740.99M3617.72 5979.77L3499.12 5762.19M3499.12 5762.19H3619.33M3499.12 5762.19L3384.62 5552.12M3384.62 5552.12H3517.13M3384.62 5552.12L3282.57 5364.9M3282.57 5364.9H3429.53M3282.57 5364.9L3184.25 5184.51M3154.32 5129.59H3312.74M3154.32 5129.59L3067.88 4971.02M3154.32 5129.59L3184.25 5184.51M3067.88 4971.02H3205.67M3067.88 4971.02L2959.15 4771.53M2959.15 4771.53H3108.34M3184.25 5184.51H2027.41C1892.65 5184.51 1783.41 5075.27 1783.41 4940.51L1783.41 2501.29C1783.41 2366.53 1892.65 2257.29 2027.41 2257.29H3355.9M2222.27 4971.76H1939.03V4701.01M3302.26 2310.94L3476.02 2484.7M3302.26 2310.94L3137.89 2660.85C3131.99 2673.42 3146 2685.99 3157.85 2678.76L3476.02 2484.7M3302.26 2310.94L3355.9 2257.29M3476.02 2484.7L3703.42 2257.29M4172.86 1787.86L3999.1 1614.1M4172.86 1787.86L3703.42 2257.29M4172.86 1787.86L4254.06 1706.66C4284.52 1676.2 4284.52 1626.81 4254.06 1596.35L4190.6 1532.9C4160.14 1502.44 4110.76 1502.44 4080.3 1532.9L4011.67 1601.53L3999.1 1614.1M3999.1 1614.1L3355.9 2257.29M3676.44 1737.27L3389.15 2024.56M4262.71 4412.08H4572.23C4601.3 4412.08 4624.87 4435.65 4624.87 4464.72V4599.09C4624.87 4628.16 4601.3 4651.73 4572.23 4651.73H4262.71C4233.64 4651.73 4210.07 4628.16 4210.07 4599.09V4464.72C4210.07 4435.65 4233.64 4412.08 4262.71 4412.08ZM3851.82 5709.61L3545.3 5143.82L4134.24 5515.27L3851.82 5709.61Z" stroke="#7481A1" stroke-width="40" stroke-linecap="round" stroke-linejoin="round"/>
</svg>
