<svg width="4763" height="4763" viewBox="0 0 4763 4763" fill="none" xmlns="http://www.w3.org/2000/svg">
<path d="M789.117 4289.11C813.657 4081.03 873.337 3657.23 915.734 3626.6C968.731 3588.33 939.286 3420.49 977.564 3320.38C1006.53 3244.62 1069.4 3122.49 1101.87 3062.15C1105.34 3055.7 1110.01 3050.02 1115.64 3045.33L1248.46 2934.65M1404.15 3110.58L1368.11 3136.79M1570.08 3251.47L1416.8 3404.75C1414.63 3406.92 1412.65 3409.24 1410.84 3411.72C1391.03 3438.97 1352.5 3490.8 1322.94 3527.1M1927.55 4290.79C1927.55 4277.24 1920.78 4193.72 1963.67 4153.09M1963.67 4153.09C1882.4 4133.23 1840.09 4010.04 1829.09 3950.94M1963.67 4153.09C1991.72 4126.51 2102.86 4027.48 2186.48 3947M2500.9 3586.51C2439.2 3655.74 2308.58 3805.02 2279.69 3848.36C2267.2 3867.09 2230.68 3904.45 2186.48 3947M2293.23 3559.42C2246.58 3610.59 2149.67 3716.98 2135.22 3733.24C2117.16 3753.55 1999.78 3816.76 1947.86 3848.36C1910.99 3870.8 1858.35 3921 1829.09 3950.94M2144.25 3534.59C2084.05 3594.04 1960.5 3716.08 1947.86 3728.72C1936.96 3739.62 1912.98 3772.56 1897.89 3793.97C1893.6 3800.07 1888.23 3805.32 1881.99 3809.41L1785.23 3872.91M1746.97 3898.02C1759.74 3913.83 1786.08 3943.02 1806.2 3955.53C1813.76 3960.23 1822.87 3957.3 1829.09 3950.94V3950.94M1746.97 3898.02L1785.23 3872.91M1746.97 3898.02L1641.58 4015.33C1632.38 4025.57 1627.12 4038.76 1626.75 4052.52L1625.07 4114.72M1785.23 3872.91C1816.87 3813.56 1881.95 3685.38 1889.17 3647.46C1891.87 3633.33 1895.36 3600.36 1898.22 3560.38M1239.07 3936.39C1223.27 3961.22 1188.06 4010.88 1173.61 4010.88C1159.17 4010.88 1113.42 4024.43 1092.35 4031.2M1239.07 3936.39L1321.47 3887.86M1239.07 3936.39L1110.41 3855.13M1322.94 3527.1C1317.87 3533.32 1313.06 3539.09 1308.66 3544.2C1282.83 3574.16 1255.93 3530.9 1240.28 3492.27C1234.36 3477.66 1236.24 3461.25 1243.83 3447.43L1304.21 3337.55C1308.17 3330.34 1310.55 3322.37 1311.2 3314.16L1319.78 3205.05C1320.69 3193.47 1325.06 3182.44 1332.31 3173.37L1347.62 3154.24C1350.85 3150.2 1354.61 3146.61 1358.79 3143.56L1368.11 3136.79M1322.94 3527.1C1374.74 3573.24 1488.73 3666.87 1530.27 3672.29M1321.47 3887.86L1394.78 3844.68C1400.78 3841.14 1406.09 3836.56 1410.48 3831.14C1447 3786.1 1512.17 3707.3 1525.75 3697.12C1536.44 3689.1 1555.21 3676.47 1569.43 3667.08C1577.77 3661.58 1584.61 3654.09 1589.29 3645.27C1599.35 3626.28 1614.67 3597.74 1627.33 3575.23C1634.44 3562.58 1640.09 3526.98 1644.37 3485.02M1321.47 3887.86C1287.98 3871.68 1212.44 3822.62 1178.13 3755.81M1625.07 4114.72C1637.11 4133.53 1662.99 4180.63 1670.22 4218.55C1677.44 4256.48 1749.97 4287.02 1785.34 4297.56M1625.07 4114.72C1602.5 4144.06 1544.26 4204.11 1491.89 4209.52M2186.48 3947C2183.69 3919.38 2166.37 3861 2119.42 3848.36M1898.22 3560.38C1904.96 3466.19 1908.19 3333.07 1889.17 3315.64C1862.09 3290.81 1828.23 3238.89 1767.28 3250.18C1755.17 3252.42 1743.17 3256.94 1731.73 3262.8M1898.22 3560.38L1981.73 3477.04M1483.01 3372.63L1423.65 3473.73C1407.75 3500.81 1416.29 3535.63 1442.93 3552.28L1481.16 3576.17C1511.12 3594.9 1550.73 3582.71 1564.98 3550.37L1624.52 3415.22M1731.73 3262.8C1705.72 3276.11 1682.52 3296.33 1667.07 3312.52C1658.47 3321.53 1654.22 3333.63 1653.72 3346.08C1652.13 3385.52 1649.06 3439.08 1644.37 3485.02M1731.73 3262.8C1768.01 3260.82 1844.77 3272.71 1861.53 3336.05C1873.31 3380.53 1859.73 3430.69 1843.89 3466.83C1833.85 3489.7 1808.03 3499.23 1783.62 3493.94C1732.33 3482.82 1666.2 3472.81 1644.37 3485.02M1825.57 3692.14C1779.43 3661.87 1676.74 3603.11 1635.1 3610.2M1786.81 3737.54C1762.45 3712.44 1699.33 3661.58 1641.75 3658.92M1368.11 3136.79C1330.75 3127.09 1243.28 3112.66 1192.2 3132.6C1194.31 3131.8 1220.23 3350.62 1133.02 3498.56M3137.5 3254.24L3059.55 3304.12C3050.22 3310.09 3039.37 3313.27 3028.29 3313.27H2949.92C2939.86 3313.27 2929.98 3315.88 2921.24 3320.86L2738.9 3424.6C2727.07 3431.33 2713.24 3433.69 2699.85 3431.25L2658.38 3423.71C2646.38 3421.53 2636 3414.06 2630.12 3403.38V3403.38M3137.5 3254.24L3097.07 3154.34C3085.29 3125.26 3101.97 3092.48 3132.41 3084.87V3084.87C3158.29 3078.4 3174.98 3053.28 3170.92 3026.92L3170.7 3025.49M3137.5 3254.24L3185.11 3285.98C3197.2 3294.04 3211.88 3297.27 3226.23 3295.02L3307.48 3282.33C3316.99 3280.84 3325.99 3277.01 3333.65 3271.18L3485.53 3155.62C3489.62 3152.51 3493.28 3148.86 3496.41 3144.79L3608.65 2998.61C3630.48 2970.19 3621.56 2928.97 3589.94 2912.11L3567.33 2900.04M3170.7 3025.49L2779.62 2734.02M3170.7 3025.49L3205.94 2902.16C3211.55 2882.54 3227.05 2867.31 3246.76 2862.05L3299.94 2847.87C3316.22 2843.53 3329.71 2832.12 3336.68 2816.77V2816.77C3350.51 2786.34 3334.94 2750.64 3303.23 2740.07L3289.74 2735.57C3266.94 2727.97 3251.18 2707.09 3250.14 2683.07L3248.98 2656.37C3248.46 2644.47 3244.29 2633.02 3237.04 2623.58L3126.43 2479.44M2779.62 2734.02L2739.03 2531.1M2779.62 2734.02L2726.46 2734.6M2739.03 2531.1L2787.45 2491.57M2739.03 2531.1L2857.59 2515.29M3126.43 2479.44L2857.59 2515.29M3126.43 2479.44L3077.98 2527.65C3073.54 2532.08 3068.4 2535.75 3062.78 2538.53L3003.64 2567.77C2986.57 2576.22 2966.43 2575.74 2949.77 2566.49L2857.59 2515.29M3022.07 2106.36V2106.36C3022.92 2092.76 3041.16 2088.94 3047.39 2101.05L3074.64 2153.99C3077.01 2158.6 3080.55 2162.52 3084.9 2165.35L3120.08 2188.21C3132.26 2196.13 3141.02 2208.32 3144.64 2222.39L3160.87 2285.44C3162.5 2291.75 3165.17 2297.73 3168.78 2303.15L3287.61 2481.39C3304.78 2507.15 3339.16 2514.88 3365.71 2498.95L3399.79 2478.5C3431.29 2459.6 3471.9 2478.72 3477.41 2515.04V2515.04C3481.34 2541 3504.13 2559.88 3530.37 2558.9V2558.9C3559.62 2557.82 3583.93 2581.24 3583.93 2610.51V2614.34C3583.93 2629.5 3590.15 2644 3601.15 2654.45L3610.96 2663.77C3635.94 2687.5 3634.85 2727.66 3608.6 2749.99L3549.22 2800.53C3518.06 2827.05 3523.41 2876.62 3559.51 2895.88L3567.33 2900.04M3022.07 2106.36L3077.64 2194.46C3082.05 2201.46 3084.92 2209.32 3086.05 2217.51L3089.81 2244.95C3092.95 2267.78 3082.27 2290.3 3062.61 2302.32L2908.61 2396.49C2880.28 2413.8 2843.23 2403.86 2827.39 2374.69L2779.02 2285.68C2763.89 2257.82 2729.19 2247.28 2701.11 2262L2680.48 2272.83M3022.07 2106.36L2887.95 1859.7M3149.24 1266.49L3124.27 1296.44C3119.3 1302.41 3116.85 1310.09 3117.45 1317.83V1317.83C3118.73 1334.54 3106.02 1349.03 3089.29 1349.92L3061.68 1351.39C3046.52 1352.2 3032.31 1359.04 3022.22 1370.39L3014.45 1379.13C3007.22 1387.27 2996.85 1391.92 2985.96 1391.92L2982.38 1391.92C2968.6 1391.92 2956.26 1400.5 2951.46 1413.42V1413.42C2947.6 1423.83 2938.75 1431.6 2927.93 1434.08L2873.17 1446.66C2867.46 1447.97 2861.58 1448.41 2855.74 1447.96L2799.57 1443.64C2786.55 1442.64 2773.59 1446.06 2762.75 1453.34L2727.7 1476.91C2720.15 1481.99 2711.51 1485.22 2702.47 1486.34L2637.79 1494.35C2612.32 1497.51 2593.36 1519.41 2593.89 1545.08L2594.37 1568.61C2594.77 1587.85 2612.6 1601.97 2631.42 1597.93L2635.38 1597.09C2647.47 1594.5 2656.01 1583.67 2655.73 1571.31V1571.31C2655.4 1557.15 2666.56 1545.38 2680.72 1544.97L2786.94 1541.87C2798.43 1541.53 2809.56 1537.79 2818.92 1531.12L2864.7 1498.48C2894.52 1477.22 2936.34 1488.58 2951.31 1522L2981.52 1589.48C2985.22 1597.73 2994.06 1602.41 3002.95 1600.81V1600.81C3016.32 1598.41 3028.04 1609.95 3025.85 1623.36L3022.22 1645.45C3020.47 1656.17 3023.71 1667.11 3031.04 1675.13L3090.69 1740.46C3103.29 1754.26 3107.53 1773.75 3101.82 1791.55V1791.55C3095.5 1811.19 3078.2 1825.26 3057.68 1827.43L3016.61 1831.78C3006.07 1832.89 2997.61 1840.98 2996.02 1851.46V1851.46C2994.4 1862.13 2985.67 1870.3 2974.91 1871.2L2933.75 1874.63C2921.39 1875.66 2909.04 1872.7 2898.49 1866.19L2887.95 1859.7M3149.24 1266.49L3111.59 1265.43M3149.24 1266.49L3235.94 1213.51L3369.93 1155.66C3388.23 1147.75 3409.31 1149.8 3425.75 1161.09L3523.75 1228.37L3666.72 1337.92M2611.5 1005.8L2619.6 1073.82C2621.37 1088.68 2616.05 1103.5 2605.23 1113.85L2586.96 1131.33C2578.73 1139.2 2578.17 1152.16 2585.69 1160.71V1160.71C2591.94 1167.8 2592.74 1178.17 2587.67 1186.14L2584.81 1190.62C2578.27 1200.9 2580.5 1214.46 2589.99 1222.1V1222.1C2601.71 1231.54 2601.91 1249.32 2590.41 1259.02L2585.98 1262.76C2580.64 1267.27 2577.12 1273.58 2576.1 1280.49L2573.77 1296.18C2570.84 1315.97 2579.72 1335.65 2596.49 1346.55V1346.55C2606.87 1353.3 2619.35 1356.05 2631.6 1354.3L2681.86 1347.12C2691.08 1345.81 2699.06 1340.05 2703.23 1331.72V1331.72C2708.43 1321.31 2719.46 1315.14 2731.05 1316.13L2763.81 1318.96C2769.78 1319.47 2774.83 1314.59 2774.52 1308.6V1308.6C2774.24 1303.34 2778.14 1298.79 2783.38 1298.26L2855.3 1290.99C2865.14 1289.99 2873.78 1284.03 2878.2 1275.19V1275.19C2885.6 1260.39 2903.91 1254.83 2918.29 1263.03L2970.04 1292.53C2987.45 1302.45 3009.56 1297.28 3020.76 1280.67V1280.67C3028.09 1269.8 3040.47 1263.44 3053.58 1263.8L3111.59 1265.43M2611.5 1005.8L2973.63 809.461L2992.32 801.766C3000.81 798.27 3010.03 804.882 3009.43 814.045V814.045C3008.96 821.471 3015.07 827.647 3022.5 827.24L3077.55 824.223C3084.31 823.853 3090.61 820.669 3094.91 815.444V815.444C3100.21 809.008 3108.45 805.754 3116.72 806.833L3153.6 811.644M2611.5 1005.8L2607.31 1002.34C2593.59 991.016 2591.55 970.75 2602.74 956.921V956.921C2608.27 950.092 2610.79 941.312 2609.73 932.591L2607.29 912.614C2604.61 890.594 2614.72 868.972 2633.34 856.912L2655.93 842.279C2669.4 833.554 2677.36 818.45 2676.95 802.406V802.406C2676.36 779.291 2692.98 759.312 2715.82 755.694L2718.78 755.224M3153.6 811.644L3152.25 786.65C3151.78 777.946 3158.02 770.316 3166.64 769.048L3169.36 768.649C3179 767.231 3187.35 775.373 3186.18 785.049V785.049C3185.1 793.929 3192.1 801.723 3201.04 801.605L3243.83 801.042C3258.6 800.848 3272.61 794.397 3282.36 783.291L3293.03 771.141C3301.63 761.344 3313.28 754.731 3326.1 752.369L3389.2 740.745M3153.6 811.644L3111.59 1265.43M3389.2 740.745L3383.35 721.384C3378.69 705.962 3362.74 696.914 3347.11 700.822L3340.96 702.361C3325.02 706.345 3309.58 694.291 3309.58 677.862V677.862C3309.58 662.626 3296.19 650.859 3281.08 652.818L3267.83 654.537C3256.96 655.945 3246.03 652.465 3237.97 645.032L3201.57 611.427C3189.05 599.872 3169.96 599.229 3156.69 609.916L3151.93 613.752C3144.91 619.405 3135.34 620.702 3127.07 617.119L3095.33 603.368C3087.7 600.062 3079.83 607.508 3082.7 615.311V615.311M3389.2 740.745L3435.46 771.541C3444.61 777.637 3451.85 786.211 3456.32 796.263L3477.23 843.33C3483.26 856.88 3494.24 867.609 3507.93 873.312L3556.62 893.6C3568.98 898.752 3579.18 908.025 3585.49 919.845L3613.13 971.672C3617.83 980.491 3624.73 987.944 3633.17 993.31L3722.43 1050.11M3082.7 615.311C3043.44 589.86 2955.3 537.431 2916.91 531.323C2878.52 525.215 2826.01 520.78 2804.56 519.326M3082.7 615.311L3109.73 665.711C3116.97 679.205 3111.36 696.007 3097.47 702.454V702.454C3094.21 703.971 3090.66 704.81 3087.06 704.919L3063.39 705.636C3058.83 705.774 3054.28 705.31 3049.85 704.255L3043.57 702.76C3024.25 698.16 3004.27 707.267 2995.07 724.871L2989.43 735.652C2987.02 740.263 2982.68 743.56 2977.6 744.65L2975.44 745.114C2965.21 747.305 2955.71 739.14 2956.35 728.701V728.701C2956.86 720.207 2950.56 712.83 2942.09 712.011L2938.88 711.7C2929.89 710.83 2922.73 703.786 2921.7 694.805L2918.54 666.969C2918.18 663.805 2918.1 660.616 2918.31 657.439L2919.58 637.705C2921.23 612.12 2905.89 588.486 2881.85 579.582L2873.99 576.67C2867.04 574.096 2860.64 570.214 2855.15 565.233L2804.56 519.326M2804.56 519.326L2733.98 484.386C2711.43 473.218 2684.08 480.74 2670.4 501.875V501.875M2670.4 501.875L2658.14 593.836C2657.59 597.962 2656.6 602.016 2655.18 605.928L2631.99 669.943C2630.69 673.508 2629.76 677.192 2629.18 680.941L2620.71 736.405C2618.97 747.77 2613.9 758.362 2606.13 766.837L2557.29 820.116C2549.95 828.125 2545 838.035 2543.02 848.717L2536.86 881.914C2533.97 897.453 2520.41 908.724 2504.61 908.724V908.724M2670.4 501.875L2577.71 480.226C2566.83 477.686 2555.45 478.341 2544.93 482.112L2485.88 503.294C2482.08 504.659 2478.15 505.623 2474.14 506.16C2440.4 510.679 2381.93 517.883 2377.3 515.897C2372.37 513.787 2348.33 516.098 2336.92 517.516M2504.61 908.724L2497.71 785.509C2497.22 776.866 2494.81 768.441 2490.65 760.852L2429.35 649.126L2336.92 517.516M2504.61 908.724L2480.61 901.089M2307.18 512.782L2315.8 510.198C2323.68 507.833 2332.19 510.782 2336.92 517.516V517.516M2307.18 512.782L2373.72 614.222L2428.11 703.863C2431.1 708.792 2433.34 714.14 2434.75 719.73L2480.61 901.089M2307.18 512.782L2291.21 550.992C2285.71 564.145 2273.03 572.865 2258.78 573.284V573.284C2245.41 573.677 2233.35 581.382 2227.37 593.34L2225.72 596.634C2213.32 621.432 2181.05 627.684 2159.72 609.971C2158.05 608.589 2156.82 607.586 2156.15 607.088C2152.03 603.996 1996.58 669.894 1912.69 706.099C1907.85 708.185 1903.34 710.917 1899.25 714.228L1662.65 905.58M2480.61 901.089L2361.78 898.947M2791.37 673.726L2747.96 671.942C2736.61 671.475 2725.99 677.543 2720.64 687.558L2717.38 693.654C2712.95 701.921 2714.66 712.13 2721.53 718.51V718.51C2728.61 725.084 2730.18 735.688 2725.31 744.032L2718.78 755.224M2791.37 673.726L2840.62 726.885C2843.24 729.711 2844.14 733.722 2842.99 737.4V737.4M2791.37 673.726L2794.63 672.684C2818.1 665.172 2843.77 673.303 2858.52 693.049C2880.85 722.949 2905.01 755.725 2905.98 758.62C2906.18 759.216 2906.85 759.735 2907.89 760.185C2927.57 768.689 2949.41 774.364 2958.91 793.578C2961.25 798.309 2963.05 802.271 2963.7 804.463C2965.24 809.567 2952.8 806.999 2941.6 803.607C2935.49 801.757 2928.79 803.634 2924.87 808.669V808.669C2919.1 816.089 2907.94 816.245 2901.96 808.989L2842.99 737.4M2842.99 737.4L2842.82 737.944C2838.66 751.278 2829.82 762.661 2817.93 769.999L2782.94 791.596C2773.2 797.607 2761.33 799.06 2750.43 795.572L2732.01 789.679C2717.6 785.067 2711.16 768.296 2718.78 755.224V755.224M2361.78 898.947L2300.62 847.383C2296.33 843.759 2292.72 839.382 2289.99 834.468L2286.98 829.049C2273.8 805.326 2241.78 800.422 2222.1 819.113V819.113C2213.11 827.662 2200.75 831.735 2188.43 830.216L2042.9 812.274C2024.83 810.046 2006.76 816.435 1994.11 829.527L1905.82 920.861C1901.16 925.672 1895.72 929.643 1889.71 932.596L1841.07 956.515C1826.3 963.781 1809.14 964.426 1793.86 958.289L1662.65 905.58M2361.78 898.947L2359.82 922.729C2357.43 951.733 2333.91 974.474 2304.84 975.892L2294.92 976.376M1662.65 905.58V905.58C1652.87 921.87 1633.67 929.95 1615.18 925.55L1613.28 925.096C1603.99 922.885 1594.25 923.601 1585.38 927.146L1555.77 938.992C1540.63 945.05 1529.48 958.234 1526.03 974.175L1523.58 985.454C1519.78 1003.02 1503.56 1015.07 1485.64 1013.63L1484.61 1013.55C1470.25 1012.4 1456.7 1020.32 1450.64 1033.38L1447.04 1041.16C1442.53 1050.9 1445.22 1062.47 1453.57 1069.22V1069.22M2347.77 1167.91L2352.59 1168.08C2385.53 1169.21 2410.91 1197.54 2408.43 1230.41L2406.16 1260.42M2347.77 1167.91L2345.37 1199.7M2347.77 1167.91L2294.92 976.376M2307.29 1202.76L2315.06 1268.42C2317.32 1287.49 2300.14 1303.11 2281.37 1299.06V1299.06C2269.92 1296.59 2261.22 1287.26 2259.57 1275.67L2251.53 1219.36C2250.67 1213.38 2254.98 1207.89 2260.99 1207.3V1207.3M2307.29 1202.76L2260.99 1207.3M2307.29 1202.76L2345.37 1199.7M1416.4 1530.85L1548.47 1523.31M1416.4 1530.85V1530.85C1414.5 1540.35 1422.16 1549.05 1431.82 1548.37L1542.27 1540.59C1545.14 1540.39 1548.02 1540.4 1550.89 1540.63L1666.39 1549.72L1828.06 1541.46C1830.96 1541.31 1833.85 1540.94 1836.7 1540.36L1919.21 1523.51M1416.4 1530.85L1417.88 1487.15C1418.14 1479.59 1414.96 1472.32 1409.25 1467.37V1467.37C1398.67 1458.19 1397.66 1442.12 1407.02 1431.7L1414.34 1423.55C1424.59 1412.13 1426.43 1395.44 1418.9 1382.06L1405.79 1358.76C1400.67 1349.65 1400.71 1338.51 1405.89 1329.44L1412.52 1317.84C1416.78 1310.38 1414.36 1300.87 1407.03 1296.36V1296.36C1400.45 1292.31 1397.72 1284.11 1400.57 1276.92L1410.69 1251.34C1412.6 1246.53 1415.26 1242.05 1418.57 1238.07L1432.64 1221.19C1440.88 1211.3 1441.51 1197.13 1434.19 1186.54V1186.54C1431.19 1182.21 1429.44 1177.14 1429.14 1171.89L1428.16 1154.92C1427.44 1142.34 1415.57 1133.44 1403.29 1136.26V1136.26M1548.47 1523.31L1672.99 1521.42C1682.41 1521.99 1693.82 1522.64 1706.11 1523.3M1548.47 1523.31L1523.96 1092.19M2235.24 1403.5L2175.8 1442.18L2129.91 1471.78C2121.65 1477.12 2112.17 1480.26 2102.35 1480.92L1981.5 1489.03C1978.34 1489.24 1975.21 1489.71 1972.13 1490.44C1923.87 1501.79 1833.64 1523.22 1824.87 1526.14C1817.64 1528.55 1754.93 1525.9 1706.11 1523.3M2235.24 1403.5L2273 1394.25C2278.61 1392.88 2284.39 1392.35 2290.15 1392.68L2405.84 1399.39C2409.7 1399.62 2413.57 1399.45 2417.4 1398.91L2446.79 1394.71C2449.77 1394.28 2452.78 1394.1 2455.78 1394.16V1394.16M2235.24 1403.5C2248.53 1383.32 2276.81 1342.46 2283.5 1340.45C2287.87 1339.13 2308.94 1332.74 2329.16 1326.61C2347.21 1321.12 2366.81 1324.76 2381.69 1336.37L2455.78 1394.16M1145.65 1748.77L1131.62 1735.41C1116.97 1721.45 1114.88 1698.8 1126.75 1682.4V1682.4C1133.93 1672.47 1136.22 1659.82 1132.99 1648L1127.89 1629.41C1122.52 1609.81 1127.8 1588.83 1141.81 1574.11L1156.03 1559.16L1170.01 1543.11C1177.5 1534.5 1182.29 1523.88 1183.78 1512.56L1187.68 1482.81C1188.58 1475.92 1190.85 1469.27 1194.36 1463.27L1202.7 1448.97C1206.53 1442.39 1206.73 1434.31 1203.23 1427.55V1427.55C1198.73 1418.87 1200.43 1408.26 1207.43 1401.43L1225.72 1383.57C1232.04 1377.4 1233.87 1367.96 1230.33 1359.87V1359.87C1226.12 1350.24 1229.58 1338.99 1238.47 1333.39L1252.76 1324.39C1265.77 1316.21 1271.75 1301.23 1274.28 1286.07C1275.05 1281.46 1276.41 1277.94 1278.67 1277.09C1282.79 1275.55 1295.64 1265.71 1307.09 1256.52C1313.57 1251.31 1312.08 1241.14 1304.44 1237.87V1237.87C1298.99 1235.53 1296.32 1229.33 1298.37 1223.76L1313.34 1183.21C1319.96 1165.27 1335.18 1151.88 1353.82 1147.6L1403.29 1136.26M1145.65 1748.77L1120.87 1767.83C1105.68 1779.52 1097.25 1797.95 1098.33 1817.08L1101.72 1877.03C1102.06 1882.96 1099.44 1888.66 1094.72 1892.26V1892.26C1089.49 1896.27 1086.88 1902.83 1087.93 1909.33L1156.03 2331.77M1145.65 1748.77L1192.29 1773.76C1210.95 1783.76 1221.99 1803.97 1220.48 1825.09V1825.09C1219.16 1843.56 1227.54 1861.53 1242.6 1872.29V1872.29C1254.66 1880.91 1269.77 1884.1 1284.28 1881.09L1307.72 1876.24M1156.03 2331.77L1182.41 2342.42C1196.74 2348.21 1207.64 2360.21 1212.03 2375.02L1214.19 2382.29C1217.9 2394.84 1227.93 2404.53 1240.61 2407.8L1251.38 2410.59C1264.56 2414 1272.76 2427.13 1270.04 2440.47V2440.47C1267.43 2453.24 1274.84 2465.92 1287.25 2469.92L1297.71 2473.3C1313.35 2478.34 1323.95 2492.9 1323.95 2509.33V2525.83C1323.95 2539.96 1331.63 2552.98 1344.01 2559.81V2559.81C1348.82 2562.46 1353.01 2566.11 1356.31 2570.5L1377.94 2599.34C1384.51 2608.1 1393.91 2614.32 1404.54 2616.93V2616.93C1426.3 2622.27 1441.33 2642.12 1440.59 2664.51L1439.98 2682.7L1439.79 2685.95C1438.62 2705.47 1459.01 2718.94 1476.5 2710.19V2710.19C1477.94 2709.47 1479.3 2708.62 1480.58 2707.64L1560.6 2646.4C1567.52 2641.11 1573.15 2634.33 1577.09 2626.56L1599.86 2581.63C1603.91 2573.65 1609.75 2566.71 1616.92 2561.36L1665.45 2525.16M1156.03 2331.77L1138.83 2397.52C1135.71 2409.47 1136.48 2422.11 1141.04 2433.6L1167.18 2499.42C1170.92 2508.86 1178.2 2516.48 1187.47 2520.65V2520.65M1665.45 2525.16L1673.49 2492.97C1676.24 2481.97 1682.16 2472.01 1690.52 2464.33L1743.57 2415.58C1746.2 2413.17 1748.59 2410.52 1750.73 2407.67L1789.97 2355.35M1665.45 2525.16C1495.77 2173.95 1356.26 1946.21 1307.72 1876.24M1789.97 2355.35L1807.11 2406.79C1809.5 2413.94 1813.25 2420.55 1818.16 2426.27L1839.75 2451.37C1847.11 2459.92 1850.58 2471.15 1849.33 2482.36V2482.36C1848.17 2492.87 1842.95 2502.5 1834.8 2509.23L1772.05 2561L1729.2 2594.57C1720.94 2601.04 1717.6 2611.98 1720.85 2621.96L1723.41 2629.87C1725.86 2637.4 1722.29 2645.58 1715.1 2648.9V2648.9C1702.16 2654.87 1703.26 2674.01 1715.92 2680.54C1723.35 2684.37 1728.65 2688.18 1728.65 2691.19C1728.65 2698.17 1724.35 2716.45 1721.71 2726.62C1721.31 2728.15 1720.66 2729.59 1719.78 2730.91V2730.91C1713.64 2740.12 1719.72 2752.54 1730.77 2753.33L1732.1 2753.43C1739.81 2753.98 1745.88 2760.22 1746.22 2767.95L1747.52 2797.79L1741.86 2855.33M1789.97 2355.35L1848.46 2303.47M1741.86 2855.33L1772.55 2853.25C1788.25 2852.19 1802.49 2843.71 1810.92 2830.43L1818.89 2817.88C1824.79 2808.58 1835.73 2803.75 1846.58 2805.67V2805.67C1855.43 2807.23 1864.48 2804.32 1870.76 2797.9L1890.83 2777.37C1897.48 2770.57 1907.98 2769.31 1916.06 2774.36V2774.36C1925.22 2780.08 1937.26 2777.61 1943.43 2768.74L1957.31 2748.79C1969.3 2731.56 1991.46 2724.69 2011.09 2732.1L2020.15 2735.53M1741.86 2855.33L1737.53 2885.23C1735.61 2898.44 1744.09 2910.92 1757.08 2914.02V2914.02M2020.15 2735.53V2735.53C2036.97 2720.94 2042.33 2697.1 2033.37 2676.72L2028.96 2666.71C2028.12 2664.79 2027.43 2662.81 2026.91 2660.78L2023.83 2648.75C2020.67 2636.43 2008.56 2628.55 1996 2630.5V2630.5C1984.36 2632.31 1972.99 2625.58 1969.1 2614.46L1964.37 2600.95C1963.34 2598.01 1964.5 2594.74 1967.16 2593.11V2593.11C1972.86 2589.6 1970.37 2580.82 1963.68 2580.82H1939.51C1937.94 2580.82 1936.38 2580.55 1934.91 2579.99C1924.06 2575.84 1906 2567.58 1906 2561.95C1906 2557.17 1909.94 2542.61 1913.15 2531.76C1914.48 2527.26 1918.63 2524.21 1923.33 2524.21V2524.21C1932.49 2524.21 1937.44 2513.49 1931.51 2506.52L1921.59 2494.86C1914.76 2486.84 1916.35 2474.67 1925.01 2468.67L1941.41 2457.33C1944.18 2455.4 1946.48 2452.88 1948.14 2449.93V2449.93C1955.39 2437.04 1948.29 2420.79 1933.91 2417.36L1933.22 2417.19C1924.66 2415.14 1918.04 2408.36 1916.21 2399.75L1912.97 2384.51C1910.91 2374.84 1905.41 2366.23 1897.5 2360.29L1888.96 2353.89C1883.12 2349.51 1879.91 2342.46 1880.45 2335.18V2335.18C1881.08 2326.79 1876.72 2318.81 1869.32 2314.79L1848.46 2303.47M2020.15 2735.53L2035.1 2760.65M1848.46 2303.47L1876.45 2251.43M2211.75 2357.31V2357.31C2213.62 2371.01 2227.14 2379.91 2240.46 2376.23L2248.36 2374.05C2260.34 2370.73 2272.6 2378.33 2274.98 2390.53V2390.53C2277.13 2401.61 2270.28 2412.45 2259.35 2415.26L2237.63 2420.84M2211.75 2357.31C2189.89 2380.81 2145.77 2378.6 2106.81 2369.52C2075.91 2362.32 2042.04 2375 2029.02 2403.93L2021.78 2420.03M2211.75 2357.31L2207.66 2345.6C2203.59 2333.94 2203.34 2321.28 2206.96 2309.47L2221.35 2262.52M2211.75 2357.31L2237.71 2319.74M2237.63 2420.84L2192.51 2431.33C2188.88 2432.18 2185.33 2433.37 2181.92 2434.9L2134.72 2456.06M2237.63 2420.84L2278.42 2433.53M2237.71 2319.74L2244.03 2310.6C2252.04 2299 2264 2290.72 2277.68 2287.3L2303.22 2280.91C2318.45 2277.11 2334.57 2279.63 2347.91 2287.92L2365.61 2298.93C2368.91 2300.98 2372.44 2302.64 2376.13 2303.87L2401.74 2312.4C2415.39 2316.95 2430.03 2308.92 2433.52 2294.96V2294.96M2237.71 2319.74L2244.08 2272.27C2244.44 2269.56 2243.9 2266.81 2242.54 2264.45L2240.21 2260.39C2235.7 2252.55 2224 2253.87 2221.35 2262.52V2262.52M2021.78 2420.03V2420.03C2017.06 2430.52 2017.95 2442.67 2024.13 2452.37L2041.57 2479.68C2046.74 2487.78 2057.07 2490.87 2065.84 2486.94V2486.94M2021.78 2420.03C2020 2417.63 2004.58 2399.76 1989.78 2382.71C1980.26 2371.74 1984.41 2354.65 1997.91 2349.29V2349.29C2007.67 2345.42 2013.08 2334.95 2010.59 2324.75L2008.32 2315.4C2004.42 2299.4 2013.25 2283.05 2028.77 2277.54L2099.3 2252.5L2144.21 2238.75C2159.86 2233.96 2176.79 2236 2190.85 2244.37L2221.35 2262.52M1876.45 2251.43L1892.87 2249.21C1907.2 2247.27 1916.5 2233.12 1912.61 2219.2V2219.2C1908.17 2203.36 1920.76 2187.91 1937.16 2189.04L1947.75 2189.77C1961.9 2190.75 1974.93 2182.08 1979.51 2168.65L1980.13 2166.85C1985.47 2151.17 2001.39 2141.69 2017.72 2144.45L2046.93 2149.39C2063.45 2152.18 2080.36 2147.69 2093.33 2137.09L2098.81 2132.6M1876.45 2251.43C1859.1 2188.65 1774.83 2089.69 1723.6 2036.04C1714.25 2026.24 1708.31 2013.65 1707.08 2000.17L1682.49 1730.43M2181.46 1461.99L2208.71 1441.96C2211.92 1439.6 2215.37 1437.57 2218.99 1435.92L2252.99 1420.41C2262.37 1416.13 2272.71 1414.43 2282.97 1415.48L2382.78 1425.7C2385.67 1425.99 2388.57 1426.07 2391.47 1425.93L2408.99 1425.09M2181.46 1461.99L2157.26 1479.79C2152.05 1483.62 2146.24 1486.55 2140.06 1488.46L2088.97 1504.3C2084.61 1505.65 2080.11 1506.48 2075.56 1506.77L1966.38 1513.87L1919.21 1523.51M2181.46 1461.99L2199.07 1469.46C2215.93 1476.61 2228.43 1491.31 2232.77 1509.11L2233.4 1511.69C2236.16 1523.01 2235.45 1534.9 2231.36 1545.8L2219.9 1576.35C2215.38 1588.4 2215 1601.62 2218.81 1613.91L2228.49 1645.08C2231.94 1656.21 2228.94 1668.34 2220.7 1676.59V1676.59C2208.56 1688.73 2208.42 1708.36 2220.39 1720.67L2223.35 1723.71C2233.42 1734.07 2236.25 1749.48 2230.52 1762.75L2220.54 1785.86C2218.61 1790.33 2217.25 1795.03 2216.5 1799.85L2206.67 1862.38C2205.37 1870.66 2205.88 1879.13 2208.16 1887.19L2231.8 1970.68C2238.18 1993.21 2230.39 2017.37 2212.04 2031.93L2146.86 2083.62C2142.3 2087.23 2138.32 2091.51 2135.03 2096.31L2129.39 2104.56C2126.27 2109.11 2122.52 2113.2 2118.25 2116.69L2098.81 2132.6M2408.99 1425.09L2485.23 1421.43L2504.59 1417.83M2408.99 1425.09L2405.96 1586.01C2405.78 1595.64 2413.12 1603.74 2422.72 1604.52V1604.52C2430.91 1605.19 2438.54 1600.29 2441.33 1592.56L2504.59 1417.83M2504.59 1417.83L2532.69 1412.61C2542.3 1410.83 2547.88 1400.7 2544.25 1391.62V1391.62C2540.9 1383.26 2531.16 1379.51 2523.07 1383.45L2506.46 1391.56C2501.8 1393.83 2496.68 1394.96 2491.5 1394.86L2455.78 1394.16M2234.21 979.338L2231.41 979.474C2198.56 981.076 2173.62 1009.64 2176.46 1042.41L2182.06 1107.13C2183.05 1118.51 2189.29 1128.77 2198.95 1134.87V1134.87C2214.58 1144.74 2220.37 1164.74 2212.43 1181.44L2204.76 1197.57C2197.76 1212.31 2197.44 1229.34 2203.9 1244.32L2219.15 1279.73C2223.13 1288.97 2224.64 1299.09 2223.53 1309.09L2216.23 1374.78L2214.97 1388.6C2213.06 1409.67 2197.34 1426.89 2176.53 1430.71L2173.94 1431.19C2162.9 1433.22 2153.16 1439.68 2147.02 1449.08V1449.08C2140.95 1458.36 2131.39 1464.79 2120.51 1466.9L2098.29 1471.22C2073.46 1476.05 2048.37 1464.23 2036.28 1442.01L2020.57 1413.15C2016.88 1406.38 2011.88 1400.4 2005.86 1395.58L1957.85 1357.18C1951.06 1351.74 1945.57 1344.85 1941.8 1337L1903.87 1258.04C1896.61 1242.92 1883.16 1231.69 1866.98 1227.24L1794.55 1207.3C1778.84 1202.98 1765.68 1192.25 1758.27 1177.74L1751.82 1165.09C1745.36 1152.42 1734.47 1142.57 1721.22 1137.41L1689.8 1125.16M2234.21 979.338L2260.99 1207.3M2234.21 979.338L2294.92 976.376M2345.37 1199.7L2341.33 1253.23C2339.94 1271.7 2354.2 1287.62 2372.71 1288.26L2375 1288.33C2391.19 1288.89 2404.94 1276.57 2406.16 1260.42V1260.42M3666.72 1337.92L3659.09 1296.45C3655.72 1278.18 3661.31 1259.4 3674.13 1245.94L3678.8 1241.03C3686.67 1232.77 3691.92 1222.38 3693.91 1211.15L3722.43 1050.11M3666.72 1337.92L3718.72 1412.19M3722.43 1050.11L3781.89 1133.37C3791.33 1146.58 3794.8 1163.14 3791.45 1179.03L3789.27 1189.38M3718.72 1412.19L3749.44 1366.1C3753.67 1359.76 3756.61 1352.64 3758.09 1345.15L3781.85 1224.66L3789.27 1189.38M3718.72 1412.19L3950.82 1878.26M3950.82 1878.26L3968.29 1773.46C3970.21 1761.9 3968.59 1750.02 3963.63 1739.4L3928.54 1664.2C3922.56 1651.38 3921.47 1636.81 3925.48 1623.24L3937.67 1581.97C3941.37 1569.43 3940.73 1555.99 3935.84 1543.86L3895.16 1442.91C3893.89 1439.77 3892.91 1436.53 3892.21 1433.22L3867.64 1316.94C3866.16 1309.94 3863.4 1303.28 3859.51 1297.29L3789.27 1189.38M3950.82 1878.26L3779.15 2054.32C3759.49 2074.48 3757.15 2105.85 3773.61 2128.71L3940.97 2361.1M3950.82 1878.26C3998.09 1950.32 3963.95 2230.18 3940.97 2361.1M3940.97 2361.1L3764.42 2823.15C3757.75 2840.61 3743.08 2853.78 3725 2858.54L3567.33 2900.04M2887.95 1859.7L2872.91 1850.42C2865.19 1845.66 2856.47 1842.78 2847.44 1842L2822.96 1839.89C2804.33 1838.28 2787.89 1827.04 2779.64 1810.26V1810.26C2767.75 1786.06 2739.69 1774.53 2714.23 1783.38L2692.47 1790.94C2666.59 1799.93 2651.57 1826.9 2657.56 1853.63V1853.63C2661.95 1873.24 2655.06 1893.66 2639.7 1906.62L2613.84 1928.42C2607.88 1933.45 2600.57 1936.63 2592.83 1937.58L2583.91 1938.67C2564.43 1941.06 2551.54 1960.11 2556.58 1979.08V1979.08C2560.04 1992.16 2555.01 2006.01 2543.96 2013.81L2529.66 2023.91C2514.14 2034.86 2492.85 2032.31 2480.37 2017.99V2017.99C2466.19 2001.75 2441.2 2000.98 2426.06 2016.33L2391.18 2051.7C2377.57 2065.49 2371.75 2085.17 2375.67 2104.15L2380.12 2125.7C2382.85 2138.97 2393.74 2149.03 2407.18 2150.71V2150.71C2425.5 2153 2437.98 2170.42 2434.25 2188.5L2429 2213.92C2426.95 2223.83 2427.65 2234.12 2431.02 2243.67L2432.93 2249.07M2434.96 2569.72L2524.65 2525.25M2434.96 2569.72L2457.16 2617M2434.96 2569.72L2390.12 2565.28M2641.74 2737.33L2554.31 2536.09C2549.35 2524.66 2535.82 2519.71 2524.65 2525.25V2525.25M2641.74 2737.33L2583.77 2759.74C2555.37 2770.72 2523.3 2757.86 2510.36 2730.3L2457.16 2617M2641.74 2737.33L2692.75 2748.27M2692.75 2748.27L2696.69 2742.71C2703.4 2733.24 2715.87 2729.84 2726.46 2734.6V2734.6M2692.75 2748.27V2748.27C2705.39 2756.39 2722.28 2749.9 2726.24 2735.41L2726.46 2734.6M2259.47 2854.68L2333.26 2793.91C2334.95 2792.52 2336.53 2790.99 2337.97 2789.35L2343.75 2782.78C2357 2767.73 2380.46 2767.73 2393.7 2782.78V2782.78C2398.84 2788.62 2405.86 2792.47 2413.55 2793.67L2415.24 2793.94C2434.66 2796.97 2448.57 2814.33 2447.29 2833.96L2446.14 2851.6C2445.45 2862.12 2449.33 2872.42 2456.78 2879.87L2463.94 2887.03C2479.55 2902.64 2473.66 2929.18 2452.92 2936.72V2936.72C2440.28 2941.31 2432.21 2953.71 2433.12 2967.12L2435.59 3003.44C2436.76 3020.72 2449.45 3035.03 2466.47 3038.24V3038.24C2482.33 3041.25 2494.58 3053.94 2497.01 3069.9L2500.49 3092.82C2502.4 3105.33 2508.34 3116.87 2517.42 3125.69L2542.24 3149.81C2550.76 3158.09 2554.8 3169.95 2553.08 3181.7L2549.24 3208.03C2547.35 3220.97 2559 3231.79 2571.77 3228.95V3228.95C2580.01 3227.12 2588.46 3231.05 2592.37 3238.54L2612.26 3276.67C2618.35 3288.34 2620.29 3301.73 2617.76 3314.64L2612.24 3342.88C2609.62 3356.23 2611.79 3370.07 2618.34 3381.98L2630.12 3403.38M2259.47 2854.68L2173.61 2836.07C2171.02 2835.51 2168.58 2834.39 2166.47 2832.78V2832.78C2154.7 2823.81 2137.73 2831.95 2137.36 2846.74L2136.88 2865.85C2136.79 2869.34 2136.05 2872.79 2134.68 2876.02L2094.58 2970.81C2089.91 2981.84 2089.25 2994.15 2092.72 3005.62V3005.62C2100.62 3031.74 2086.66 3059.47 2060.98 3068.69L1990.07 3094.14L1959.32 3109.93C1943.75 3117.93 1925.39 3118.47 1909.38 3111.39L1902.8 3108.48C1882.88 3099.68 1869.57 3080.46 1868.34 3058.71L1867.18 3038.28C1866.33 3023.23 1859.65 3009.11 1848.57 2998.9L1818.59 2971.29C1812.3 2965.49 1807.65 2958.12 1805.14 2949.94V2949.94C1800.1 2933.57 1786.78 2921.09 1770.12 2917.12L1757.08 2914.02M2259.47 2854.68L2205.23 2741.06M2705.78 2316.55V2316.55C2696.18 2320.66 2685.01 2317.75 2678.64 2309.47L2673.82 2303.2C2666.13 2293.2 2669.31 2278.69 2680.48 2272.83V2272.83M2705.78 2316.55V2316.55C2726.78 2307.55 2751.19 2315.71 2762.55 2335.53L2809.84 2418.06C2816.41 2429.52 2818.29 2443.08 2815.08 2455.9V2455.9C2812.41 2466.6 2806.35 2476.14 2797.81 2483.12L2787.45 2491.57M2705.78 2316.55L2787.45 2491.57M2680.48 2272.83L2644.44 2227.07C2636.99 2217.62 2625.44 2212.33 2613.42 2212.88L2611.31 2212.98C2601.04 2213.44 2591.15 2209.11 2584.53 2201.25V2201.25C2574.67 2189.55 2558.07 2186.14 2544.4 2193.01L2432.93 2249.07M2432.93 2249.07L2434.19 2252.63C2437.97 2263.35 2438.52 2274.96 2435.76 2286L2433.52 2294.96M2433.52 2294.96L2524.65 2525.25M2278.42 2433.53L2331.66 2408.78C2359.03 2396.05 2391.58 2406.45 2406.52 2432.68L2415.22 2447.98C2425.36 2465.78 2420.32 2488.36 2403.59 2500.17V2500.17C2391.75 2508.53 2385.39 2522.67 2386.99 2537.08L2390.12 2565.28M2278.42 2433.53L2347.87 2578.17M2390.12 2565.28L2347.87 2578.17M2347.87 2578.17V2578.17C2352.68 2586.98 2349.71 2598.02 2341.12 2603.22L2256.38 2654.58C2246.66 2660.47 2233.99 2656.78 2228.95 2646.6V2646.6M2134.72 2456.06L2065.84 2486.94M2134.72 2456.06L2228.95 2646.6M2065.84 2486.94L2070.21 2504.4C2071.93 2511.25 2067.6 2518.17 2060.68 2519.61V2519.61C2049.06 2522.03 2047.22 2537.85 2057.89 2543.05V2543.05C2061.85 2544.97 2064.53 2548.85 2064.9 2553.24L2067.22 2580.53C2067.8 2587.29 2062.12 2592.93 2055.37 2592.32V2592.32C2046.69 2591.53 2040.64 2600.72 2044.79 2608.37L2107.6 2724.4M2107.6 2724.4L2228.95 2646.6M2107.6 2724.4L2035.1 2760.65M2035.1 2760.65L2040.64 2768.31C2057.21 2791.22 2087.89 2798.84 2113.25 2786.35L2205.23 2741.06M2035.1 2760.65L2013.39 2776.74C2009.17 2779.87 2003.83 2781.11 1998.66 2780.17L1995.03 2779.51C1985.47 2777.77 1976.62 2784.95 1976.34 2794.66V2794.66C1976.12 2802.34 1970.43 2808.75 1962.84 2809.89L1933.81 2814.25C1925.78 2815.45 1918.15 2818.56 1911.57 2823.3L1893.43 2836.38C1886.35 2841.48 1878.04 2844.58 1869.36 2845.34V2845.34C1858.02 2846.34 1847.4 2851.3 1839.36 2859.34L1838.97 2859.74C1830.31 2868.39 1818.7 2873.57 1806.48 2874.29V2874.29C1789.59 2875.28 1774.19 2884.67 1765.67 2899.28L1757.08 2914.02M2457.16 2617L2205.23 2741.06M2630.12 3403.38L2619.94 3413.83C2604.34 3429.86 2580.91 3435.48 2559.73 3428.29L2539.66 3421.47C2525.74 3416.75 2510.48 3417.98 2497.5 3424.87V3424.87C2481.38 3433.43 2462.01 3433.16 2446.14 3424.15L2408.06 3402.51M2408.06 3402.51L2408.39 3396.46C2409.83 3369.88 2390.22 3346.83 2363.76 3343.98L2337.66 3341.17C2326.08 3339.92 2317.45 3329.89 2317.96 3318.25V3318.25C2318.3 3310.48 2314.53 3303.11 2308.03 3298.84L2270.86 3274.38C2266.06 3271.22 2261.75 3267.36 2258.08 3262.93L2231.32 3230.64C2225.05 3223.07 2220.99 3213.9 2219.6 3204.17L2218.48 3196.36C2215.37 3174.57 2196.71 3158.39 2174.71 3158.39V3158.39C2164.92 3158.39 2155.41 3161.64 2147.67 3167.62L2135.5 3177.02C2130.56 3180.84 2127.2 3186.34 2126.07 3192.48V3192.48C2123.21 3207.9 2107.18 3217.07 2092.44 3211.7L2068.49 3202.99C2052.02 3197 2033.56 3201.75 2022.02 3214.94V3214.94C2014.83 3223.15 2004.77 3228.28 1993.91 3229.26L1960.92 3232.26C1952.63 3233.02 1945.57 3238.61 1942.94 3246.5V3246.5C1939.63 3256.44 1929.49 3262.4 1919.2 3260.47L1907.04 3258.19M2408.06 3402.51L2237.56 3392.31C2231.38 3391.94 2225.3 3390.59 2219.55 3388.29L2155.94 3362.94C2152.86 3361.71 2149.68 3360.75 2146.44 3360.07L2027.5 3334.95C2020.11 3333.39 2013.09 3330.4 2006.84 3326.15L1907.04 3258.19M1919.21 1523.51L1977.07 1528.65C1982.41 1529.13 1987.66 1530.34 1992.67 1532.26L2049.73 1554.09C2070.79 1562.15 2084.57 1582.51 2084.23 1605.05V1605.05C2083.84 1631.05 2064.9 1653.03 2039.24 1657.24L2001.72 1663.41C1996.42 1664.28 1991.03 1664.42 1985.69 1663.8L1956.2 1660.42M1403.29 1136.26L1402.93 1130.66C1401.03 1101.48 1421.16 1075.44 1449.88 1069.93L1453.57 1069.22M1453.57 1069.22L1469.44 1082.06C1483.76 1093.63 1502.71 1097.72 1520.52 1093.09L1523.96 1092.19M1523.96 1092.19L1555.82 1083.9C1567.81 1080.78 1580.47 1081.58 1591.97 1086.18L1675.46 1119.57L1689.8 1125.16M1689.8 1125.16L1706.11 1523.3M1535.25 1618.86L1511.84 1629.43C1498.63 1635.4 1483.51 1635.5 1470.22 1629.71V1629.71C1455.54 1623.32 1437.17 1623.81 1430.43 1638.33C1420.24 1660.26 1421.78 1693.51 1426.27 1720.32C1428.93 1736.26 1442.4 1747.7 1458.43 1749.74L1471.3 1751.39C1486.49 1753.33 1500.31 1742.45 1502 1727.24V1727.24C1503.51 1713.69 1514.75 1703.31 1528.37 1702.88L1595.89 1700.77C1608.74 1700.37 1619.15 1690.21 1619.86 1677.38V1677.38M1535.25 1618.86L1568.61 1620.48C1598.52 1621.94 1621.52 1647.48 1619.86 1677.38V1677.38M1535.25 1618.86V1618.86C1530.93 1584.23 1562.31 1555.62 1596.99 1559.53C1619.08 1562.02 1637.13 1564.01 1638.54 1564.01V1564.01C1663.44 1564.01 1680.49 1589.64 1676.16 1614.16L1661.43 1697.63C1659.72 1707.32 1651.39 1714.45 1641.56 1714.64V1714.64C1630.38 1714.85 1621.07 1706.1 1620.6 1694.93L1619.86 1677.38M1682.49 1730.43L1663.96 1736.24L1601.45 1759.85C1596.88 1761.58 1592.55 1763.87 1588.56 1766.69L1494.94 1832.61C1488.45 1837.19 1481.08 1840.38 1473.3 1841.99L1307.72 1876.24M1682.49 1730.43L1779.46 1700.06C1787.67 1697.48 1796.36 1696.77 1804.88 1697.97L1872.28 1707.46C1889.08 1709.83 1905.11 1699.67 1910.15 1683.48V1683.48C1915.09 1667.6 1930.63 1657.48 1947.14 1659.38L1956.2 1660.42M1187.47 2520.65V2520.65C1196.84 2524.86 1204.57 2532.04 1209.47 2541.07L1256.8 2628.26L1399.62 2839.98C1412.83 2859.57 1436.6 2869.18 1459.71 2864.29L1484.74 2859C1492.32 2857.39 1498.95 2852.82 1503.13 2846.31L1508.38 2838.15C1515.69 2826.78 1531.62 2825.07 1541.17 2834.62V2834.62C1546.64 2840.09 1554.65 2842.14 1562.07 2839.98L1563.81 2839.47C1575.7 2836 1588.28 2842.05 1593.01 2853.49L1637.64 2961.54C1638.94 2964.69 1640.51 2967.71 1642.34 2970.58L1771.27 3172.8C1774.94 3178.56 1779.6 3183.62 1785.03 3187.75L1799.44 3198.73M1187.47 2520.65L1219.53 2615.52C1221.01 2619.9 1223.01 2624.09 1225.48 2628L1353.83 2830.5C1355.65 2833.37 1357.72 2836.08 1360.02 2838.59L1561.55 3058.9C1564.19 3061.79 1567.13 3064.41 1570.3 3066.71L1765.73 3208.36C1777.43 3216.84 1793.98 3212.11 1799.44 3198.73V3198.73M1799.44 3198.73L1856.88 3242.5C1864.08 3247.98 1872.45 3251.71 1881.34 3253.37L1907.04 3258.19M2406.16 1260.42L2433.34 1253.53C2463.81 1245.8 2479.78 1212.32 2466.62 1183.78V1183.78M2466.62 1183.78V1183.78C2477.57 1188.26 2489.79 1181.15 2491.3 1169.42L2497.3 1122.94L2507.67 1031.42C2508.97 1019.99 2506.84 1008.43 2501.55 998.217L2485.37 966.98C2480.3 957.194 2470.01 951.244 2459 951.737L2450.95 952.098C2430.83 952.999 2420.48 976.59 2433.44 992.007V992.007C2439.48 999.191 2440.84 1009.21 2436.94 1017.75L2432.03 1028.48C2427.72 1037.92 2426.97 1048.6 2429.91 1058.55L2441.2 1096.64C2442.58 1101.3 2442.36 1106.28 2440.51 1110.77C2440.32 1111.22 2440.13 1111.69 2439.94 1112.15C2432.45 1130.18 2448.56 1176.39 2466.62 1183.78V1183.78ZM1956.2 1660.42L2075.9 2014.92L2098.81 2132.6M2701.66 1986.94V1986.94C2674.77 2008.27 2681.45 2060.74 2650.84 2076.27L2641.77 2080.87C2618.44 2092.71 2589.93 2084.55 2576.4 2062.16V2062.16C2565.68 2044.45 2567 2021.96 2579.71 2005.62L2580.1 2005.12C2584.48 1999.5 2589.99 1994.85 2596.27 1991.49L2722.25 1924.12C2730.84 1919.53 2741.49 1921.61 2747.71 1929.12V1929.12C2756.19 1939.34 2752.89 1954.85 2741.32 1961.36C2727.94 1968.87 2712.66 1978.22 2701.66 1986.94ZM2525.16 1724.1L2503.27 1746.41C2486.42 1763.59 2482.05 1789.66 2492.11 1811.53V1811.53C2498.61 1825.65 2499.24 1841.96 2493.72 1856.5L2470.83 1916.85C2466.1 1929.32 2457.22 1939.78 2445.68 1946.46L2379.78 1984.66C2367.98 1991.5 2353.1 1989.98 2342.92 1980.89V1980.89C2333.33 1972.32 2329.89 1958.79 2334.23 1946.68L2426.4 1689.58C2433.94 1668.54 2453.23 1653.97 2475.52 1652.47L2491.71 1651.38C2518.57 1649.57 2540.42 1672.7 2537.08 1699.42V1699.42C2535.92 1708.73 2531.73 1717.4 2525.16 1724.1ZM2204.6 692.31L2201.68 696.015C2196.37 702.773 2186.71 704.236 2179.63 699.357V699.357C2170.68 693.186 2170.17 680.143 2178.61 673.291L2182.27 670.32C2187.08 666.42 2193.72 665.692 2199.26 668.46V668.46C2208.19 672.926 2210.77 684.462 2204.6 692.31ZM2368.22 746.783V746.783C2362.18 754.679 2350.8 755.994 2343.12 749.682L2342.66 749.302C2334.42 742.532 2334.07 730.043 2341.91 722.822V722.822C2348.31 716.932 2358.06 716.613 2364.83 722.072L2365.29 722.448C2372.7 728.425 2374 739.22 2368.22 746.783ZM2553.98 2313.08L2608.95 2413.65C2618.82 2431.72 2611.93 2454.37 2593.67 2463.88V2463.88C2575.33 2473.42 2552.72 2465.97 2543.66 2447.38L2493.45 2344.36C2486.33 2329.74 2490.52 2312.12 2503.47 2302.29V2302.29C2520.07 2289.69 2543.99 2294.8 2553.98 2313.08ZM2471.36 2118.77V2118.77C2467.09 2129.91 2454.56 2135.45 2443.45 2131.09L2442.79 2130.83C2431.37 2126.35 2426.05 2113.19 2431.16 2102.03V2102.03C2434.88 2093.91 2443.26 2088.96 2452.17 2089.62L2452.88 2089.67C2467.23 2090.73 2476.5 2105.33 2471.36 2118.77ZM2553.69 2061.5V2061.5C2555.29 2075.9 2541.08 2086.88 2527.55 2081.72L2526.46 2081.3C2514.71 2076.82 2510.23 2062.53 2517.32 2052.14V2052.14C2523.28 2043.39 2535.15 2041.01 2544.02 2046.78L2545 2047.41C2549.86 2050.57 2553.05 2055.74 2553.69 2061.5ZM2728.61 2072.73L2773.2 2032.74C2797.41 2011.03 2834.72 2013.45 2855.91 2038.1L2893.82 2082.2C2915.02 2106.86 2911.81 2144.14 2886.61 2164.69C2860.47 2186 2832.7 2208.47 2813.94 2223.25C2800 2234.22 2785.03 2231.83 2774.03 2217.91L2721.84 2151.88C2702.84 2127.85 2705.81 2093.19 2728.61 2072.73Z" stroke="#4B5563" stroke-opacity="0.75" stroke-width="15" stroke-linejoin="round"/>
<path d="M1665.65 3315.28C1221.39 3026.8 927.547 2526.26 927.547 1957.1C927.547 1063.38 1652.05 338.873 2545.77 338.873C3439.5 338.873 4164 1063.38 4164 1957.1C4164 2850.82 3439.5 3575.32 2545.77 3575.32C2300.13 3575.32 2112.2 3540.85 1903.66 3442.91" stroke="#4B5563" stroke-opacity="0.75" stroke-width="15" stroke-linejoin="round"/>
<path d="M1716.01 3272.31C1277.55 2998.89 986.266 2515.69 986.266 1965.21C986.266 1112.4 1685.35 421.068 2547.72 421.068C3410.09 421.068 4109.17 1112.4 4109.17 1965.21C4109.17 2818.02 3410.09 3509.35 2547.72 3509.35C2317.86 3509.35 2099.6 3460.24 1903.09 3372.04" stroke="#4B5563" stroke-opacity="0.75" stroke-width="15" stroke-linejoin="round"/>
</svg>
