<svg width="4763" height="4763" viewBox="0 0 4763 4763" fill="none" xmlns="http://www.w3.org/2000/svg">
<path d="M1787.94 3318.29C1808.65 3322.45 1837.42 3328.22 1853.11 3331.37C1860.59 3332.87 1868.28 3332.92 1875.71 3331.22C1906.8 3324.11 1955.44 3309.54 1966.19 3292.74C1978.36 3273.72 1941.12 3244.53 1920.97 3232.32M1787.94 3318.29C1797.85 3316.53 1805.82 3315.16 1812.47 3313.89M1787.94 3318.29C1785.87 3319.99 1784.25 3337.93 1784.06 3351.99M2398.1 3186.77C2385.16 3191.08 2290.3 3165.21 2277.36 3161.98C2264.42 3158.74 2216.99 3172.76 2199.74 3178.15C2182.49 3183.54 2035.88 3167.37 2007.86 3165.21C2004.6 3164.96 2001.06 3165.59 1997.27 3166.96M2398.1 3186.77L2344.49 3225.62C2336.92 3231.1 2328.13 3234.68 2318.79 3234.69C2308.05 3234.71 2292.28 3233.9 2272.19 3231.07C2231.1 3225.28 2048.76 3381.57 2033.71 3379.83C2021.67 3378.44 1977.97 3400.45 1957.63 3411.62M2398.1 3186.77C2403.03 3185.13 2409.53 3183.01 2416.35 3181.27M2549.02 3228.82C2518.84 3213.72 2456.1 3182.68 2446.61 3179.23C2439.27 3176.56 2427.4 3178.43 2416.35 3181.27M2549.02 3228.82C2572.74 3191.8 2620.7 3150.66 2660.89 3132.86M2549.02 3228.82C2549.02 3228.82 2539.93 3320.02 2531.86 3429.01M2660.89 3132.86C2667.66 2973.76 2678.23 2725.46 2678.23 2725.46M2660.89 3132.86C2687.72 3135.85 2717.36 3136.78 2744.32 3135.48M2648.21 3325.09C2649.8 3267.71 2666.53 3307.51 2667.6 3277.33C2668.24 3259.62 2704.46 3251.65 2736.92 3248.66M2648.21 3325.09L2667.64 3375.09M2648.21 3325.09C2647.91 3335.64 2646.9 3363.93 2645.42 3403.49M1957.63 3411.62C1957.63 3411.62 1788.54 3371.87 1785.49 3368.82C1784.34 3367.67 1783.94 3360.55 1784.06 3351.99M1957.63 3411.62C1957.63 3411.62 1944.07 3441.99 1935.55 3464.33M1928.33 3489.5C1929.16 3485.38 1932.39 3472.61 1935.55 3464.33M1928.33 3489.5L1732.82 3489.33C1718.99 3489.32 1707.69 3478.29 1707.34 3464.46V3464.46M1928.33 3489.5C1925.85 3501.93 2072.95 3489.09 2126.58 3486.02M2145.94 3484.85L2146.53 3474.53C2148.32 3443.2 2174.7 3418.98 2206.06 3419.86L2340.8 3423.64M2145.94 3484.85L2527.44 3492.39M2145.94 3484.85C2145.94 3484.85 2138.58 3485.33 2126.58 3486.02M2531.86 3429.01L2340.8 3423.64M2531.86 3429.01C2517.95 3408.47 2480.99 3356.88 2444.38 3314.85C2407.77 3272.81 2360.07 3369.86 2340.8 3423.64M2531.86 3429.01C2530.33 3449.66 2528.83 3470.96 2527.44 3492.39M1920.97 3232.32C1907.65 3245.92 1893.73 3260.03 1879.57 3273.01C1845.6 3304.16 1842.91 3308.06 1812.47 3313.89M1920.97 3232.32C1924.23 3228.99 1927.45 3225.69 1930.63 3222.45M2678.23 2725.46V2681.87M2678.23 2725.46C2678.23 2725.46 2520.91 2745.12 2451.71 2753.97M2678.23 2681.87V2654.37C2678.23 2645.93 2685.12 2639.1 2693.57 2639.19V2639.19M2678.23 2681.87C2678.23 2681.87 2501.17 2705.39 2435.37 2713.18M2744.32 3135.48C2753.31 3135.04 2761.42 3134.49 2767.86 3133.95C2772.05 3133.6 2771.25 3181.52 2770.17 3215.11C2769.6 3233.05 2754.79 3247.01 2736.92 3248.66V3248.66M2744.32 3135.48L2747.14 2709.32M2747.4 2669.45V2669.45C2747.51 2653.04 2734.32 2639.62 2717.91 2639.45L2693.57 2639.19M2747.4 2669.45L2767.61 2667.97C2769.63 2667.82 2771.62 2667.42 2773.53 2666.77L2773.89 2666.65C2785.58 2662.69 2798.33 2668.45 2803.08 2679.84V2679.84C2805.87 2686.54 2805.35 2694.24 2801.76 2700.55V2700.55C2795.97 2710.72 2783.6 2715.39 2772.6 2711.39L2769.16 2710.13C2765.34 2708.75 2761.27 2708.19 2757.22 2708.52L2747.14 2709.32M2747.4 2669.45L2747.14 2709.32M2736.92 3248.66L2732.01 3357.53M2710.79 3378.94L2723.78 3371.24C2728.66 3368.35 2731.75 3363.2 2732.01 3357.53V3357.53M2710.79 3378.94L2667.64 3375.09M2710.79 3378.94L2712.04 3390.54C2712.71 3396.86 2716.16 3402.55 2721.45 3406.08L2724.73 3408.26C2731.4 3412.71 2733.96 3421.27 2730.83 3428.64V3428.64M2667.64 3375.09V3375.09C2668.95 3388.6 2659.7 3400.86 2646.35 3403.32L2645.42 3403.49M2645.42 3403.49C2644.58 3425.97 2643.59 3452.09 2642.5 3480.66M2642.5 3480.66L2720.65 3479.64C2736.06 3479.44 2743.89 3461.02 2733.34 3449.78V3449.78C2728.53 3444.66 2727.2 3437.18 2729.95 3430.72L2730.83 3428.64M2642.5 3480.66C2642.31 3485.59 2642.12 3490.58 2641.93 3495.64M2730.83 3428.64L2849.71 3429.95C2880.96 3430.29 2906.32 3455.35 2907.05 3486.6L2907.29 3496.84M2907.29 3496.84L2919.62 3597.01M2907.29 3496.84L2641.93 3495.64M2907.29 3496.84L3301.4 3496.88M2919.62 3597.01L2638.11 3594.66M2919.62 3597.01L3305.64 3599.92M2638.11 3594.66C2639.45 3560.08 2640.74 3526.61 2641.93 3495.64M2638.11 3594.66C2637.52 3609.99 2636.92 3625.54 2636.31 3641.18M2527.44 3492.39C2525.1 3528.48 2523.06 3564.96 2521.64 3599.46M1935.55 3464.33L1880.33 3432.14C1871.97 3427.27 1862.52 3424.56 1852.84 3424.28L1799.62 3422.7C1789.22 3422.39 1778.94 3424.88 1769.84 3429.91L1714.79 3460.35M1707.34 3464.46V3464.46C1691.15 3465.94 1677.87 3477.92 1674.75 3493.88L1668.2 3527.42M1707.34 3464.46L1714.79 3460.35M1664.49 3546.45L2120.5 3553.19C2123.85 3553.24 2126.59 3550.54 2126.59 3547.19L2126.58 3486.02M1664.49 3546.45V3546.45C1664.71 3574.06 1687.1 3596.35 1714.71 3596.45L2521.64 3599.46M1664.49 3546.45L1668.2 3527.42M2521.64 3599.46C2521.04 3614.1 2520.55 3628.38 2520.2 3642.12M3301.4 3496.88C3303.7 3484.74 3305.59 3470.7 3306.66 3455.62M3301.4 3496.88L3305.64 3599.92M3206.15 3140.67V3140.67C3191.19 3142.8 3180.45 3156.17 3181.58 3171.25L3184 3203.34M3206.15 3140.67L3195.13 2644.51M3206.15 3140.67C3218.25 3153.58 3250.72 3171.65 3287.18 3145.79M3359.24 4055.91C3408.46 4066.84 3422.83 4028.51 3424.56 3999.16M3359.24 4055.91C3333.21 4050.12 3310.93 4023.87 3293.22 3991.77M3359.24 4055.91C3366.07 4052.08 3379.74 4039.81 3379.74 4021.38C3379.74 4002.94 3367.71 3564.13 3361.7 3347.02M3250.53 3875.44L3338.11 3947.37C3338.87 3947.99 3339.98 3947.26 3339.71 3946.31L3316.65 3866.88M3250.53 3875.44C3236.84 3864.19 3222.06 3871.42 3211.43 3881.31C3203.08 3889.07 3200.25 3900.72 3200.37 3912.12L3201.15 3991.13M3250.53 3875.44C3257.09 3905.56 3271.81 3952.94 3293.22 3991.77M3250.53 3875.44L3316.65 3866.88M3316.65 3866.88L3307.62 3647.89M3208.44 3263.96V3263.96C3197.2 3262.1 3187.77 3253.51 3186.92 3242.16L3184 3203.34M3208.44 3263.96L3210.83 3370C3210.87 3371.8 3211.6 3373.51 3212.87 3374.79L3233.3 3395.21M3208.44 3263.96C3275.14 3274.98 3300.19 3335.7 3306.12 3397.36M3233.3 3395.21L3306.12 3397.36M3233.3 3395.21L3221.05 3414.88M3306.66 3455.62L3199.86 3454.66C3198.3 3454.64 3197.35 3452.93 3198.18 3451.6L3221.05 3414.88M3306.66 3455.62C3307.96 3437.19 3308.03 3417.23 3306.12 3397.36M3221.05 3414.88L2962.38 3413.77C2957.69 3413.75 2953.02 3413.16 2948.48 3412.02L2869.59 3392.16M2732.01 3357.53L2869.59 3392.16M3407.16 3400.2C3403.58 3346.87 3399.47 3312.52 3394.8 3310.32C3381.13 3303.89 3371.35 3256.63 3366.2 3219.68C3363.92 3203.28 3355.5 3188.24 3342.14 3178.46L3297.38 3145.7C3294.36 3143.48 3290.24 3143.62 3287.18 3145.79V3145.79M3407.16 3400.2C3423.01 3429.62 3454.71 3498.26 3454.71 3537.47M3407.16 3400.2C3409.65 3437.3 3411.88 3483.57 3413.85 3534.6M3454.71 3537.47L3413.85 3534.6M3454.71 3537.47L3498.82 3630.6M3454.71 3537.47C3490.88 3550.14 3552.8 3567.95 3620.09 3579.8M3413.85 3534.6C3415.3 3572.13 3416.61 3612.23 3417.77 3653.14M3498.82 3630.6L3417.77 3653.14M3498.82 3630.6L3500.98 3844.4C3501.04 3850.66 3495.88 3855.71 3489.62 3855.51L3422.42 3853.32M3417.77 3653.14C3419.7 3720.31 3421.24 3789.65 3422.42 3853.32M3422.42 3853.32C3423.32 3901.76 3424 3946.92 3424.47 3985.36C3424.79 3989.52 3424.86 3994.21 3424.56 3999.16M3305.64 3599.92L3307.62 3647.89M1997.27 3166.96C1987.27 3170.59 1975.52 3179.45 1962.52 3191.23M1997.27 3166.96C1984.98 3155.36 1950.58 3135.19 1903.91 3137.73M1812.47 3313.89C1815.73 3318.81 1817.45 3321.33 1806.36 3304.34M1930.63 3222.45C1887.4 3211.57 1802.02 3212.71 1806.36 3304.34M1930.63 3222.45C1941.84 3211.02 1952.55 3200.27 1962.52 3191.23M1806.36 3304.34C1802.51 3298.45 1797.11 3290.21 1789.71 3278.9C1787.74 3275.91 1786.08 3272.86 1784.71 3269.77M1962.52 3191.23C1909.57 3177.79 1799.88 3174.69 1784.71 3269.77M1784.71 3269.77C1779.83 3258.83 1778.53 3247.37 1780.09 3235.97M1903.91 3137.73C1898.58 3138.02 1893.09 3138.61 1887.45 3139.54C1835.74 3148.08 1786.18 3191.59 1780.09 3235.97M1903.91 3137.73C1911.38 3129.97 1922.92 3114.81 1929.06 3098.12C1935.76 3079.91 1940.54 3059.42 1952.3 3043.98C1956.55 3038.4 1960.56 3032.64 1963.72 3027.25C1970.75 3015.25 1973.41 3000.24 1978.54 2987.32C1986.35 2967.64 1995.1 2941.37 1996.54 2921.99C1997.42 2910.11 2000.65 2906.99 2004.59 2908.32C2019.18 2913.25 2017.39 2934.7 2012.98 2949.45L2009 2962.79M2296.69 2957.31L2212.76 3054.24C2203.84 3064.54 2199.23 3077.75 2196.57 3091.11C2195.5 3096.51 2194.02 3102.24 2192.05 3108.03M2296.69 2957.31C2295.64 2967.4 2289.75 2995.77 2274.62 3028.56C2255.7 3069.55 2229.3 3109.3 2192.05 3108.03M2296.69 2957.31C2300.89 2925.78 2301.48 2857.93 2270.21 2838.76C2231.11 2814.8 2107.52 2716.43 2081.03 2719.58C2062.49 2721.79 2041 2716.75 2029.29 2712.92C2026.35 2711.96 2023.57 2710.6 2020.89 2709.07C1998.7 2696.45 1959.04 2675.75 1950.5 2678.59C1939.15 2682.37 1883.03 2677.96 1875.46 2685.53C1867.9 2693.09 1840.78 2719.58 1835.74 2726.52C1832.38 2731.13 1746.7 2763.37 1688.23 2786.11M2192.05 3108.03C2183.93 3132 2167.51 3157.17 2137.15 3166.03C2076.62 3183.68 2012.3 3075.22 1997.8 3068.29C1986.19 3062.74 1998.01 3003.76 2005.36 2974.96L2009 2962.79M1568.37 3009.01C1570.96 3004.81 1572.13 2982.41 1572.58 2960.39M1568.37 3009.01C1530.88 3024.92 1437.33 3055.72 1363 3051.67C1270.08 3046.6 1218.58 3050.7 1163.66 2983.61M1568.37 3009.01C1565.51 3013.66 1554.75 3034.12 1546.07 3053.26M1623.23 3219.63C1574.67 3203.86 1534.95 3099.82 1534.32 3087.21C1534.17 3084.34 1535.59 3079.17 1537.92 3072.8M1623.23 3219.63C1628.9 3244.43 1644.92 3294.41 1663.59 3295.93C1682.25 3297.44 1732.96 3335.65 1755.98 3354.56M1623.23 3219.63C1633.77 3148.36 1655.79 2994.4 1659.54 2948.66C1663.29 2902.93 1636.39 2855.5 1622.47 2837.5M1623.23 3219.63L1751.3 3190.71M1755.98 3354.56L1784.06 3351.99M1755.98 3354.56C1746.37 3364.3 1731.97 3382.95 1722.66 3405.08M1714.79 3460.35C1711.28 3441.51 1715.44 3422.25 1722.66 3405.08M2009 2962.79C2029.43 2943.84 2072.81 2899.43 2082.83 2873.38C2092.85 2847.32 2114.28 2799.06 2123.75 2778.18M1822.28 2859.18C1813.65 2878.94 1794.89 2927.32 1788.88 2962.73C1781.36 3006.99 1798.9 3010.33 1791.38 3021.19C1783.87 3032.04 1756.31 3077.97 1757.14 3093.84C1757.44 3099.5 1756.76 3113.99 1755.71 3130.7M1751.3 3190.71C1755.94 3205.23 1768.18 3234.61 1780.09 3235.97M1751.3 3190.71C1769.11 3184.03 1809.76 3162.98 1829.8 3132.25C1842.11 3113.38 1834.46 3102.36 1822.35 3096.41C1807.95 3089.33 1791.46 3096.77 1779.83 3107.81L1755.71 3130.7M1751.3 3190.71C1752.53 3175.74 1754.4 3151.5 1755.71 3130.7M2065.82 2947.53C2110.27 2948.02 2196.81 2963.59 2187.38 3021.94M1842.59 2911.43C1863.71 2905.78 1910.37 2901.71 1928.05 2930.59M2020.88 2775.87C2029.72 2797.24 2044.46 2852.79 2032.67 2904.06M1842.59 2806.08L1830.07 2836.28M1622.47 2837.5C1628.55 2822.06 1632.91 2810.37 1634.58 2808.49C1636.27 2806.59 1658.81 2797.55 1688.23 2786.11M1622.47 2837.5C1614.68 2857.3 1604.07 2883.28 1592.72 2902.63C1582.71 2919.71 1572.99 2939.02 1572.61 2958.8C1572.6 2959.33 1572.59 2959.86 1572.58 2960.39M1668.2 3527.42L1623.91 3527.14C1603.32 3527.01 1584.21 3537.81 1573.69 3555.51L1555.63 3585.88C1550.14 3595.13 1547.32 3605.73 1547.5 3616.48L1547.92 3641.4M1547.92 3641.4L2520.2 3642.12M1547.92 3641.4L1551.96 3823.83M2520.2 3642.12C2520.09 3646.34 2520 3650.52 2519.91 3654.63C2518.78 3712.32 2519.87 3783 2521.58 3846.92M2636.31 3641.18L3307.62 3647.89M2636.31 3641.18C2633.56 3711.97 2630.71 3784.73 2628.22 3848.26M1370.48 4115.16L1780.43 4120.9C1795.69 4121.12 1810.43 4115.3 1821.44 4104.72L1849.06 4078.15C1860.78 4066.89 1867.23 4051.24 1866.85 4035L1865.01 3955.96M1370.48 4115.16L1407.77 4011.2C1409.45 4006.49 1413.88 4003.33 1418.88 4003.25L1659.29 3999.65M1370.48 4115.16L1368.56 4402.75M1865.01 3955.96L1864.24 3922.76C1863.95 3910.4 1859.73 3898.46 1852.18 3888.68L1848.21 3883.54C1837.34 3869.44 1820.6 3861.12 1802.79 3860.97L1691.86 3860M1865.01 3955.96L1832.28 3983.8C1822.02 3992.53 1809.04 3997.41 1795.57 3997.61L1659.29 3999.65M1537.92 3072.8C1475.14 3061.12 1349.88 3147.59 1322.46 3269.35M1537.92 3072.8C1540.04 3067.01 1542.92 3060.22 1546.07 3053.26M1551.96 3823.83L1552.63 3853.94C1552.69 3856.64 1554.88 3858.8 1557.58 3858.82L1691.86 3860M1551.96 3823.83C1431.48 3795.89 1382.64 3711.86 1353.02 3639.64M3683.66 4423.11C3639.1 4435.27 3546.47 4453.36 3532.43 4428.51C3523.06 4411.92 3495.09 4404.85 3469.77 4402.38C3449.98 4400.45 3431.6 4389.1 3424.22 4370.64V4370.64C3418.44 4356.19 3422.85 4339.82 3422.84 4324.26C3422.84 4309.51 3413.53 4296.93 3403.72 4288.37C3396.59 4282.14 3387.06 4279.85 3377.59 4279.58L3177.68 4273.87C3163.53 4273.46 3150.02 4267.9 3139.69 4258.23L3077.41 4199.9C3073.32 4196.07 3067.33 4195.06 3062.21 4197.33V4197.33C3054.06 4200.95 3051.36 4211.17 3056.64 4218.35L3066.29 4231.47C3079.63 4249.59 3066.31 4275.12 3043.82 4274.56L2668.3 4265.14L2259.18 4274.59L1764.95 4278.6C1761.39 4278.63 1757.84 4278.98 1754.35 4279.66L1628.16 4304.2C1619.62 4305.86 1613.19 4312.92 1612.32 4321.57V4321.57C1611.56 4329.16 1616.1 4336.27 1619.2 4343.23C1624.18 4354.38 1620.93 4373.6 1588.12 4400.16C1531.42 4446.07 1527.36 4432.57 1494.96 4432.57C1462.55 4432.57 1465.25 4505.48 1451.75 4486.57C1443.24 4474.65 1410.67 4475.37 1385.79 4478.42C1376.56 4479.55 1368.1 4472.5 1368.16 4463.2V4463.2M3683.66 4423.11L3739.4 4430.92C3747.1 4432 3752.69 4431.74 3760.01 4429.12V4429.12C3784.92 4420.16 3811.95 4396.16 3811.98 4369.68L3812.02 4328.74M3683.66 4423.11L3682.44 4328.67M3424.56 3999.16L3622.22 4003.36C3653.47 4004.02 3678.58 4029.34 3678.98 4060.59L3679.95 4135.65M3679.95 4135.65C3679.95 4135.6 3414.55 4129.33 3259.8 4125.68C3243.22 4125.29 3227.67 4117.83 3216.95 4105.17L3215.63 4103.6C3206.89 4093.28 3202.04 4080.23 3201.91 4066.71L3201.15 3991.13M3679.95 4135.65L3682.44 4328.67M3201.15 3991.13L3293.22 3991.77M3361.7 3347.02C3350.54 3297.1 3323.78 3197.89 3305.93 3200.44C3296.03 3201.86 3279.45 3200.07 3263.65 3197.46C3247.35 3194.78 3232.09 3207.6 3233.13 3224.09V3224.09C3233.79 3234.69 3241.22 3243.56 3251.2 3247.19C3289.24 3260.99 3346.38 3293.4 3361.7 3347.02ZM2628.22 3848.26C2627.77 3859.52 2627.34 3870.49 2626.93 3881.11C2626.26 3898.02 2647.9 3905.56 2657.89 3891.9V3891.9C2666.77 3879.75 2685.88 3884.14 2688.58 3898.95L2689.31 3902.96C2690.2 3907.88 2689.11 3912.94 2686.28 3917.05L2644.13 3978.26M2628.22 3848.26L2746.14 3855.29C2755.65 3855.86 2765.12 3858.53 2772.01 3865.11C2772.66 3865.73 2773.31 3866.37 2773.97 3867.04M2521.58 3846.92L2319.39 3849.09C2306.96 3849.22 2294.9 3853.35 2284.99 3860.85L2284.55 3861.18C2270.27 3872 2261.79 3888.82 2261.58 3906.74L2261.34 3927.13M2521.58 3846.92C2522.93 3897.4 2524.66 3943.67 2526 3976M2773.97 3867.04C2782.86 3876.12 2791.57 3889.3 2791.82 3904.69C2792.15 3924.57 2791.12 3996.45 2790.29 4046.38C2790.02 4063.04 2782.57 4078.75 2769.87 4089.53L2762.45 4095.83C2752.05 4104.67 2738.86 4109.55 2725.21 4109.62L2321.87 4111.72C2307.93 4111.8 2294.42 4106.84 2283.83 4097.76L2280.15 4094.61C2267.12 4083.44 2259.7 4067.07 2259.9 4049.9L2261.34 3927.13M2773.97 3867.04L2776.2 3914.04C2777.14 3933.78 2767.97 3952.63 2751.86 3964.08L2748.31 3966.6C2738.71 3973.43 2727.25 3977.16 2715.48 3977.32L2644.13 3978.26M2644.13 3978.26L2625.34 4005.55C2613.6 4022.58 2593.25 4031.53 2572.76 4028.64V4028.64C2546.81 4024.99 2527.13 4003.43 2526.05 3977.25C2526.03 3976.83 2526.01 3976.42 2526 3976M2526 3976L2325.26 3977.92C2304.72 3978.12 2285.61 3967.44 2275.02 3949.85L2261.34 3927.13M1368.56 4402.75L1300.76 4463.66M1368.56 4402.75L1368.16 4463.2M1300.76 4463.66C1235.68 4465.33 1099.52 4464.83 1075.49 4449.48C1051.46 4434.13 982.047 4429.18 950.344 4428.62M1300.76 4463.66C1306.53 4471.31 1321.48 4487.13 1335.16 4489.15C1348.84 4491.18 1362.86 4472.69 1368.16 4463.2M3195.13 2644.51L3275.6 2646.15M3195.13 2644.51V2644.51C3196.97 2628.94 3210.81 2617.62 3226.43 2618.93L3254.28 2621.25C3267 2622.31 3276.51 2633.41 3275.6 2646.15V2646.15M3275.6 2646.15L3286.7 3125.06M3287.18 3145.79L3286.7 3125.06M3812.8 3587.35C3755.97 3597.23 3685.5 3591.33 3620.09 3579.8M3812.8 3587.35L3779.38 3296.96M3812.8 3587.35L3812.02 4328.74M3620.09 3579.8C3619.04 3568.09 3580.42 3495.13 3565.53 3425.57M3699.99 3069.25C3702.08 3119.39 3603.89 3257.27 3568.38 3332.48C3564.43 3340.85 3561.97 3350.2 3560.74 3360.24M3699.99 3069.25C3698.32 3029.14 3689.55 2973.15 3685.37 2950.17M3699.99 3069.25L3779.38 3296.96M3685.37 2950.17L3576.35 3035.34M3685.37 2950.17L3802.36 2628.44M3560.74 3360.24L3552.54 3083.97C3551.99 3065.52 3560.26 3047.91 3574.8 3036.55L3576.35 3035.34M3560.74 3360.24C3558.3 3380.1 3560.63 3402.65 3565.53 3425.57M3576.35 3035.34L3573.29 2948.05C3572.82 2934.56 3577.06 2921.34 3585.28 2910.65L3596.24 2896.39M3802.36 2628.44L3596.24 2896.39M3802.36 2628.44L3791.91 2469.67M3596.24 2896.39C3585.56 2852.34 3576.73 2747.52 3626.87 2680.67C3677.01 2613.82 3757.79 2512.15 3791.91 2469.67M3791.91 2469.67L3803.59 2056.49M3605.98 3347.1C3647.76 3344.31 3740.94 3330.39 3779.38 3296.96M2956.22 1262.19C2977.6 1271.15 3029.86 1288.67 3067.92 1287.01C3115.5 1284.94 3129.98 1262.19 3175.48 1278.74C3220.99 1295.29 3212.71 1318.04 3266.49 1318.04C3320.28 1318.04 3407.15 1291.15 3475.41 1309.76C3543.67 1328.38 3709.15 1355.27 3733.97 1378.02C3744.89 1388.03 3760.88 1398.91 3775.71 1408.05C3794.18 1419.44 3806.31 1439.23 3806.21 1460.93L3803.59 2056.49M2956.22 1262.19C2982.42 1281.5 3043.93 1356.93 3063.78 1413.19C3088.61 1483.52 3163.07 1574.53 3146.52 1711.05C3143.34 1737.33 3142.45 1759.92 3143.05 1780.16M2956.22 1262.19C2959.66 1226.77 2964.2 1152.34 2954.89 1137.96C2943.26 1119.98 2931.63 1076.63 2933.75 1059.71C2935.86 1042.79 2921.06 997.326 2913.65 977.236M2956.22 1262.19C2952.61 1292.68 2942.63 1357.26 2931.63 1371.64M2825.91 2230.24C2964.24 2260.52 3071.91 2351.47 3164.9 2421.88C3167.86 2424.12 3172.15 2422.33 3172.8 2418.67C3211.53 2199.53 3163.15 2127.41 3169.28 2006.84C3174.29 1908.29 3145.58 1865.04 3143.05 1780.16M2825.91 2230.24C2822.78 2255.71 2808.88 2311.8 2777.23 2357.9C2766.95 2372.88 2748.75 2379.41 2730.61 2378.43C2719.09 2377.8 2706.67 2377.37 2695.45 2377.46M2825.91 2230.24C2834.83 2161.71 2852.08 2027.67 2860.94 1958.77M2931.63 1371.64C2974.43 1445.48 2875.84 1875.38 2867.11 1912.97C2866.65 1914.92 2866.37 1916.58 2866.11 1918.57C2865.35 1924.5 2863.49 1938.93 2860.94 1958.77M2931.63 1371.64L2923.84 1383.05C2918.61 1390.7 2915.35 1399.49 2913.88 1408.64C2910.43 1429.96 2904 1460.02 2895.48 1473.65C2884.83 1490.69 2866.88 1507.81 2859.24 1514.25M2457.61 2474.06C2457.61 2474.06 2582.33 2446.47 2622.25 2434.32C2662.17 2422.17 2643.08 2387.46 2663.91 2380.51C2670.25 2378.4 2681.98 2377.56 2695.45 2377.46M2457.61 2474.06L2435.37 2713.18M2457.61 2474.06C2457.61 2474.06 2517.83 2415.8 2581.16 2356.72M2860.94 1958.77L2803.63 2122.15C2801.89 2127.11 2799.49 2131.81 2796.49 2136.12L2777.6 2163.22C2770.82 2172.95 2766.59 2184.84 2759.95 2194.67C2752.17 2206.21 2737.05 2222.63 2709.82 2242.88C2694.07 2254.59 2667.97 2277.29 2638.38 2304.06M2435.37 2713.18C2423.69 2714.56 2415.51 2715.45 2412.46 2715.62C2402.64 2716.16 2395.57 2720.65 2390.89 2726.51C2382.08 2737.56 2388.63 2754.36 2402.44 2757.37C2408.04 2758.59 2414.63 2758.86 2422.3 2757.8C2426.93 2757.16 2437.45 2755.8 2451.71 2753.97M2451.71 2753.97C2442 2790.61 2420.29 2871.94 2411.08 2904.2C2399.56 2944.52 2431.13 3048.58 2424.9 3088.47C2419.91 3120.38 2417.12 3163.63 2416.35 3181.27M2638.38 2304.06C2617.6 2283.94 2569.65 2243.92 2544.17 2244.71C2524.63 2245.32 2500.59 2251.93 2479.87 2255.79M2638.38 2304.06C2624.13 2316.96 2609.07 2330.8 2593.96 2344.82M1888.2 1612.61C1897.22 1617.56 1904.36 1625.83 1909.96 1636M1888.2 1612.61C1831.96 1617.7 1744.34 1626.64 1671.64 1636.33M1888.2 1612.61C1896.44 1648.85 1898.14 1727.81 1839.08 1753.7C1780.01 1779.59 1702.84 1686.24 1671.64 1636.33M1546.01 1661.5C1551.05 1657.46 1568.29 1652.99 1592.96 1648.41M1546.01 1661.5L1529.54 1610.44M1546.01 1661.5C1538.33 1667.64 1536.62 1676.62 1538.16 1686.27M1560.06 1729.48C1575.05 1750.89 1607.91 1790.91 1630.07 1796.43C1634.6 1797.56 1639.38 1797.15 1644.04 1797.56C1651.87 1798.25 1661.33 1798.98 1671.58 1799.64M1560.06 1729.48L1534.3 1731.71M1560.06 1729.48C1551.92 1719.61 1540.69 1702.05 1538.16 1686.27M1693.5 1800.83C1720.52 1802.03 1748.92 1802.21 1766.24 1799.5C1843.66 1788.66 1930.49 1769.65 1928.49 1743.59C1929.94 1716.99 1927.25 1667.4 1909.96 1636M1693.5 1800.83L1955.96 2165.09C2000.74 2219.83 2039.56 2194.95 2046.53 2223.81C2048.19 2230.69 2053.55 2237.87 2060.86 2244.82M1693.5 1800.83C1686 1800.5 1678.6 1800.09 1671.58 1799.64M1909.96 1636C1916.46 1633.2 1929.22 1630.2 1944.33 1627.32M2041.13 1612.88C2024.96 1564.69 2407.77 1509.69 2425.81 1516.36M2041.13 1612.88C2041.13 1612.88 1984.45 1619.68 1944.33 1627.32M2041.13 1612.88C2041.13 1612.88 2050.95 1628.75 2064.36 1648.06M2425.81 1516.36C2433.18 1519.08 2439.46 1527.24 2444.69 1538.31M2425.81 1516.36L2400.29 1497.63M2444.69 1538.31L2519.95 1536.62M2444.69 1538.31C2448.79 1546.99 2452.24 1557.46 2455.07 1568.52M2519.95 1536.62C2518.01 1532.26 2518.36 1513.24 2519.1 1497.41C2519.56 1487.85 2522.62 1478.63 2527.72 1470.54L2557.42 1423.41M2519.95 1536.62L2518.32 1548.43M2455.07 1568.52C2459.16 1584.5 2461.94 1601.69 2463.47 1616.46C2465.11 1632.22 2458.61 1647.7 2445.69 1656.87C2402.83 1687.33 2344.25 1703.37 2288.83 1711.44M2455.07 1568.52L2504.88 1561.82C2511.86 1560.89 2517.36 1555.41 2518.32 1548.43V1548.43M2455.07 1568.52C2425.48 1605.06 2356.79 1678.98 2318.68 1682.35C2285.27 1685.29 2208.15 1618.83 2164.14 1578.47C2153.53 1568.74 2147.11 1555.31 2145.95 1540.97L2142.43 1497.63M2557.42 1423.41L2568.82 1452.73M2557.42 1423.41L2543.57 1345.22M2568.82 1452.73L2518.32 1548.43M2568.82 1452.73L2591.77 1518.79C2594.26 1525.97 2599.97 1531.85 2607.52 1531.07V1531.07M2543.57 1345.22V1345.22C2547.86 1333.77 2559.48 1326.78 2571.6 1328.34L2576.15 1328.93M2543.57 1345.22L2544.14 1345.32C2557.28 1347.67 2570.37 1340.96 2576.15 1328.93V1328.93M2576.15 1328.93C2579 1333.03 2582.01 1337.88 2585.13 1343.31M2585.13 1343.31C2592.45 1309.01 2611.91 1236.29 2631.16 1219.8C2634.86 1216.63 2637.91 1215.81 2640.42 1216.73M2585.13 1343.31C2588.76 1349.63 2592.53 1356.74 2596.35 1364.34M2596.35 1364.34C2621.96 1415.42 2649.45 1488.92 2649.45 1499.15C2649.45 1506.09 2645.75 1512.18 2640.22 1517.13M2596.35 1364.34L2643.02 1288.31C2648.02 1280.18 2651.05 1270.94 2651.05 1261.4C2651.05 1251.59 2650.45 1241.05 2648.79 1232.63M2640.42 1216.73C2641.73 1213.43 2683.16 1095.91 2705.79 1031.66C2707.31 1027.36 2709.63 1021.97 2714.18 1022.27V1022.27M2640.42 1216.73C2644.52 1218.24 2647.17 1224.42 2648.79 1232.63M2640.42 1216.73C2683.83 1019.76 2551.94 1001.62 2588.42 922.205C2617.61 858.675 2570.54 745.495 2543.35 696.846L2435.86 525.584C2424.14 506.91 2424.02 483.206 2435.55 464.415L2474.67 400.659M2722.75 1052.01C2723.19 1029.17 2718.72 1022.57 2714.18 1022.27M2722.75 1052.01L2731.7 1044.13C2745.04 1032.38 2763.03 1027.4 2780.51 1030.61L2795.85 1033.43M2722.75 1052.01L2653.7 1220.65M2648.79 1232.63L2653.7 1220.65M2714.18 1022.27C2716.63 1020.24 2720.15 1017.25 2723.98 1013.95C2736.78 1002.97 2753.65 997.901 2770.34 1000.25L2806.39 1005.33M2806.39 1005.33L2795.85 1033.43M2806.39 1005.33C2811.83 988.916 2829.27 956.3 2855.5 957.146C2888.28 958.203 2906.25 957.145 2913.65 977.236M2795.85 1033.43L2804.75 1081.21M2636.69 1519.97C2645.25 1574.1 2674.33 1685.57 2722.23 1698.46C2763.22 1709.5 2791.95 1692.65 2805.4 1678.67C2809.38 1674.52 2811.74 1669.19 2813.42 1663.69L2843.86 1564.43M2636.69 1519.97C2637.93 1519.07 2639.11 1518.13 2640.22 1517.13M2636.69 1519.97C2628.13 1526.18 2616.77 1530.12 2607.52 1531.07M2859.24 1514.25L2821.25 1520.01M2859.24 1514.25L2843.86 1564.43M2821.25 1520.01C2817.79 1557.23 2806.05 1637.21 2786.71 1659.32C2774.39 1673.39 2754.57 1676.39 2737.54 1675.32C2721.62 1674.32 2709.15 1662.66 2702.32 1648.25L2640.22 1517.13M2821.25 1520.01C2810.73 1525.63 2787.31 1529.5 2777.68 1500.02C2773.43 1487 2769.51 1474.68 2766.22 1464.18M2607.52 1531.07L2656.6 1661.62C2664.28 1677.74 2689.07 1711.82 2726.84 1719.19C2735.31 1720.84 2743.16 1721.44 2750.35 1721.3M2843.86 1564.43C2842.46 1592.6 2838.52 1653.1 2833.91 1669.68C2830.28 1682.76 2816.36 1694.32 2805.75 1701.06C2800.89 1704.15 2796.18 1707.55 2791.24 1710.51C2782.69 1715.64 2768.72 1720.92 2750.35 1721.3M2765.65 1320.32L2778.5 1401.91C2779.86 1410.53 2776.6 1419.24 2769.9 1424.86V1424.86C2762.3 1431.23 2759.21 1441.51 2762.13 1451C2763.34 1454.94 2764.72 1459.37 2766.22 1464.18M2765.65 1320.32L2813.02 1312.8C2825.36 1312.44 2847.18 1310.38 2860.64 1305.07M2765.65 1320.32C2757.05 1237.84 2754.19 1081.17 2811.52 1114.3M2811.52 1114.3C2818.03 1112.79 2834.68 1109.93 2849.11 1110.54C2867.16 1111.29 2891.97 1175.95 2900.99 1196.25C2910.02 1216.56 2878.44 1282.72 2871.67 1297.01C2870.12 1300.29 2866.05 1302.94 2860.64 1305.07M2811.52 1114.3L2804.75 1081.21M2811.52 1114.3C2816.28 1120.72 2826.67 1186.97 2821.47 1218.14C2818.6 1235.41 2830.09 1254.51 2841.89 1268.36C2850.61 1278.6 2857.89 1290.31 2860.35 1303.53L2860.64 1305.07M2804.75 1081.21C2822.54 1060.91 2861.74 1020.76 2876.18 1022.56C2894.23 1024.82 2904.75 1015.04 2907.76 1030.08C2908.9 1035.79 2908.73 1043.53 2908.03 1051.05C2906.74 1064.8 2908.31 1078.89 2914.79 1091.09L2925.74 1111.69C2928.77 1117.4 2930.83 1123.57 2931.82 1129.95L2936.95 1162.76C2937.54 1166.53 2937.76 1170.36 2937.59 1174.17L2934 1258.7C2933.56 1268.96 2930.03 1278.85 2923.87 1287.06L2891.51 1330.21C2886.56 1336.81 2876.6 1336.61 2871.92 1329.82V1329.82C2868.7 1325.15 2869.17 1318.87 2873.05 1314.73L2899.52 1286.46C2906.87 1278.61 2911.9 1268.87 2914.03 1258.32L2922.05 1218.7C2923.05 1213.78 2923.4 1208.76 2923.1 1203.75L2919.62 1145.1C2919.24 1138.65 2917.77 1132.3 2915.3 1126.33L2893.47 1073.69M2893.47 1073.69L2870.25 1066.36C2866.87 1065.29 2863.18 1065.8 2860.21 1067.74L2843.73 1078.53C2838.16 1082.17 2831.36 1076.11 2834.33 1070.16V1070.16C2834.66 1069.51 2835.09 1068.92 2835.61 1068.41L2860.97 1043.67C2864.02 1040.7 2867.9 1038.71 2872.1 1037.97L2875.01 1037.45C2884.19 1035.83 2893.08 1041.49 2895.5 1050.48V1050.48C2896.15 1052.9 2896.29 1055.42 2895.91 1057.89L2893.47 1073.69ZM2913.65 977.236L2878.17 896.45L2862.34 864.787C2855.39 850.883 2864.23 834.275 2879.65 832.286V832.286C2896 830.177 2904.65 811.834 2895.89 797.876L2890.74 789.685C2877.55 768.668 2895.36 741.922 2919.84 746.002L2924.01 746.696C2942.71 749.813 2959.73 735.394 2959.73 716.44V710.315C2959.73 690.04 2942.94 673.797 2922.67 674.472L2870.32 676.217C2846.55 677.009 2824.72 663.22 2815.21 641.425L2801.23 609.352C2796.81 599.212 2789.65 590.585 2780.45 584.443C2680.54 517.737 2499.23 400.659 2474.67 400.659M2653.7 1220.65C2657.81 1229.83 2691.58 1293.47 2687.69 1342.83C2685.05 1376.24 2680.37 1446.08 2677.42 1491.18C2676.5 1505.24 2682.53 1514.31 2696.25 1511.08C2703.94 1509.27 2714.25 1506.55 2727.95 1502.6C2774.71 1489.09 2772.95 1471.35 2766.22 1464.18M2349.84 2045.16C2314.68 2066.98 2236.74 2112.07 2206.2 2117.89C2177.98 2123.26 2129.88 2131.29 2080.77 2112.59M2349.84 2045.16L2400.74 2048.8M2349.84 2045.16L2388.75 2032.08C2398.8 2028.7 2407.16 2040.36 2400.74 2048.8V2048.8M2080.77 2112.59C2070.33 2108.62 2059.84 2103.43 2049.49 2096.76C2037.15 2088.8 2020.91 2088.24 2009.49 2097.45V2097.45C1995.49 2108.75 1974.78 2105.43 1965.01 2090.32L1924.8 2028.13C1915.07 2013.08 1912.99 1994.34 1919.18 1977.52V1977.52C1925.95 1959.17 1941.66 1945.57 1960.8 1941.51L1962.59 1941.13M2080.77 2112.59L2082.79 2118.85C2088.71 2137.19 2103.36 2151.4 2121.88 2156.75L2152.81 2165.7C2163.91 2168.9 2175.71 2168.72 2186.7 2165.18L2286.21 2133.13C2292.62 2131.07 2298.62 2127.9 2303.94 2123.78L2400.74 2048.8M2400.74 2048.8L2448.1 2069.76C2449.52 2070.39 2451.09 2069.22 2450.89 2067.68L2439.36 1977.18M1962.59 1941.13C1964.23 1929.95 1963.57 1904.65 1947.8 1892.82C1932.02 1880.99 1948.68 1832.18 1958.99 1809.26C1968.6 1789.12 1983.7 1741.44 1967.22 1711.79C1950.75 1682.14 1945.1 1643.12 1944.33 1627.32M1962.59 1941.13C1970.15 1969.52 1999.8 2026.51 2057.96 2027.36C2116.11 2028.22 2146.33 1973.56 2154.16 1946.12C2155.25 1943.54 2156.64 1940.64 2158.31 1937.61M1944.33 1627.32C1955.17 1601.02 1965.85 1545.13 1921.92 1531.95C1893.72 1523.49 1870.79 1521.37 1855.33 1521.66C1843.18 1521.89 1832.79 1528.89 1824.54 1537.81C1799.12 1565.31 1756.64 1602 1724.24 1599.22M1724.24 1599.22C1676.19 1595.1 1581.47 1525.09 1581.47 1525.09M1724.24 1599.22L1698.38 1595.83C1668.76 1591.95 1641.3 1611.96 1635.93 1641.34V1641.34M1581.47 1525.09C1581.47 1525.09 1611.31 1616.23 1592.96 1648.41M1581.47 1525.09C1569.73 1511.43 1552.67 1483.5 1548.88 1452.25M1592.96 1648.41C1595.19 1648 1597.47 1647.58 1599.81 1647.17M1635.93 1641.34C1622.89 1643.28 1610.73 1645.23 1599.81 1647.17M1635.93 1641.34C1647.25 1639.66 1659.23 1637.98 1671.64 1636.33M2064.36 1648.06C2084.62 1677.24 2113.07 1714.28 2128.28 1716.37C2145.26 1718.71 2214.17 1722.32 2288.83 1711.44M2064.36 1648.06L2079.19 1635.38M2079.19 1635.38V1635.38C2073.89 1630.33 2078.39 1621.48 2085.59 1622.78L2099.02 1625.21C2103.83 1626.08 2107.56 1629.92 2108.3 1634.75L2112.53 1662.34C2113.56 1669.09 2108.49 1675.25 2101.66 1675.53V1675.53C2096.6 1675.74 2092 1672.6 2090.35 1667.8L2079.19 1635.38ZM2142.43 1497.63L2263.84 1516.65C2269.86 1517.59 2275.99 1517.58 2282.01 1516.61L2400.29 1497.63M2142.43 1497.63C2179.64 1399.12 2364.8 1383.16 2487.19 1388.61C2510.27 1389.64 2522.74 1415.11 2510.44 1434.67V1434.67C2505.42 1442.67 2497.04 1447.96 2487.66 1449.06L2467.41 1451.44C2455.45 1452.85 2444.24 1457.94 2435.31 1466L2400.29 1497.63M1455.19 1141.13C1453.04 947.961 1446.6 877.134 1541.04 671.091C1554.89 640.868 1570.96 610.09 1589.19 579.714M1455.19 1141.13L1418.82 1019.48C1414.48 1004.98 1395.82 1001.02 1385.97 1012.51V1012.51C1375.05 1025.25 1354.19 1018.77 1352.42 1002.09L1343.83 921.359C1343.12 914.684 1343.65 907.935 1345.41 901.456L1383.77 760C1386.97 748.225 1393.79 737.757 1403.28 730.085L1589.19 579.714M1455.19 1141.13C1456.43 1253.29 1499.66 1303.22 1530.22 1337.14M2474.67 400.659C2449.63 374.904 2342.89 314.378 2116.24 278.321C1874.49 239.86 1695.25 403.003 1589.19 579.714M1530.22 1337.14C1552.29 1361.63 1567.76 1377.77 1556.06 1402.97C1548.49 1419.28 1546.93 1436.2 1548.88 1452.25M1530.22 1337.14L1520.36 1450.04M1520.36 1450.04L1534.62 1451.14M1520.36 1450.04L1506.44 1574.02C1505.97 1578.18 1511.02 1580.58 1513.95 1577.6V1577.6M1548.88 1452.25L1534.62 1451.14M1534.62 1451.14L1540.62 1574.67C1540.84 1579.26 1535.23 1581.65 1532.08 1578.29V1578.29M1513.95 1577.6V1577.6C1518.83 1572.63 1526.85 1572.72 1531.61 1577.8L1532.08 1578.29M1513.95 1577.6L1512.15 1608.39M1512.15 1608.39L1529.54 1610.44M1512.15 1608.39L1493.86 1684.3M1529.54 1610.44L1532.08 1578.29M1493.86 1684.3L1483.76 1689.91C1468.18 1698.57 1470.09 1721.57 1486.89 1727.53V1727.53M1493.86 1684.3L1538.16 1686.27M1486.89 1727.53L1534.3 1731.71M1486.89 1727.53L1485.78 1737.8M1534.3 1731.71L1526.95 1817.5C1526.37 1824.23 1520.83 1829.46 1514.07 1829.65V1829.65M1599.81 1647.17C1594.06 1655.05 1585.11 1673.36 1595.3 1683.54C1605.48 1693.73 1650.4 1765.18 1671.58 1799.64M1974.33 1290.5C1973.59 1347.07 1983.55 1464.93 2029.41 1483.81C2075.26 1502.7 2106.96 1502.17 2117.07 1499.55M1928.25 1371.42L1946.24 1460.21C1951.11 1486.81 1973.44 1537.76 2023.79 1528.77M1846.21 1261.28C1846.96 1296.12 1849.8 1365.8 1855.2 1365.8C1861.94 1365.8 1868.69 1372.55 1869.81 1382.66C1870.93 1392.78 1861.94 1464.71 1884.42 1484.94M2605.34 667.081C2621.9 677.273 2661.14 719.823 2685.6 808.492C2710.06 897.161 2716.18 947.355 2716.18 961.369M2675.41 632.683C2692.4 659.862 2730.44 726.703 2746.75 776.643C2763.06 826.582 2768.83 867.944 2769.68 882.382M2764.59 690.012C2788.55 715.122 2837.64 772.443 2842.3 800.848M2211.89 1907.64C2187.76 1897.4 2168.17 1919.77 2158.31 1937.61M2211.89 1907.64C2240.11 1919.61 2187.93 1932.61 2158.31 1937.61M2211.89 1907.64C2226.85 1905.86 2255.5 1888.61 2250.37 1833.88C2249.73 1826.99 2249.05 1820.86 2248.36 1815.4C2245.02 1789.11 2245.68 1790.54 2261.85 1811.53C2303.08 1865.06 2367.17 1935.25 2423.06 1957.48C2431.54 1960.86 2438.2 1968.12 2439.36 1977.18V1977.18M1514.07 1829.65C1536.2 1880.54 1592.73 1994.19 1641.86 2041.71C1703.26 2101.1 1788.28 2223.44 2060.86 2244.82M1514.07 1829.65L1485.83 1830.43M2060.86 2244.82C2067.93 2251.54 2076.83 2258.06 2085.98 2263.9M2085.98 2263.9C2094.91 2269.61 2104.08 2274.68 2112.01 2278.67C2118.65 2282.02 2124.78 2286.36 2130.15 2291.51C2199.13 2357.58 2267.45 2349.99 2318.24 2344.24C2341.87 2341.56 2365.7 2322.91 2386.78 2303.58M2085.98 2263.9L1927.79 2246.79C1868.51 2233.04 1775.15 2203.14 1716.1 2151.54C1647.93 2091.96 1543.58 1993.83 1485.83 1830.43M1485.83 1830.43V1830.43C1480.49 1830.58 1476.25 1825.99 1476.82 1820.68L1485.78 1737.8M1485.78 1737.8C1473.89 1735.32 1447.53 1737.72 1437.23 1767.15C1424.35 1803.94 1437.23 1807.62 1429.87 1844.41C1422.51 1881.2 1394 1853.61 1385.72 1905.11C1377.45 1956.62 1379.29 2158.04 1371.93 2174.59C1364.57 2191.15 1336.98 2254.61 1340.66 2277.6C1344.34 2300.59 1341.43 2387.89 1324.13 2426.34C1310.52 2456.59 1242.5 2723.54 1208.55 2859.77C1207.41 2864.35 1206.88 2868.95 1206.79 2873.67C1206.73 2877.39 1206.61 2881.64 1206.42 2886.06M1147.3 3041.55C1143 3086.71 1142.58 3253.18 1142.55 3302.37C1142.55 3310.04 1148.68 3316.17 1156.35 3315.98C1195.11 3315.06 1303.46 3308.93 1322.46 3269.35M1147.3 3041.55C1149.41 3019.43 1155.85 3000.11 1163.66 2983.61M1147.3 3041.55C1190.48 3065.19 1281.74 3113.16 1301.33 3115.87C1320.93 3118.57 1472.66 3075.26 1546.07 3053.26M1322.46 3269.35C1320.85 3277.75 1319.59 3286.47 1318.74 3295.53C1318.09 3302.39 1319.01 3309.26 1320.81 3315.91C1327.44 3340.4 1336.59 3383.18 1335.38 3415.78C1333.64 3462.86 1300.51 3502.97 1330.15 3579.7C1336.99 3597.4 1344.14 3617.99 1353.02 3639.64M1688.23 2786.11L1608.84 2519.09C1605.75 2508.69 1599.74 2499.46 1592.05 2491.8C1566.2 2466.02 1530.18 2421.59 1530.18 2386.59M2593.96 2344.82L2479.87 2255.79M2593.96 2344.82C2589.69 2348.78 2585.42 2352.75 2581.16 2356.72M2479.87 2255.79C2466.82 2258.23 2455.09 2259.57 2446.63 2257.65C2434.54 2254.9 2412.75 2279.75 2386.78 2303.58M2581.16 2356.72L2450.89 2352.52C2433.42 2351.95 2417.14 2343.55 2406.57 2329.63L2386.78 2303.58M2695.45 2377.46L2693.57 2639.19M3565.53 3425.57L3469.91 3034.69C3468.92 3030.66 3465.55 3027.66 3461.44 3027.15L3419.78 3021.94M3419.78 3021.94L3286.7 3125.06M3419.78 3021.94L3631.46 1954.49M3184 3203.34C3155.1 3230.56 3085.44 3280.16 3037.91 3260.76C3007.16 3248.2 2985.91 3237.34 2973 3229.82C2963.62 3224.35 2957.25 3215.31 2953.72 3205.05L2928.98 3133.01C2922.2 3113.27 2904.75 3099.14 2884.03 3096.63V3096.63C2880.74 3096.23 2877.81 3098.75 2877.72 3102.07L2869.59 3392.16M2750.35 1721.3C2752.44 1742.16 2749.18 1783.91 2725.15 1812.14C2713.95 1825.3 2702.65 1839.36 2699.27 1856.3C2682.38 1941 2645.93 2078.65 2601.79 2112.68C2577.78 2131.18 2558.7 2142.51 2544.51 2149.16C2527.45 2157.15 2511.17 2145.76 2494.44 2137.13C2486.03 2132.79 2475.57 2130.48 2463.41 2133.18M2322.48 2152.4C2342.12 2150.69 2383.47 2155.47 2391.67 2188.27M2047.77 1736.99C2074.88 1767.01 2127.93 1842.43 2123.29 1904.01M3143.05 1780.16C3160.69 1793.6 3201.47 1816.51 3249.8 1824.58C3264.26 1826.99 3298.15 1857.47 3310.58 1865.23V1865.23C3335.86 1881.04 3430.45 1894.39 3484.04 1900.18C3491.59 1900.99 3498.89 1903.22 3505.65 1906.68C3540.74 1924.66 3602.26 1952.95 3631.46 1954.49M3631.46 1954.49C3663.76 1956.19 3759.68 2023.2 3803.59 2056.49M2288.83 1711.44C2363.49 1734.52 2516.17 1799.89 2529.6 1876.81C2536.11 1914.08 2537.39 1941.62 2536.28 1961.05C2534.98 1983.9 2513.7 1994.11 2491.38 1989.02L2439.36 1977.18M3682.44 4328.67L3812.02 4328.74M1691.86 3860L1661.02 3887.74C1644.5 3902.6 1637.92 3925.6 1644.08 3946.94L1659.29 3999.65M1353.02 3639.64L1511.52 3312.37C1528.47 3277.38 1574.38 3268.64 1602.99 3294.97L1722.66 3405.08M1407.15 2301.24L1419.37 2480.47C1420.22 2492.93 1425.09 2504.72 1432.96 2514.42C1471.14 2561.53 1530.18 2645.06 1533.41 2693.57M1206.42 2886.06C1205.91 2897.9 1204.89 2910.98 1203.02 2918.47C1200.45 2928.73 1179.32 2950.5 1163.66 2983.61M1206.42 2886.06L1374.05 2874.49C1383.97 2873.8 1393.9 2875.68 1402.89 2879.94L1572.58 2960.39M2128.25 3106.55C2078.6 3101.59 2041.1 3056.21 2026.45 3030.81C2025.39 3028.98 2026.59 3026.73 2028.69 3026.5C2054.53 3023.68 2101.16 3019.39 2111.03 3021.64C2124.09 3024.6 2193.57 3113.08 2128.25 3106.55ZM1887.83 1135.13V1135.13C1878.87 1143.24 1878.93 1157.35 1887.96 1165.39V1165.39C1895.95 1172.51 1908.1 1172.22 1915.74 1164.71V1164.71C1923.99 1156.6 1923.81 1143.24 1915.35 1135.35V1135.35C1907.63 1128.14 1895.66 1128.04 1887.83 1135.13ZM2551.09 3017.51L2551.03 3017.58C2549.97 3018.83 2548.07 3018.89 2546.95 3017.7V3017.7C2545.81 3016.5 2545.98 3014.58 2547.32 3013.61L2547.4 3013.55C2548.48 3012.76 2549.98 3012.88 2550.93 3013.82V3013.82C2551.93 3014.82 2552 3016.42 2551.09 3017.51ZM2529.11 3021.37L2529.05 3021.44C2528 3022.69 2526.09 3022.75 2524.97 3021.57V3021.57C2523.83 3020.37 2524.01 3018.44 2525.34 3017.47L2525.42 3017.41C2526.5 3016.62 2528 3016.74 2528.95 3017.69V3017.69C2529.95 3018.69 2530.02 3020.29 2529.11 3021.37ZM2555.68 3042.36V3042.36C2544.36 3050.62 2528.75 3049.6 2518.6 3039.93L2517.87 3039.24C2505.95 3027.88 2505.87 3008.89 2517.69 2997.42V2997.42C2529 2986.45 2547.01 2986.53 2558.23 2997.59L2558.95 2998.3C2571.68 3010.85 2570.12 3031.82 2555.68 3042.36ZM1747.22 4076.48V4076.48C1746.66 4069.91 1751.89 4064.29 1758.48 4064.38L1780.89 4064.68C1787.46 4064.77 1792.57 4070.41 1792.02 4076.95V4076.95C1791.52 4082.95 1786.42 4087.51 1780.4 4087.33L1758 4086.67C1752.34 4086.51 1747.7 4082.12 1747.22 4076.48Z" stroke="#4B5563" stroke-opacity="0.75" stroke-width="15" stroke-miterlimit="16" stroke-linecap="round" stroke-linejoin="round"/>
</svg>
