<svg width="4763" height="4763" viewBox="0 0 4763 4763" fill="none" xmlns="http://www.w3.org/2000/svg">
<path d="M1674.52 664.684L1717.59 665.833M1778.72 667.463L1779.35 677.37C1780.21 690.756 1771.89 703.021 1759.14 707.179V707.179C1752.5 709.345 1745.3 709.073 1738.84 706.414L1737.43 705.832C1723.29 700.012 1714.89 685.367 1716.99 670.225L1717.59 665.833M1778.72 667.463L1717.59 665.833M1778.72 667.463C1785.41 657.653 1786.82 649.934 1785.88 644.273C1784.43 635.64 1774.37 633.111 1765.64 632.487C1741.57 630.766 1708.79 628.481 1705.5 628.481M1832.21 712.618C1832.21 710.757 1835.75 695.69 1839.27 681.214M1844.02 661.905L1901.03 653.066C1917.08 650.578 1930.85 664.536 1928.15 680.547V680.547C1926.13 692.485 1915.48 701.007 1903.39 700.35L1877.38 698.937C1866.52 698.347 1856.11 694.43 1847.55 687.717L1839.27 681.214M1844.02 661.905C1842.73 667.1 1841 674.086 1839.27 681.214M1844.02 661.905C1843.47 652.417 1843.36 633.242 1847.33 632.448C1851.3 631.655 1894.77 622.186 1916.01 617.551M1888.49 830.025L1885.36 808.141M1702.3 817.52C1701.86 796.028 1726.93 777.002 1746.86 766.179C1753.85 762.384 1762.28 766.043 1765.08 773.491L1766.62 777.606C1769.4 785.028 1778.84 787.232 1784.62 781.811V781.811C1789.8 776.958 1798.14 778.134 1801.77 784.23L1803.98 787.935C1809.02 796.398 1820.83 797.53 1827.39 790.178L1834.05 782.702C1835.86 780.676 1838.76 780.032 1841.25 781.101V781.101C1845.8 783.049 1850.72 779.251 1849.99 774.36L1849.52 771.265C1848.33 763.29 1858.29 758.696 1863.58 764.784L1879.32 782.909C1881.22 785.095 1882.45 787.783 1882.86 790.65L1885.36 808.141M1766.91 843.224C1777.8 846.466 1807.34 851.144 1838.47 843.919M1775.25 884.212C1793.54 886.991 1832.91 889.353 1844.02 876.57M1716.89 830.719L1738.43 836.277M1877.37 832.803V832.803C1867.76 834.94 1862.6 845.444 1866.8 854.354L1870.83 862.902C1871.49 864.3 1872.29 865.628 1873.21 866.864V866.864C1880.02 875.939 1879.12 888.638 1871.1 896.659L1866.4 901.356C1860.29 907.469 1857.06 915.891 1857.53 924.524L1858.21 937.217M1585.5 708.465L1582.73 711.244C1577.75 716.224 1579.16 724.626 1585.49 727.703L1587.48 728.666C1590.77 730.265 1594.74 729.287 1596.91 726.339V726.339C1599.39 722.968 1598.68 718.223 1595.31 715.731L1585.5 708.465ZM1585.5 708.465C1586.09 691.981 1579.97 660.66 1550.77 667.254C1547.55 667.981 1545.05 669.612 1543.16 671.991M1610.82 803.841C1612.32 808.057 1613.84 816.383 1611.8 824.39M1543.16 671.991C1527.96 691.193 1553.2 759.15 1569.61 794.421C1578.44 811.887 1598.23 844.346 1606.7 834.455C1609.31 831.419 1610.9 827.936 1611.8 824.39M1543.16 671.991C1541.04 669.613 1528.18 643.267 1517.86 621.731C1515.39 616.564 1521.05 611.325 1526.02 614.168V614.168C1530.66 616.815 1536.13 612.395 1534.51 607.309L1518.07 555.506C1515.73 548.153 1523.81 541.867 1530.36 545.935V545.935C1537.15 550.146 1545.39 543.293 1542.48 535.856L1532.2 509.529C1529.35 502.237 1538.91 496.578 1543.93 502.583V502.583C1546.54 505.695 1551.25 505.905 1554.12 503.036L1557.57 499.584C1561.03 496.122 1561.86 490.78 1559.67 486.401V486.401C1554.48 476.006 1565.97 465.04 1576.15 470.654V470.654C1580.19 472.883 1585.21 472.621 1588.96 469.932L1602.96 459.887C1608.52 455.896 1608.15 447.502 1602.25 444.025V444.025C1594.22 439.296 1597.12 427.04 1606.41 426.408L1642.06 423.986C1645.58 423.747 1648.98 422.604 1651.93 420.668L1660.94 414.755C1666.65 411.008 1673.25 408.844 1680.07 408.485L1692.11 407.851C1702.25 407.318 1710.8 400.106 1713.02 390.202V390.202C1714.59 383.251 1719.29 377.322 1726.02 374.985C1734.88 371.909 1744.53 369.749 1746.08 373.603V373.603C1748.61 379.943 1758.27 381.184 1760.47 374.719L1761.78 370.848C1762.78 367.926 1765.52 365.961 1768.6 365.961L1793.4 365.961C1801.73 365.961 1809.21 371.062 1812.25 378.816L1823.54 407.626C1825.09 411.59 1830.53 412.032 1832.7 408.371V408.371C1835.21 404.141 1841.66 405.549 1842.18 410.442L1843.27 420.669C1843.71 424.787 1847.05 427.974 1851.14 428.577C1869.95 431.344 1900.96 440.799 1915.58 463.22V463.22C1928.66 483.274 1958.42 465.257 1982.14 462.044L2002.25 459.321C2006.75 458.712 2011.28 460.177 2014.58 463.304V463.304C2019.66 468.129 2020.71 475.864 2016.05 481.092C2007.73 490.418 1996.1 500.033 1986.25 509.39C1981.81 513.612 1985.88 518.562 1991.28 515.67V515.67C1997.13 512.539 2002.94 519.885 1998.55 524.856L1994.47 529.464C1990.03 534.485 1995.14 542.135 2001.48 539.961V539.961C2007.94 537.746 2013.03 545.69 2008.32 550.637L2000.92 558.413C1996.17 563.397 2000.77 571.509 2007.49 569.989V569.989C2013.22 568.691 2017.88 574.653 2015.23 579.902L1989.21 631.473C1985.44 638.959 1986.55 647.985 1992.03 654.331V654.331C1994.73 657.457 1996.45 661.304 1996.85 665.414C1999.31 690.454 2000.81 733.173 1990.61 743.882C1982.69 752.204 1978.06 760.313 1975.72 765.794C1974.28 769.151 1973.89 772.813 1973.8 776.462L1972.98 807.473C1972.73 816.919 1967.23 825.167 1957.86 823.928V823.928C1946.4 822.413 1934.81 830.36 1932.35 841.655C1931.52 845.491 1930.47 849.488 1929.17 853.547M1689.8 891.16C1694.92 910.816 1717.24 922.362 1736.92 928.256C1750.6 932.351 1763.44 939.737 1776.31 945.914C1788.41 951.723 1801.73 953.676 1811.41 953.897C1816.47 954.012 1821.57 954.429 1826.61 953.988C1837.88 953.003 1848.89 945.922 1858.21 937.217M1611.8 824.39L1637.96 848.075M1648.7 857.794L1637.96 848.075M1648.7 857.794C1652.02 895.808 1693.87 983.635 1749.87 1049.08M1648.7 857.794L1635.41 928.655C1633.39 939.41 1634.46 950.516 1638.49 960.69L1676.77 1057.39M1637.96 848.075C1621.49 863.672 1592.75 894.446 1575.93 922.589M1676.77 1057.39L1658.1 1057.02C1644.95 1056.75 1632.1 1060.97 1621.66 1068.97L1596.07 1088.58M1676.77 1057.39L1693.36 1066.35C1713.2 1077.05 1725.04 1098.29 1723.72 1120.79L1721.54 1157.82C1720.82 1170.08 1724 1182.25 1730.64 1192.57L1791.47 1287.27C1793.53 1290.48 1798.27 1290.29 1800.08 1286.94L1847.78 1198.35M1929.17 853.547C1923.82 870.25 1914.27 888.013 1898.34 900.038C1887.62 908.13 1876.72 916.508 1868.07 926.783C1865.08 930.332 1861.77 933.893 1858.21 937.217M1929.17 853.547L1930.16 935.761M1930.16 935.761L1883.03 1083.12C1874.62 1109.42 1848.07 1126.52 1823.91 1113.15C1808.63 1104.7 1793.6 1093.25 1779.14 1079.8M1930.16 935.761C1964.05 923.926 2015.84 942.944 2046.62 958.404C2055.26 962.743 2062.16 969.768 2067.05 978.105V978.105M1749.87 1049.08C1749.87 1049.08 1728.22 1085.46 1749.28 1080.78C1770.33 1076.1 1779.14 1079.8 1779.14 1079.8M1749.87 1049.08C1759.27 1060.07 1769.06 1070.42 1779.14 1079.8M1779.14 1079.8L1837.5 1134.82C1854.91 1151.24 1859.12 1177.29 1847.78 1198.35V1198.35M1847.78 1198.35L1850.42 1292.16C1850.53 1296.07 1854.29 1298.83 1858.03 1297.68C1869.85 1294.05 1885.68 1288.64 1900.1 1282.48M1794.05 463.776C1806.67 460.562 1832.12 449.345 1832.93 430.193M1756.93 437.263L1759.58 407.216M1916.01 617.551L1913.72 585.951C1912.38 567.487 1902.31 550.771 1886.61 540.959L1875.54 534.042C1866.97 528.682 1860.99 520.007 1859.05 510.083V510.083C1855.69 492.936 1840.66 480.568 1823.18 480.568H1769.44C1763.25 480.568 1757.98 476.075 1756.99 469.966V469.966C1755.6 461.257 1745.91 456.644 1738.27 461.046L1730.87 465.303C1725.65 468.309 1718.98 466.443 1716.08 461.165V461.165C1713.05 455.658 1705.96 453.91 1700.72 457.377L1648.96 491.605M1916.01 617.551L1919.01 619.693C1929.11 626.912 1936.64 637.183 1940.47 648.997L1941.65 652.654C1943.98 659.82 1944.88 667.371 1944.32 674.884L1940.47 726.158C1940.07 731.499 1938.93 736.758 1937.09 741.787L1927.51 767.918C1922.93 780.414 1914.19 790.953 1902.76 797.769L1885.36 808.141M1587.47 664.188V635.664C1587.47 627.713 1596.48 623.114 1602.92 627.781V627.781C1610.55 633.315 1620.81 625.855 1617.89 616.889L1614.25 605.668L1605.61 575.045C1604.27 570.297 1606.3 565.242 1610.55 562.741V562.741C1615.83 559.636 1617.5 552.782 1614.23 547.599L1603.33 530.288M2067.05 978.105L2080.95 1001.77C2085.86 1010.13 2088.61 1019.57 2088.87 1029.26C2089.84 1064.78 2090.83 1120.75 2089.21 1142.37C2087.37 1167 2058.29 1189.69 2029.63 1197.37M2067.05 978.105C2081.65 976.219 2120.45 980.559 2158.94 1013.01C2193.55 1042.19 2218.04 1095.42 2228.57 1125.52C2230.59 1131.28 2234.92 1135.98 2240.63 1138.15V1138.15C2247.28 1140.68 2252.04 1146.61 2253.1 1153.64L2261.38 1208.85C2262.26 1214.73 2264.04 1220.44 2266.66 1225.77L2353.5 1402.93C2355.84 1407.69 2357.09 1412.92 2357.17 1418.22L2357.77 1457.6C2357.87 1464.64 2365.12 1469.3 2371.57 1466.47V1466.47C2380.02 1462.76 2388.46 1471.63 2384.24 1479.85C2343.74 1558.8 2276.35 1684.86 2255.13 1704.15C2231.55 1725.59 2227.44 1784.54 2228.33 1811.34L2228.04 1824.32C2227.43 1851.86 2207.45 1874.97 2180.95 1882.51C2148.24 1891.82 2110.76 1905.8 2083.75 1924.12M1575.93 922.589C1569.07 934.055 1564.2 945.084 1562.93 954.473C1560.83 970.098 1559 999.498 1557.56 1030.45M1575.93 922.589C1541.28 933.536 1488.86 951.318 1437.99 970.933M1030.16 1621.42C1023.39 1628.81 1004.3 1636.57 982.131 1608.49C969.313 1592.26 947.642 1574.83 927.476 1560.63M1074.49 1625.12C1086.81 1620.81 1117.71 1616.25 1142.84 1632.51C1146.9 1635.13 1150.53 1637.93 1153.77 1640.8M1244.43 1133.77C1330.2 1200.95 1337.61 1437.2 1330.2 1557.89C1329.72 1565.7 1327.55 1573.28 1323.96 1580.23L1320.71 1586.52M1322.01 1074.66C1384.82 1245.83 1485.3 1636.57 1384.82 1830.15M1437.99 970.933C1382.42 992.361 1328.7 1015.98 1302.04 1035.25C1296.73 1039.09 1291.18 1042.59 1285.33 1045.55C1252.02 1062.42 1204.63 1101.67 1154.49 1152.87M1437.99 970.933L1567.69 1601.1C1572.62 1653.44 1579.88 1775.11 1569.54 1843.08M1596.07 1088.58L1562.66 1114.18C1559.32 1116.74 1554.52 1114.3 1554.63 1110.1C1555.23 1088.52 1556.24 1058.83 1557.56 1030.45M1596.07 1088.58C1597.69 1164.6 1609.44 1336.96 1643.42 1418.23C1685.91 1519.83 1715.46 1710.09 1685.91 1811.68M1382.97 1649.13C1443.31 1618.96 1594.29 1567.85 1715.46 1604.8M1390.36 1495.81C1441.65 1471.26 1565.95 1429.59 1691.28 1436.87C1719.31 1438.5 1739.65 1462.66 1740.46 1490.73C1742.56 1563.18 1747.89 1653.87 1758.46 1710.08C1764.43 1741.83 1790.55 1793.99 1783.14 1825.44V1825.44M1360.8 1335.11C1414.89 1307.1 1557.84 1255.34 1696.99 1272.3M1333.1 1191.03C1392.21 1166.4 1533.7 1121.2 1626.8 1137.46M1296.15 1098.67C1353.43 1067.15 1485.89 1009.38 1557.56 1030.45M1154.49 1152.87L1290.61 1364.66M1154.49 1152.87C1127.97 1179.95 1100.68 1210.37 1074.31 1242.6M1074.31 1242.6C1115.01 1310.38 1211.18 1451.11 1270.29 1471.8M1074.31 1242.6C1030.9 1295.62 989.953 1353.53 958.931 1409.45M958.931 1409.45C938.97 1445.43 923.119 1480.58 913.367 1513.09C912.412 1516.27 910.573 1519.12 908.02 1521.25V1521.25C899.184 1528.61 900.366 1542.61 910.025 1548.86C915.52 1552.41 921.43 1556.37 927.476 1560.63M958.931 1409.45C1046.09 1423.46 1225.22 1480.3 1244.43 1595.56M965.507 1525.37C987.057 1447.79 1063.41 1266.76 1196.4 1163.32M1251.82 1229.82C1193.94 1303.71 1077.08 1471.8 1072.64 1553.08M1150.23 1586.33C1169.31 1527.22 1227.44 1389.05 1307.24 1309.25M1205.64 1650.98C1221.38 1618.39 1260.78 1543.22 1292.46 1503.2M1765.34 1298.16L1772.73 1397.91M1759.8 1880.03C1766.15 1870.34 1771.17 1860.49 1775.1 1850.78M1910.91 3393.77L1936.14 3295.14M1936.14 3295.14L1900.24 3914.46C1899.89 3920.52 1900.49 3926.59 1902.02 3932.46L1904.34 3941.34C1908.52 3957.35 1905.66 3974.39 1896.48 3988.16L1888.52 4000.09L1835.93 4079.44M1936.14 3295.14L1943.23 3267.42M1835.93 4079.44L1835.29 4090.45C1834.28 4107.54 1841.53 4124.09 1854.79 4134.93V4134.93C1857.2 4136.91 1859.44 4139.09 1861.48 4141.46L1910.05 4197.99C1920.3 4209.92 1922.31 4226.88 1915.13 4240.87V4240.87C1908.6 4253.61 1895.57 4261.7 1881.26 4261.91L1693.09 4264.67C1680.72 4264.85 1668.6 4261.06 1658.53 4253.87L1618.87 4225.54C1604.96 4215.6 1599.35 4197.61 1605.16 4181.53V4181.53C1608.26 4172.96 1608.18 4163.58 1604.96 4155.06L1602.09 4147.46M1835.93 4079.44L1739.1 4111.4C1728.9 4114.76 1717.98 4115.23 1707.53 4112.75L1673.64 4104.71C1662.93 4102.17 1651.7 4103.05 1641.52 4107.23L1614.79 4118.21C1603.33 4122.91 1597.7 4135.88 1602.09 4147.46V4147.46M1602.09 4147.46L1586.14 4136.53C1576.74 4130.09 1569.45 4121.03 1565.17 4110.47L1541.62 4052.38C1539.22 4046.48 1537.82 4040.22 1537.46 4033.85L1533.5 3963.64L1530.13 3924.29M1530.13 3924.29L1517.25 3951.66C1513.88 3958.82 1512.01 3966.6 1511.76 3974.51L1509.9 4033.34M1530.13 3924.29L1601.55 2698.1M1509.9 4033.34L1498.84 4045.36C1489.3 4055.73 1483.86 4069.22 1483.54 4083.31L1483.08 4103.65C1482.97 4108.48 1482.26 4113.27 1480.96 4117.92L1474.98 4139.36C1471.38 4152.23 1472.35 4165.95 1477.7 4178.2L1483.53 4191.51C1489.47 4205.08 1488.24 4220.72 1480.27 4233.21V4233.21C1472.11 4245.97 1458 4253.7 1442.85 4253.7H1300.92C1269.09 4253.7 1243.21 4228.05 1242.93 4196.22L1242.32 4128.91L1246.93 4064.34C1247.53 4055.93 1253.52 4048.88 1261.72 4046.92V4046.92M1509.9 4033.34L1468.14 4035.29C1463.76 4035.49 1459.38 4035.2 1455.07 4034.41L1386.98 4022.03C1379.07 4020.6 1370.94 4020.82 1363.12 4022.69L1261.72 4046.92M1261.72 4046.92L1238.48 4030.66C1226.5 4022.27 1218.12 4009.66 1215.04 3995.35L1191.73 3887.19C1163.36 3699.56 1118.58 3345.71 1125.64 3183.01M1138.62 3022.49C1137.71 3037.58 1136.55 3063.71 1136.78 3083.44C1136.96 3098.66 1134.34 3114.67 1131.27 3129.58C1128.4 3143.55 1126.57 3161.63 1125.64 3183.01M1125.64 3183.01L1101.53 3026.71C1100.88 3022.5 1100.7 3018.23 1100.99 3013.98L1119.59 2737.01L1147 2365.87L1203.32 1989.76M1203.32 1989.76C1206.67 1975.68 1228.66 1939.47 1289.8 1907.29M1203.32 1989.76C1121.84 1894.62 954.167 1697.81 935.309 1671.7C916.451 1645.59 922.229 1586.77 927.476 1560.63M1289.8 1907.29C1326.02 1922.48 1382.75 1942.22 1443.5 1956.08M1289.8 1907.29C1283.16 1895.87 1275.11 1882.18 1266.35 1867.45M1663.9 1957.57C1646.2 1965.28 1625.62 1969.77 1603.28 1971.74M1603.28 1971.74C1592.03 1972.74 1580.33 1973.09 1568.32 1972.9M1603.28 1971.74C1617.19 1998.68 1654.45 2046.59 1704.41 2053.52M1787.27 2260.67C1868.27 2233.67 1861.52 2132.41 1885.15 2112.16V2112.16C1902.77 2097.06 1900.09 2072.61 1880.13 2060.78C1864.21 2051.34 1845.85 2042.18 1829.46 2037.9C1799.44 2030.07 1804.75 2035.36 1772.01 2044.41M2083.75 1924.12C2080.02 1926.65 2076.49 1929.26 2073.2 1931.96C2059.57 1943.12 2064.25 1962.73 2079.12 1972.19V1972.19C2088.28 1978.03 2094.04 1987.95 2094.56 1998.8L2100.85 2130.82M2083.75 1924.12L1817.06 1945.76C1796.52 1947.43 1777.91 1959.76 1772.01 1979.51C1771.26 1982.01 1770.55 1984.56 1769.89 1987.14M1772.01 2044.41C1762.41 2047.06 1749.55 2050.03 1731.57 2053.09C1722.17 2054.69 1713.1 2054.73 1704.41 2053.52M1772.01 2044.41C1762.55 2030.93 1764.49 2008.19 1769.89 1987.14M2100.85 2130.82L2102.58 2167.22C2102.9 2173.95 2104.46 2180.53 2106.59 2186.92C2111.16 2200.62 2116.13 2221.07 2115.98 2240.43M2100.85 2130.82C2090.67 2136.2 2073.8 2145.02 2055.27 2154.67C2030.71 2167.48 2035.75 2105.25 2010.04 2115.53V2115.53C2001.6 2118.91 1935.78 2130.72 1934.09 2169.54C1932.74 2200.59 1846.9 2258.99 1804.14 2284.3M2115.98 2240.43C2115.93 2246.33 2115.41 2252.13 2114.26 2257.61C2107.45 2289.93 2060.33 2328.45 2057.72 2350.55C2057.25 2354.52 2058.58 2358.48 2059.11 2362.45C2059.62 2366.34 2060.13 2370.49 2060.63 2374.86M2115.98 2240.43C2064.35 2249.43 1962.45 2280.92 1967.85 2334.93C1968 2336.43 1968.16 2337.87 1968.33 2339.23C1972.9 2374.87 2033.1 2351.78 2060.63 2374.86V2374.86M2060.63 2374.86C2064.71 2410.89 2067.71 2461.36 2061.96 2494.85C2058.36 2515.85 2051.91 2539.24 2056.63 2560.02V2560.02C2057.73 2564.85 2058.21 2569.8 2058.05 2574.75L2045.93 2950.54C2045.49 2964.07 2038.45 2976.52 2027.08 2983.88V2983.88C2018.36 2989.52 2012.08 2998.25 2009.51 3008.32L1943.23 3267.42M1643.82 2113.85C1642.75 2127.13 1641.25 2143.07 1639.32 2160.61M1591.5 2637.02V2623.07C1591.5 2610.23 1587.24 2597.76 1579.39 2587.6L1577.15 2584.7M1591.5 2637.02V2637.02C1571.65 2630.12 1563.39 2606.53 1574.6 2588.75L1577.15 2584.7M1591.5 2637.02C1591.61 2644.75 1591.44 2653.39 1590.91 2662.72M1577.15 2584.7L1570.76 2576.43C1565.52 2569.65 1561.76 2561.84 1560.45 2553.38C1554.61 2515.73 1553.09 2448.97 1583.06 2405.81C1610.99 2365.59 1630.07 2244.76 1639.32 2160.61M1446.36 2932.36C1553.25 2886.2 1586.2 2746.42 1590.91 2662.72M1208.4 2463.19L1377.65 2684.16C1386.05 2695.12 1390.26 2708.73 1389.52 2722.53L1385.6 2795.66M1350.16 2557.7L1380.95 2622.21C1383.93 2628.46 1389.25 2633.28 1395.75 2635.65V2635.65C1415.4 2642.79 1435.09 2625.04 1430.43 2604.66V2604.66C1428.76 2597.37 1424.08 2591.04 1417.57 2587.36L1388.98 2571.2M1269.16 2353.49V2353.49C1248.09 2344.6 1228.78 2369.22 1242.43 2387.56L1244.21 2389.96C1246.19 2392.62 1248.72 2394.83 1251.62 2396.43L1381.24 2468.11C1387.47 2471.55 1394.28 2473.82 1401.33 2474.8L1451.42 2481.76M1451.42 2481.76L1402.48 2419.31M1451.42 2481.76L1503.45 2526.02C1514.61 2535.52 1510.32 2553.65 1496.1 2557.15V2557.15C1484.28 2560.05 1478.76 2573.56 1485.84 2583.45C1512.06 2620.06 1555.55 2667.48 1590.91 2662.72M1270.84 2221.86C1268.59 2235.36 1268.82 2267.09 1287.72 2285.99C1306.62 2304.89 1446.36 2430 1513.87 2490.19M1267.47 2113.85C1286.59 2135.79 1340.37 2173.25 1402.48 2147.6M1520.62 2105.41L1590.6 2124.25C1600.62 2126.95 1611.01 2121.45 1614.42 2111.65V2111.65C1618.36 2100.32 1611.39 2088.12 1599.62 2085.77L1495.3 2064.9M1639.32 2160.61L1650.55 2178.69C1660.11 2194.1 1683.24 2191.67 1689.38 2174.6V2174.6M1736.64 2078.41L1713.01 2132.41M1819.33 2140.85L1753.51 2208.36M1657.32 2324.8C1652.38 2350.04 1636.01 2401.91 1610.06 2407.5M2037.59 2492.89C2026.39 2517.69 1989.11 2567.05 1929.58 2566.09C1875.69 2565.22 1770.52 2548.55 1711.32 2537.98C1708.98 2537.56 1708.04 2540.71 1710.23 2541.62C1736.31 2552.33 1778.01 2568.06 1821.88 2581C1838.44 2585.88 1844.22 2606.94 1831.97 2619.1V2619.1C1818.6 2632.38 1826.93 2655.23 1845.71 2656.77L1850.42 2657.16C1855.01 2657.54 1859.61 2656.61 1863.69 2654.46L1994.65 2585.7C2008.42 2578.46 2025.72 2575.58 2037.58 2585.65C2046.48 2593.21 2050.34 2603.55 2036.4 2615.45C2026.67 2623.77 2014.16 2633.69 2001.63 2643.34C1979.65 2660.27 1980.02 2693.92 2002.82 2709.72V2709.72C2020.31 2721.83 2025.33 2745.47 2014.29 2763.66L1953.86 2863.13C1939.01 2887.58 1957.08 2942.35 1978.79 2923.73V2923.73C1980.41 2922.35 1985.7 2916.58 1991.85 2909.7C2000.21 2900.36 2015.71 2904.32 2018.41 2916.57V2916.57C2019.33 2920.74 2018.47 2925.1 2016 2928.59C1970.49 2993.01 1881.34 3111.21 1859.89 3108.83C1839.8 3106.59 1855.12 3118.42 1867.89 3126.26C1870.26 3127.72 1873 3128.44 1875.79 3128.44V3128.44C1890.13 3128.44 1897.09 3145.97 1886.66 3155.81L1876.91 3165.01C1873.81 3167.94 1871.66 3171.73 1870.75 3175.89L1832.37 3351.18C1831.51 3355.1 1836.78 3357.23 1838.89 3353.81L1900.61 3253.6C1913.28 3233.03 1945.03 3243.33 1943.23 3267.42V3267.42M1900.1 1282.48C1913.68 1276.69 1926 1270.23 1932.5 1264C1951.21 1246.07 1973.82 1198.51 2007.35 1200.07C2014.4 1200.4 2022 1199.42 2029.63 1197.37M1900.1 1282.48C1885.38 1375.15 1848.39 1573.76 1818.13 1626.92M2029.63 1197.37C2007.18 1345.32 1959 1647.37 1945.92 1671.9M1836.53 1346.8C1863.45 1374.4 1944.28 1429.2 2052.24 1427.57M1803.81 1486.86C1827.33 1514.81 1902.57 1566.19 2015.44 1548.2M2077.08 1476.9L2146.64 1624.5M1437.84 1839.92C1424.95 1865.07 1408.04 1923.51 1443.5 1956.08M1443.5 1956.08C1484.98 1965.54 1528.34 1972.26 1568.32 1972.9M1541.96 1895.45C1539.17 1909.14 1540.54 1943.79 1568.32 1972.9M1704.41 2053.52C1694.22 2023.51 1681.06 1963.2 1709.94 1962.09C1738.81 1960.98 1761.93 1978.33 1769.89 1987.14M2252.3 1279.48C2262.07 1318.53 2279.25 1416.53 2269.87 1496.19C2258.16 1595.75 2223.03 1596.83 2226.92 1681.65M2224.97 1289.25C2199.59 1340.01 2151.96 1464.56 2164.45 1556.71M1320.71 1586.52L1313.96 1736.68C1313.68 1742.97 1307.2 1747.03 1301.42 1744.55L1269.59 1730.91M1320.71 1586.52L1250.34 1722.67M1250.34 1722.67V1722.67C1247.29 1728.57 1239.59 1730.2 1234.41 1726.03L1195.98 1695.07C1184.39 1685.74 1177.2 1671.81 1169.36 1659.17C1165.65 1653.2 1160.57 1646.82 1153.77 1640.8M1250.34 1722.67L1269.59 1730.91M1153.77 1640.8C1153.78 1663.79 1157.07 1711.78 1170.13 1719.75C1180.66 1726.19 1229.7 1805.84 1266.35 1867.45M1084.9 1817.67C1122.68 1853.33 1198.78 1928.46 1200.95 1943.69M1269.59 1730.91L1266.35 1867.45M1357.17 1788.11C1435.07 1763.11 1620.35 1721.03 1738.31 1752.76M1783.14 1825.44L1849.07 1862.26C1855.2 1865.69 1857.7 1873.22 1854.83 1879.62V1879.62C1851.54 1886.95 1842.64 1889.82 1835.7 1885.81L1775.1 1850.78M1783.14 1825.44C1781.21 1833.64 1778.58 1842.15 1775.1 1850.78M1946.97 964.944C1954.29 970.573 1969.6 989.596 1972.3 1020.66C1975 1051.73 1979.05 1098.9 1980.74 1118.6M1926.51 515.846L1934.14 573.134C1936.11 587.868 1943.65 601.285 1955.22 610.616L1970.37 622.828M1507.25 1892.67C1527.32 1885.98 1686.66 1912.82 1706.88 1916.02C1708.02 1916.2 1709.13 1916.16 1710.27 1915.93V1915.93C1720.18 1913.95 1721.52 1900.35 1712.17 1896.51C1671.63 1879.85 1618.86 1858.44 1601.65 1852.41C1585.5 1846.76 1550.76 1853.98 1523.04 1861.9C1505.9 1866.79 1484.2 1894.17 1502.01 1893.71C1503.5 1893.67 1505.24 1893.34 1507.25 1892.67ZM2126.28 1727.32C2125.45 1727.48 2124.27 1726.25 2122.86 1723.97C2111.66 1705.93 2083.84 1705.63 2077.74 1725.97C2076.82 1729.04 2075.95 1731.94 2075.13 1734.62C2072.51 1743.27 2078.24 1752.62 2087.18 1754V1754C2094.88 1755.18 2100.2 1762.32 2099.13 1770.03C2092.72 1816.19 2082.38 1890.48 2080.65 1902.62C2079.13 1913.22 2120.86 1891.65 2155.25 1871.85C2171.14 1862.7 2181.28 1846.23 2182.94 1827.97L2187.99 1772.47C2191.01 1739.29 2158.95 1720.78 2126.28 1727.32V1727.32ZM2186.63 1126.06L2154.16 1309.21C2151.26 1325.53 2127.95 1325.76 2124.64 1309.53V1309.53C2122.15 1297.27 2106.61 1293.27 2098.53 1302.82V1302.82C2088.08 1315.18 2068.17 1304.45 2072.74 1288.92L2109.93 1162.47C2111.62 1156.71 2114.51 1151.37 2118.41 1146.79L2150.56 1109.05C2155.36 1103.41 2162.81 1100.78 2170.09 1102.14V1102.14C2181.23 1104.23 2188.61 1114.9 2186.63 1126.06ZM1933.15 1800.02L2023.99 1824.47C2033.69 1827.08 2043.99 1823.47 2049.93 1815.37V1815.37C2060.77 1800.59 2051.97 1779.58 2033.83 1776.93L2009.22 1773.34C2003.27 1772.47 1997.6 1770.25 1992.65 1766.85L1959.1 1743.81C1931.72 1725 1897.69 1756.04 1913.91 1785.03V1785.03C1918.05 1792.41 1924.98 1797.82 1933.15 1800.02ZM1687.04 2412.4C1689.49 2411.22 1691.89 2410.01 1694.23 2408.76C1697.7 2406.9 1701.62 2406 1705.54 2406.35L1706.6 2406.44C1728.21 2408.36 1734.71 2436.83 1716.07 2447.94L1701.99 2456.32C1698.23 2458.57 1693.75 2459.31 1689.46 2458.41V2458.41C1670.61 2454.44 1669.69 2420.76 1687.04 2412.4ZM1859.87 2305.83L1765.61 2310.92C1761 2311.17 1756.52 2312.59 1752.61 2315.04V2315.04C1729.47 2329.56 1739.76 2365.31 1767.08 2365.31H1807.15C1810.75 2365.31 1814.34 2364.81 1817.8 2363.82L1867.23 2349.69C1876.84 2346.95 1883.46 2338.17 1883.46 2328.17V2328.17C1883.46 2315.34 1872.69 2305.13 1859.87 2305.83ZM1766.55 1487.19V1487.19C1770.18 1487.92 1772.84 1491.02 1772.99 1494.71L1774.2 1523.72C1774.39 1528.38 1770.25 1532.03 1765.66 1531.25V1531.25C1762.38 1530.69 1759.88 1528 1759.58 1524.68L1757 1495.76C1756.53 1490.43 1761.31 1486.14 1766.55 1487.19ZM1786.87 1718.08L1785.97 1718.93C1782.33 1722.3 1782.33 1728.05 1785.95 1731.43V1731.43C1789.49 1734.74 1795.07 1734.44 1798.24 1730.78L1799.05 1729.84C1802.49 1725.87 1801.52 1719.76 1797.03 1717.04V1717.04C1793.79 1715.08 1789.65 1715.51 1786.87 1718.08ZM1652.21 767.673L1654.85 771.466C1657.45 775.206 1658.64 779.748 1658.19 784.282V784.282C1656.75 799.104 1639.7 806.695 1627.71 797.851L1624 795.106C1617.5 790.308 1614.53 782.062 1616.49 774.224V774.224C1620.65 757.609 1642.43 753.614 1652.21 767.673ZM1640.31 526.882L1639.35 507.788C1639.17 504.114 1636.49 501.046 1632.88 500.368V500.368C1627.89 499.433 1623.31 503.346 1623.46 508.419L1624.02 527.529C1624.11 530.46 1625.77 533.119 1628.36 534.491V534.491C1633.94 537.449 1640.63 533.196 1640.31 526.882Z" stroke="#4B5563" stroke-opacity="0.75" stroke-width="15" stroke-linecap="round" stroke-linejoin="round"/>
<path d="M2387.33 1472.4C2418.16 1387.5 2488.4 1208.85 2522.72 1173.46C2555.54 1139.62 2631.84 1104.71 2670.49 1089.61C2673.86 1088.29 2677.08 1086.74 2680.14 1084.81C2721.61 1058.7 2796.8 1001.64 2798.86 960.321M2798.86 960.321L2803.67 964.686C2818.95 978.581 2824.32 999.814 2826.81 1020.32C2828.22 1031.94 2832.07 1043.35 2840.24 1050.84C2845.76 1055.9 2852.58 1059.51 2857.97 1064.71L2923.53 1127.88M2798.86 960.321C2692.34 894.492 2729.94 776.882 2730.87 770.031M3005.11 1079.42C3008.47 1079.42 3027.07 1110.54 3043.02 1138.53C3052.54 1155.24 3070.89 1165.06 3090 1162.9V1162.9M3255.81 1050.83L3260.54 1068.38C3261.54 1072.13 3258.88 1075.86 3255.01 1076.13V1076.13C3244.12 1076.88 3236.18 1086.77 3235.98 1097.69C3235.74 1111.02 3233.44 1126.09 3226.26 1134.71C3219.63 1142.67 3181.51 1150.37 3140.68 1156.36M3255.81 1050.83L3249.96 1044.49C3246.6 1040.84 3245.84 1035.5 3248.06 1031.07V1031.07C3249.91 1027.35 3253.57 1024.87 3257.7 1024.52L3283.37 1022.32C3283.94 1022.27 3284.35 1021.75 3284.27 1021.19C3281.38 998.755 3279.71 985.86 3276.78 963.129M3255.81 1050.83C3244.5 1051.48 3218.76 1049.53 3206.29 1036.52M3276.78 963.129C3263.75 966.624 3236.75 971.136 3232.93 961.222M3276.78 963.129C3287.47 956.479 3309.45 940.138 3311.89 927.966C3314.32 915.794 3291.6 896.015 3279.94 887.646M3224.59 966.02L3187.06 1014.07C3178.48 1025.05 3174.56 1038.81 3173.03 1052.66C3171.07 1070.3 3165.42 1089.92 3152.06 1095.49C3127.66 1105.65 3085.63 1116.5 3025.31 1074.47M2969.79 1001.7C2956.19 1000.19 2928.26 989.19 2925.36 957.277V957.277C2923.02 931.542 2898.24 898.463 2897.33 872.638L2897.11 866.502C2896.63 852.762 2901.94 838.068 2915.3 834.838C2928.98 831.534 2946.54 834.702 2962.53 856.643M2924.46 881.121C2933.82 876.286 2953.47 874.775 2957.09 907.413M2949.84 922.826C2959.51 927.359 2978.31 941.865 2976.13 963.624M3002.43 820.377L3039 823.106M3184.66 833.976L3175.71 866.556C3173.97 872.914 3179.43 878.928 3185.92 877.808L3198.26 875.681M3184.66 833.976L3206.42 834.883M3184.66 833.976L3039 823.106M3198.26 875.681L3206.42 834.883M3198.26 875.681C3196.39 885.02 3195.04 905.378 3194.76 916.927C3194.65 921.669 3197.27 925.764 3201.97 926.418C3211.26 927.714 3225.42 927.126 3226.36 924.639C3228.44 919.134 3233.31 892.907 3239.06 882.028M3206.42 834.883L3257.12 833.634M3257.12 833.634L3239.06 882.028M3257.12 833.634L3303.52 815.376M3257.12 833.634L3279.94 887.646M3257.12 833.634L3269.29 805.486M3239.06 882.028C3256.86 849.537 3273.73 872.236 3279.94 887.646M3303.52 815.376C3305.8 823.998 3309.3 845.349 3305.04 861.781C3300.78 878.213 3286.53 885.871 3279.94 887.646M3303.52 815.376C3298.78 817.242 3278.72 809.561 3269.29 805.486M3276.89 908.187C3269.79 914.272 3256.35 929.944 3259.4 943.941M3269.29 805.486C3271.06 778.86 3264.42 723.783 3223.64 716.48C3189.2 710.311 3207.7 701.899 3227.41 696.836C3234.43 695.036 3241.38 692.586 3246.82 687.81C3255.04 680.59 3263.25 670.22 3260.16 660.945C3255.78 647.8 3255 606.325 3227.31 593.315C3214.23 587.165 3200.74 598.794 3186.44 600.959C3185.08 601.165 3183.77 601.15 3182.56 600.848C3173.43 598.566 3124.75 537.706 3020.52 547.596C2916.3 557.486 2879.03 581.829 2851.64 603.89M2851.64 603.89C2854.27 594.291 2861.69 580.928 2867.2 568.79C2872.96 556.129 2869.17 541.207 2856.19 536.19C2844.28 531.581 2827.45 530.352 2806.76 539.988C2771.46 556.42 2735.25 607.694 2721.55 631.277C2710.07 657.045 2692.67 714.409 2707.35 751.79C2709.73 757.844 2714.1 762.966 2719.87 765.971C2723.14 767.674 2726.92 769.195 2730.87 770.031M2851.64 603.89L2770.23 687.641C2755.26 703.044 2751.53 725.375 2752.82 746.816C2753.45 757.358 2751.93 766.384 2745.9 768.971C2741.05 771.05 2735.82 771.076 2730.87 770.031M2730.68 737.02C2731.19 699.49 2750.76 613.475 2825.01 569.657M2788.78 866.747C2798.41 880.655 2814.24 960.449 2894.69 987.636M2805.9 832.513C2817.62 868.543 2849.64 943.164 2883.99 953.402M2825.15 770.463C2825.15 808.263 2836.92 890.497 2883.99 917.028M2894.69 761.905C2916.8 785.441 2963.37 836.578 2972.79 852.839M2932.14 747.997L2981.35 805.767M2931.07 715.902C2956.38 728.384 3007.02 760.835 3007.02 790.79M2959.95 714.833C2986.34 721.251 3042.11 740.294 3054.09 765.114M2961.02 689.157C2996.32 699.498 3069.07 727.456 3077.63 756.555M2949.25 659.202C2989.19 670.257 3073.78 700.283 3092.61 731.95M2950.32 606.781C2977.07 609.99 3066.93 661.342 3094.75 701.995M3062.65 628.177C3082.98 636.023 3125.13 660.058 3131.12 693.436M3092.61 591.803C3121.49 608.564 3182.47 651.927 3195.31 691.297M3191.03 616.409C3203.16 619.262 3227.62 629.247 3228.48 646.364M3187.82 632.456C3192.1 637.449 3200.87 651.927 3201.73 669.9M2992.14 851.395V895.914C2992.14 898.73 2995.81 899.82 2997.34 897.461V897.461C2998.82 895.194 3002.34 896.095 3002.54 898.794L3003.48 911.185C3004 918.049 3013.04 920.168 3016.56 914.249L3017.04 913.432C3017.37 912.881 3017.62 912.289 3017.8 911.671L3023.4 891.765L3031.21 871.58L3034.41 860.147C3035.31 856.923 3035.94 853.627 3036.27 850.295L3039 823.106M3241.78 1100.53C3267.46 1112.01 3326.09 1153.29 3355.1 1226.55M3346.04 1183.94C3389.86 1215.97 3476.05 1345.86 3470.25 1609.15M3140.68 1156.36C3121.8 1166.83 3093.27 1196.49 3109.43 1239.2M3140.68 1156.36C3123.56 1158.88 3105.96 1161.09 3090 1162.9M3410.58 1736.26C3426.63 1553.47 3414.21 1437.68 3399.66 1377.65C3393.47 1352.09 3367.48 1339.93 3341.94 1346.2L3313.24 1353.25C3304.75 1355.33 3295.91 1355.47 3287.37 1353.66L3237.5 1343.08C3215.8 1338.48 3193.38 1346.66 3179.73 1364.15L3151.65 1400.15C3150.9 1401.12 3149.28 1400.1 3149.84 1399C3173.84 1352.88 3204.04 1279.42 3167.77 1284.91C3146.08 1288.2 3133.66 1283.48 3126.97 1276.75C3118.27 1267.99 3115.86 1254.29 3110.95 1242.96C3110.4 1241.69 3109.9 1240.44 3109.43 1239.2M3487.01 1635.13L3503.65 1786.91C3504.94 1798.72 3510.02 1809.81 3515.62 1820.28C3523.66 1835.31 3532.88 1859.22 3538.42 1891.85C3542.57 1916.31 3527.4 1939.27 3504.37 1948.49L3484.62 1956.39C3463.41 1964.87 3449.16 1985.01 3448.21 2007.83L3444.97 2085.4M3256.56 2598.83L3258.05 2615.68C3261.02 2649.3 3291.95 2673.3 3325.25 2667.81L3428.51 2650.8M3235.61 2605.81L3228.63 2421.92M3228.64 2401.65C3228.64 2394.27 3227.25 2336.96 3226.2 2295.32C3225.86 2281.76 3234.1 2269.47 3246.78 2264.64V2264.64M3243.76 2217.29C3245.37 2213.26 3247.11 2107.48 3247.79 2055.09M3235.7 2041.99L3254.47 2025.59M3339.47 1951.32L3254.47 2025.59M3254.47 2025.59C3259.75 2020.98 3374.73 1882.81 3377.75 1794.15M3237.71 1980.53L3255.85 1918.07M3243.76 1898.93L3268.94 1859.64M3231.67 1882.81C3261.89 1848.56 3318.31 1766.95 3302.19 1714.56M2364.35 1961.81C2361.27 1961.81 2297.85 1929.9 2257.23 1909.22C2253.05 1907.1 2253.84 1900.92 2258.42 1899.91C2310.23 1888.56 2387 1871.91 2435.19 1861.9M2364.35 1961.81C2353.15 1912.17 2406.92 1874.52 2435.19 1861.9M2364.35 1961.81C2362.73 1977.81 2401 1997.38 2449.09 2014.84M2651.37 1890.87C2699.05 1915.05 2801.08 1963.41 2827.67 1963.41C2860.92 1963.41 2901.22 1959.38 2915.32 1967.44C2929.43 1975.5 2960.66 2012.77 2973.76 2015.8C2986.85 2018.82 3042.26 2043 3048.31 2053.07C3051.77 2058.84 3035.16 2061.85 3018.91 2063.23C3007.24 2064.21 2995.75 2060.68 2985.86 2054.4C2956.79 2035.97 2916.69 2012.4 2913.31 2017.81C2910.81 2021.81 2912.06 2027.05 2914.16 2031.41C2916.41 2036.07 2920.49 2039.46 2924.73 2042.42L2957.03 2064.95C2960.11 2067.1 2963.42 2068.91 2966.88 2070.36L3003.13 2085.46C3007.06 2087.1 3009.14 2091.42 3007.97 2095.52V2095.52M2997.94 2130.65L3007.97 2095.52M3007.97 2095.52L3050.74 2093.77C3054.79 2093.6 3057.33 2098.06 3055.04 2101.4C3041.84 2120.69 3020.21 2149 3009.02 2151.8C2997.14 2154.77 2963.4 2152.82 2933.96 2141.52C2914.88 2134.19 2893.06 2131.8 2872.78 2129.33C2867.33 2128.66 2861.87 2127.21 2856.89 2124.6C2837.01 2114.19 2811.79 2080.65 2778.73 2078.31C2774.44 2078.01 2770.14 2077.9 2765.9 2077.2C2727.69 2070.91 2655.36 2060.12 2627.19 2060.12C2605.32 2060.12 2517.32 2039.61 2449.09 2014.84M2435.19 1861.9C2459.98 1856.76 2477.21 1853.38 2479.61 1853.38C2468.25 1853.66 2478.62 1823.76 2466.79 1822.22C2462.24 1821.63 2459.79 1818.27 2458.57 1814.23C2456.37 1806.9 2452.95 1799.25 2445.89 1796.31V1796.31C2433.74 1791.25 2431.99 1774.75 2442.81 1767.25L2553.25 1690.69C2560.86 1685.42 2569.82 1682.47 2579.07 1682.18V1682.18C2601.94 1681.46 2620.52 1663.82 2633.26 1644.82C2652.55 1616.02 2682.82 1600.04 2685.27 1607.39C2688.62 1617.42 2678.59 1689.31 2660.2 1714.38C2649.57 1728.87 2657.49 1758.18 2667.33 1781.54C2672.76 1794.44 2668.09 1809.91 2655.57 1816.17V1816.17C2648.98 1819.46 2644.22 1825.56 2642.62 1832.75L2637.19 1857.19C2634.96 1867.23 2622.22 1870.42 2615.53 1862.61V1862.61C2613.11 1859.79 2609.56 1858.19 2605.85 1858.25L2509.74 1859.83M2394.46 1936.21C2423.35 1959.38 2491.58 2005.92 2533.49 2006.73C2573.55 2007.5 2678.79 2017.54 2732.87 2023.11C2737.65 2023.61 2742.3 2024.69 2746.81 2026.35L2802.56 2046.85C2806.53 2048.31 2810.65 2049.33 2814.84 2049.89L2844.67 2053.91C2855.3 2055.34 2865.32 2059.68 2873.62 2066.47L2921.37 2105.46M2843.42 1844.6C2847.29 1843.82 2881.88 1820.94 2908.08 1803.26C2918.59 1796.17 2926.43 1785.78 2930.44 1773.75L2965.86 1667.47M3058.59 1819.63C3073.65 1808.14 3099.72 1774.22 3083.55 1730.47M2554.26 1810.9L2490.97 1818.1M2466.28 1789.8L2542.97 1780.44C2550.74 1779.49 2558.62 1780.3 2566.04 1782.82L2577.1 1786.56C2583.22 1788.64 2588.27 1793.08 2591.1 1798.89V1798.89C2598.45 1813.99 2582.39 1828.33 2575.93 1843.83C2575.66 1844.49 2575.46 1845.18 2575.35 1845.89M2540.37 1749.16C2557.86 1744.18 2595.93 1741.85 2608.28 1772.31C2623.72 1810.39 2610.85 1821.7 2613.43 1821.7M2636.58 1657.06C2630.06 1677.47 2610.85 1721.79 2586.16 1735.78M3109.43 1239.2L3083.8 1243.24C3074.46 1244.71 3064.9 1243.88 3055.95 1240.81L3012.07 1225.76C3011.23 1225.48 3011.15 1224.32 3011.95 1223.92L3041.04 1209.38C3047.09 1206.35 3051.12 1200.38 3051.66 1193.63V1193.63C3052.19 1187.1 3055.98 1181.28 3061.75 1178.16L3090 1162.9M3025.58 2176.64L3064.44 2218.57C3069.44 2223.97 3078.48 2220.82 3079.05 2213.48V2213.48C3079.78 2203.92 3093.34 2202.78 3095.66 2212.07L3106.85 2256.83C3107.39 2258.98 3108.37 2261 3109.73 2262.75L3173.21 2344.37C3180.35 2353.54 3183.92 2364.99 3183.26 2376.59L3180.23 2430.35C3179.58 2441.91 3166.9 2448.65 3156.95 2442.74L3144.42 2435.28C3138.03 2431.49 3130.13 2436.92 3131.39 2444.24V2444.24C3132.72 2451.93 3124.04 2457.35 3117.71 2452.77L3100.07 2439.99C3097.01 2437.77 3093.32 2436.66 3089.54 2436.45C3055.04 2434.62 2993.17 2412.51 2981.8 2333.97C2966.75 2230 2808.06 2249.15 2806.69 2238.21C2805.6 2229.45 2693.14 2198.08 2637.05 2183.48C2608 2175.92 2549.62 2165.51 2521.41 2176.08M2511.19 2182.12C2513.84 2179.61 2517.3 2177.62 2521.41 2176.08M2521.41 2176.08L2502.23 2414.11M2519.4 2572.01C2507.36 2558.88 2500.7 2489.02 2498.88 2455.73L2502.23 2414.11M2502.23 2414.11L2479.58 2511.78M2449.09 2014.84L2449.86 2253.29C2449.87 2256.88 2449.56 2260.47 2448.86 2263.99C2443.34 2291.79 2429.84 2346.73 2412.21 2381.1C2388.67 2427.01 2360.42 2404.64 2352.18 2444.66C2345.94 2474.96 2411.6 2558.25 2450.58 2602.35C2453.26 2605.37 2458.18 2604.07 2459.09 2600.14L2479.58 2511.78M2479.58 2511.78L2490.1 2550.97C2491.73 2557.06 2492.36 2563.38 2491.96 2569.67L2475 2836.84C2474.77 2840.46 2474.87 2844.1 2475.36 2847.7C2479.16 2875.29 2487.81 2920.62 2499.85 2942.73M2509.36 2954.24C2506 2952.22 2502.82 2948.18 2499.85 2942.73M2499.85 2942.73L2503.94 3016.82C2504.55 3027.86 2508.39 3038.43 2514.35 3047.74C2531.97 3075.28 2554.89 3119.06 2551.9 3146.79C2548.04 3182.49 2574.11 3310.48 2612.92 3368.82C2623.23 3384.33 2632.21 3401.87 2632.67 3420.48C2633.89 3468.95 2639.76 3542.35 2657.13 3590.12C2675.52 3640.68 2677.74 3724.87 2676.13 3776.43C2675.83 3786.01 2686.44 3792.21 2694.53 3787.07V3787.07C2697.75 3785.02 2701.77 3784.67 2705.3 3786.13L2705.63 3786.27M2819.03 3812.37L2806.61 3816.65C2796.86 3820.01 2786.21 3819.68 2776.69 3815.73V3815.73M2819.03 3812.37V3812.37C2813.22 3789.11 2832.01 3767.02 2855.9 3769.03L2909.48 3773.54M2819.03 3812.37L2837.81 3921.07M3471.37 3772.34L3473.31 3845.94C3473.93 3869.56 3459.44 3892.68 3436.01 3889.64C3408.08 3886.01 3379.72 3869.91 3359.57 3854.84C3348.04 3846.22 3334.41 3840.4 3320.02 3840.13L3036.9 3834.99C3023.52 3834.74 3010.65 3829.88 3000.44 3821.24L2982.12 3805.7M3471.37 3772.34L3443.73 3727C3437.59 3716.94 3434.67 3705.25 3435.34 3693.49L3441.28 3589.88C3441.55 3585.17 3441.24 3580.46 3440.37 3575.82L3409.53 3412.16L3362.55 3063.46L3360.98 2947.84M3471.37 3772.34L3579.36 3802.41C3585.25 3804.05 3590.33 3807.79 3593.65 3812.92V3812.92C3600.13 3822.94 3612.8 3826.98 3623.89 3822.57L3750.1 3772.34C3794.58 3750.6 3881.16 3693.76 3871.67 3640.39C3859.81 3573.67 3713.03 3146.69 3664.11 3122.97C3624.97 3103.99 3546 2914.42 3511.4 2822L3428.51 2650.8M3428.51 2650.8V2650.8C3448.78 2647.46 3465.96 2633.62 3473.36 2614.45L3493.26 2562.96C3498.24 2550.05 3498.45 2535.79 3493.85 2522.75L3490.32 2512.76C3488.13 2506.56 3487.01 2500.03 3487.01 2493.45V2427.48C3487.01 2420.72 3485.83 2414.01 3483.52 2407.66L3459.08 2340.44L3439.89 2257.29C3438.72 2252.23 3438.24 2247.03 3438.46 2241.84L3444.97 2085.4M3357.6 2685.08L3330.4 2845.83M3330.4 2845.83L3356.61 2821.36C3363.1 2815.3 3372.75 2814.12 3380.5 2818.43V2818.43M3330.4 2845.83L3346.4 2864.5C3355.23 2874.8 3360.17 2887.88 3360.36 2901.46L3360.98 2947.84M3419.43 2808.73V2808.73C3415.65 2822.57 3399.9 2829.21 3387.36 2822.24L3380.5 2818.43M3419.43 2808.73V2808.73C3441.98 2806.22 3456.12 2783.12 3448.09 2761.89L3429.32 2712.28M3419.43 2808.73L3409.35 2697.43M3388.26 2688.88L3380.5 2818.43M2547.61 2594.57H2708.68C2716.35 2594.57 2723.94 2596.09 2731.02 2599.04L2881.18 2661.72C2884.25 2663 2887.39 2664.01 2890.64 2664.72C2955.82 2678.94 3086.51 2696.06 3124.68 2657.89M3080.07 2698.18V2698.18C3127.75 2698.18 3156.01 2749.9 3122.91 2784.22L3116.43 2790.95C3109.59 2798.04 3104.86 2806.82 3102.64 2816.43C3079.09 2918.6 3031.21 3099.89 3003.8 3109.76M3003.8 3109.76C2978.44 3118.89 2969.84 2950.7 2968.15 2835.11C2967.84 2813.84 2946.88 2798.92 2926.76 2805.84V2805.84C2904.14 2813.61 2882.4 2793.94 2891.92 2772C2904.01 2744.12 2922.11 2717.4 2946.23 2712.57M3003.8 3109.76C2985.47 3121.03 2950.42 3151.63 2956.85 3183.79C2961.14 3205.23 2976.79 3224.69 2991.25 3238.19C3001.07 3247.37 3004.09 3262.61 2996.42 3273.65L2990.77 3281.77C2976.96 3301.62 2945.89 3287.72 2951.49 3264.19V3264.19M3360.98 2947.84C3343.3 3002.37 3295.62 3115.18 3246.3 3130.19C3184.66 3148.95 3173.94 3339.23 3173.94 3355.31C3173.94 3368.18 3190.02 3467.88 3198.06 3516.12C3206.1 3600.09 3212 3776.62 3171.26 3810.93M2964.89 3403.55L3018.5 3435.72M3018.5 3435.72L3013.14 3349.95M3018.5 3435.72L3015.82 3751.96M2523.76 2660.09C2544.1 2759.16 2595.41 2962.07 2637.86 2981.18C2680.32 3000.28 2690.94 3058.13 2690.94 3084.67M2584.79 2975.87C2602.48 3013.91 2638.39 3101.12 2640.52 3145.7C2643.17 3201.43 2746.66 3679.08 2786.47 3700.31M2721.59 3317.37C2729.37 3313.48 2781.28 3283.95 2806.26 3269.68M2806.26 3269.68L2824.07 3223.9C2825.82 3219.4 2828.12 3215.13 2830.93 3211.21L2868.84 3158.13C2879.11 3143.75 2895.38 3134.83 2913.04 3133.92L2931.74 3132.95M2806.26 3269.68L2833.53 3266.34C2846.74 3264.72 2858.99 3258.61 2868.23 3249.03L2925.95 3189.17C2930.41 3184.55 2933.39 3178.7 2934.5 3172.38L2939.84 3142.12C2940.72 3137.17 2936.76 3132.69 2931.74 3132.95V3132.95M2931.74 3132.95L2929.61 3106.77C2926.39 3067.26 2885.35 3042.55 2848.92 3058.19L2835.62 3063.9C2796.34 3080.76 2752.94 3050.79 2754.79 3008.08L2757.93 2935.87C2758.32 2927.04 2764.05 2919.33 2772.39 2916.42L2822.71 2898.89C2837.54 2893.73 2833.36 2871.73 2817.68 2872.35V2872.35C2805.98 2872.82 2799.15 2859.32 2806.47 2850.18L2846.17 2800.55M2813.58 2759.4L2725.1 2900.31M2876.93 2716.8C2840.16 2725.17 2759.62 2748.26 2731.66 2773.6M2621.33 2621.77C2658.1 2637.42 2751.75 2666.55 2832.15 2657.81M3198.06 2780.57C3194.02 2790.69 3155.26 3035.8 3171.76 3136.75M3411.21 1774.83V1774.83C3417.92 1761.41 3438.12 1768.04 3438.04 1783.05L3437.15 1944.35C3437.1 1953.37 3433.73 1962.05 3427.68 1968.74V1968.74C3419 1978.34 3416.02 1991.8 3419.84 2004.17L3444.97 2085.4M3397.66 1797L3396.51 1963.71C3396.47 1970.29 3391.12 1975.6 3384.54 1975.6V1975.6C3377.2 1975.6 3371.59 1982.16 3372.72 1989.41L3405.49 2199.61C3406.02 2203 3406.24 2206.43 3406.17 2209.86L3405.05 2258.9M3405.05 2258.9L3310.21 2269.98M3405.05 2258.9V2258.9C3415.08 2258.9 3422.46 2268.3 3420.08 2278.04L3411.21 2314.33M3411.21 2314.33L3306.51 2319.25M3411.21 2314.33L3430.93 2314.46M3439.65 2349.12C3437.69 2360.92 3433.05 2379.96 3425.45 2399.72M3389.23 2458.81C3405.16 2443.99 3417.09 2421.42 3425.45 2399.72M3425.45 2399.72L3347.72 2471.42C3341.95 2476.74 3332.61 2472.65 3332.61 2464.8V2391.58M2982.12 3805.7L2962.17 3788.79C2952.97 3780.98 2941.56 3776.24 2929.53 3775.23L2909.48 3773.54M2982.12 3805.7L2994.3 3899.12M2868.55 4099.95L2848.17 3981.08L2837.81 3921.07M2868.55 4099.95C2820.77 4092.65 2799.67 4127.91 2793.63 4151.18C2792.72 4154.67 2789.53 4157.22 2785.95 4156.89C2701.49 4149.03 2686.82 4094.23 2682.11 4077.74C2680.28 4071.35 2681.45 4060.81 2684.39 4049.26M2868.55 4099.95C2868.55 4103.49 2868.22 4108.32 2867.36 4113.65M2909.48 3773.54C2908.29 3791.78 2909.98 3829.95 2926.29 3836.74C2942.59 3843.53 2978.42 3881.15 2994.3 3899.12M2994.3 3899.12L2998.54 3931.66C3000.14 3943.91 3005.71 3955.24 3013.61 3964.73C3026.45 3980.17 3041.91 4001.62 3046.85 4018.44C3049.78 4028.38 3049.45 4039.94 3047.63 4050.92C3043.92 4073.29 3045.97 4097.53 3060.49 4114.95L3065.67 4121.17C3074.36 4131.6 3079.12 4144.74 3079.12 4158.3V4237.13C3079.12 4241.8 3077.78 4246.38 3075.27 4250.32L3071.51 4256.23C3068.88 4260.37 3068.78 4265.62 3071.25 4269.86V4269.86C3075.35 4276.89 3072.11 4285.92 3064.47 4288.74L3058.31 4291.01C3051.36 4293.57 3046.59 4300.02 3046.17 4307.42L3044.96 4329.36C3044.02 4346.29 3034.98 4361.86 3020.02 4369.83C2987.67 4387.08 2944.6 4404.81 2929.68 4392.02C2905.91 4371.64 2880.44 4290.13 2868.55 4290.13C2864.81 4290.13 2860.42 4282.43 2856.13 4271.56M2705.63 3786.27C2708.05 3797.36 2714.48 3820.22 2720.81 3822.93C2722.78 3823.78 2727.39 3823.74 2733.28 3823.18M2705.63 3786.27L2776.69 3815.73M2776.69 3815.73C2765.67 3818.16 2746.32 3821.95 2733.28 3823.18M2733.28 3823.18L2722.37 3867.43C2721.13 3872.47 2725.62 3877.1 2730.74 3876.33C2731.53 3876.21 2732.33 3876.09 2733.14 3875.98M2837.81 3921.07C2829.71 3874.17 2771.12 3870.72 2733.14 3875.98M2733.14 3875.98C2729.54 3911.06 2719.43 3984.59 2707.85 3998.11C2698.85 4008.6 2689.23 4030.29 2684.39 4049.26M2684.39 4049.26L2667.89 4096.14M2667.89 4096.14C2657.18 4104.96 2638.23 4129.01 2648.05 4154.71C2652.17 4165.47 2658.52 4174.18 2665.26 4180.95M2667.89 4096.14C2669.78 4118.81 2679.42 4167.37 2702.84 4180.22M2690.56 4198.17C2684.71 4195.97 2674.62 4190.33 2665.26 4180.95M2665.26 4180.95L2666.85 4208.96C2668.52 4238.35 2691.94 4261.83 2721.33 4263.58L2785.8 4267.4M2856.13 4271.56L2785.8 4267.4M2856.13 4271.56C2850.7 4257.82 2845.42 4239.01 2841.81 4224.35M2785.8 4267.4C2775.47 4248.73 2744.98 4212.15 2705.68 4215.17M2867.36 4113.65C2866.29 4120.32 2864.38 4127.76 2861.27 4134.42C2856.08 4145.52 2842.06 4151.27 2839.55 4163.27C2836.43 4178.12 2837.87 4201.29 2839.68 4215.42C2840.3 4218.13 2841.01 4221.14 2841.81 4224.35M2867.36 4113.65C2865.11 4122.3 2863.83 4141.11 2876.67 4147.15C2892.74 4154.71 2888.96 4042.29 3000.43 4070.63M2883.29 4268.08C2886.12 4263.36 2920.13 4147.15 3057.12 4211.4M2930.52 4324.76C2934.3 4324.76 3015.23 4292.01 3055.23 4275.64M2841.81 4224.35C2866.02 4185.71 2933.17 4113.14 3007.99 4132.04M3081.25 851.701C3106.71 855.652 3162.52 873.961 3182.01 915.583M2747.92 1193.57C2768.23 1194.35 2802.57 1176.69 2828.88 1160.48C2844.11 1151.1 2863.6 1151 2878.12 1161.45V1161.45C2902.62 1179.07 2900.85 1216.07 2874.79 1231.28L2859.19 1240.37C2843.34 1249.62 2823.81 1250.15 2807.75 1241.25C2768.97 1219.75 2725.41 1192.7 2747.92 1193.57ZM3310.69 2189.66V2189.66C3314.04 2195.93 3312.98 2203.63 3308 2208.69C3296.02 2220.87 3279.84 2236.72 3268.26 2246.4C3261.98 2251.65 3253.36 2249.84 3248.49 2243.26V2243.26C3243.44 2236.42 3244.11 2226.93 3250.07 2220.88L3284.5 2185.88C3292.27 2177.97 3305.48 2179.88 3310.69 2189.66ZM3241.21 2396.74V2396.74C3246.16 2403.84 3257.28 2400.87 3258.01 2392.24L3259.8 2371.08C3260.37 2364.42 3254.8 2358.86 3248.14 2359.44V2359.44C3242.34 2359.95 3237.98 2364.98 3238.33 2370.8L3239.57 2392C3239.67 2393.7 3240.24 2395.34 3241.21 2396.74ZM2962.6 1027.94L2962.65 1026.19C2962.81 1019.86 2967.99 1014.82 2974.31 1014.82V1014.82C2981.27 1014.82 2986.68 1020.87 2985.91 1027.78L2985.71 1029.52C2985.09 1035.13 2980.52 1039.48 2974.89 1039.82V1039.82C2968.1 1040.23 2962.42 1034.74 2962.6 1027.94Z" stroke="#4B5563" stroke-opacity="0.75" stroke-width="15" stroke-linecap="round" stroke-linejoin="round"/>
</svg>
